/* XPM */
static char *_19ee517cd0d4989a50e67a1420fa8e5F2zTlYtfSq4X2KKL[] = {
/* columns rows colors chars-per-pixel */
"64 64 31 1 ",
"  c #0FEE1B",
". c #13EC1E",
"X c #31EC36",
"o c #39EC3D",
"O c #49EE4C",
"+ c #50EE53",
"@ c #5DF05F",
"# c #62F064",
"$ c #6DF26F",
"% c #73F375",
"& c #7AF57C",
"* c #7EF57F",
"= c #82F583",
"- c #85F586",
"; c #89F58A",
": c #8CF58D",
"> c #90F691",
", c #93F694",
"< c #96F697",
"1 c #99F69A",
"2 c #9CF69D",
"3 c #9FF79F",
"4 c #A2F7A3",
"5 c #A4F7A5",
"6 c #A7F7A8",
"7 c #A9F7AA",
"8 c #ACF7AD",
"9 c #AFF8AF",
"0 c #B1F8B2",
"q c #B6F8B7",
"w c #BBF9BC",
/* pixels */
"*-*%*::;->><:<>:*-*-::&::&>$=$=-&:%=&-:-**&--&:*<#&$--$-&$&$3>2>",
":%;:&2=,,=--->><:>-**:>;:::*=&%:$-*&&$*-&::&;-&::&**&=*&&%*@7;<>",
"%--:*1:<-=:<><<>->*--=->-->&;*-;%;=&$->=:=:>;&*&-=*&$;&*&=-+3:>>",
";:-;$2=:;:>-,:->%*::*&*&*;<**-;&%=&:&&:&*--&:-:=-@*=*--=$$-$82<>",
"-%%-+,;;<,>,>=;1-:<<<::<:*<*-$-=-#$*%=&$--:-&%:-*+@$%$#o@$oX04>5",
"<>;;,->:,;=->><;+***-$#$%&@2=;=<<=<<>:>12:21<>-<%q6746709869$-&-",
"-=,,-=-;::<->:=<$&&;*-=&:%*-:;&>*>*-*&>*>->>:=>:;3:333:>32<2%=->",
",>-:>>:-:><*:<<>%:=*;*-$%-$<=>;;*>&**:::;*-<:=-:-6<<4<>>3343&-;>",
"-=-:=---:-=>>=>:&:%**=&&*;&>-=>*>***:--<>::*>::--61<>2<12424-;>>",
";*:<>::>>--::*>:%&-&&&=&$%*::*>>->&>>&-;>:---<*=:4>3>4>143<1->-<",
";=;-;,>:<--<:*>>&-$;:;*=-;%<---;-->;*&->-::-:><;-634>224><45;>>:",
"-;>=*<:,*,-;:-*--&:&:*;;=---=-:*-:::&:<-*>;;*:<>=434<<2<>3<4&<--",
"*;>,;*=-->=<=->;%-&-%&&*:*=>*&>=-*:->-<-;:=<-:::-343<44342>6&>:-",
">-;->---:-*=:;>;=;*;$;;$$*=:===>&&>-&:-<=:<>;*><&9<>1<1>>222=:>-",
"--:>:--->;:,=;>-%-=;*&-&:;$>=>*&-&--:;:<-=:>;><>&4:53:345<<1$::-",
">>->1-**&;*-;:-<@*+&&$#+&@+;=--:=*&>&->:=*--->:--w509976667q-;><",
"**-=$6>>12<342>><64<67732>1=:=*:*>>;;*421>4>2>1:7 #o%#%#@o$o:$*-",
"---**2-<1<:><->1>>><:><;-><--***>:-:::;<:<11<-212$-*;*$&%$*$<:-:",
"*&*=&,:<1:2;<<<<2::<>>:>:;2-**:**--;:&22<:1<<;>:6$%$$*$%%-;&>&*>",
"**--;2;1>><:><:<:>>>4:<2::>&**>--;*:*&>>:><;>:2>2$;-**;&=&=%-&=:",
"=--&-2:,:<12<1>--;->:11>::1-<;-::>:*-*::>::2>22<6@=%&%&&=&--*-&*",
"&-=&*,<>:1>2;>1>:>>>21>><<<&:>>::-;:*=1;;>;::>2;4O*--&$$%%=#<&*;",
":;>-$2;;>121<-1:>>::<;>>>>2->*:*=*-;>-<<<>2:>1>:<@%$$$*$$*$%-*-&",
"&:>>=2-->>:->;11>>:<<>;1;<>-*>*:*<;<:->1><;><1-:1&$*=--$-$&&:->&",
"*>-*&2>1;:<>;>-<-2-<1>2-<<:&==::;<<-=&21><<><<:;7O-&%&$$*$-=*;-&",
"**&*-<<-11:--1<<><>:>-;:>-:-<>;>;;;:;:<<1<2::<<:6$$&*&**-*-@=&:*",
"=-&*#<:><>><22>4<34346<<416*:-*:;**:=&1<<2>242>26##%$-&#@#&@:-><",
";>2<>&&;*-;:-:-<O&&%$@*#$$#;-:=*&>&:>;*&*==:;*:;=>>>:;;-:>:;+%@+",
"-:<-;=<-<>=*<<*-%&-*:--&*:&::>*;&:=-:;;:*>*-**=*<:*&*=-->*;:+*$#",
"><<;;-;>><=>>><<-&=*=*&&:*&>*;->-->*&-=->*:-;-::>:-*&*:>&&;>$**=",
"<>---:-*-><;---1-*;&*::---:=&>--::*->*:-<-;*>*->>&**;>&-&->>+*&*",
"->>:;<:;:>-<*>;2*-=:**%;&;*::*-:&;&:&>>;->*;;>*=>&;*&--=:**>**@*",
"<-<:=:;-->>-=,:;-;-*:%%&&-%>*;;&>->**&<:>>-:*-<=>&=:>:&**&-:%%**",
":=<<--;>=*<:,*,:&-*%%:*:&:*,>;:>*=-:*-::>*>>-*:-:%->:--::**:$@*$",
";>=<->**:,,*-<*>*&*%&*=&=*;:*=;*>-->>:=>=*;:*>>>==*::-&&&-**@*-%",
">>::>::=-:<>*:-,%:-**&=*-:-:-****&:;===-=>-*>:--<;:;>-**:>&=$@**",
"<<;<:*=<---;->>2=*-;:&=*-&&<=---=;->*:>-<::>:>>><%=-&:---&-*&&$#",
":<-->2<-<>;>>,>2$=--;&*&&:->=*==**--::>1>;:3:1:<>*::&:**&:=2.#+%",
";1-;3$*&*$&*-#-@=-:<----,>=>----&&>&&<@@%@#***@$O-**:;-:*&:$2444",
";<:12-**=&:*-==;->:-:>:>;*:=:;=:=:**>;$-#$%%-=*-&**;*=:::*==<=>>",
":-::<-;-:*&:=%-*::&>>>-;:>=>---;-->;*-+*$&&%&*-%*:;:&--:&*:*4<>>",
"<:>,2&-%;%*&%&&;,=*=--->*:;*:=*=>-:;=<+*%=*#-$-$$*%-%:&-;=&=1<:;",
"<1:;,$::*;&*::-->>*&>--::*->*;->--*>*;&*$%$*-$*$&<-%-=-*:%-=3;1-",
",;->2%:*:*-*%-*->>&:::;;&:>*&&>*=*&;:=@*%--$&#*%@:&%&%*=%=-*2::>",
"<;<1>&*&-=;*--=*>;:*:&;*-*:;>*:**>-:-:%$&##-&-%#=>%;**:&*;;&4>:>",
"><,14&&&-=-::=&->--=-*:-:::-**--&:**=<@*=%$=$=-$%-&-=;*--==*2<-<",
"<1:<,&:**%&;=&-&,:;>=>*;&>&*:::>:::>=:&-$-&&*&-$=*&--==-&*-->1--",
"><,=1%-&::*;=:%-<:=;:-:;&>:>&>::*--&-<%%$#*$&***&::%--=*%;&%<:>;",
"1<<:5-;-*:-;:>:;;*;;-;&:>-*:>::>:=,>-<O***&&$++@o:*::=&*--:&>::>",
":%$*<o@@&#*#@@#+6:>:<<:-,1,$-&**-&&$%$>:;<-:;->->=&&&%&:%&:%0564",
">=&:>##&-*&&**%+<;*>-;->--:&&$%=*-%;;*>&::&&=:-***:%%:*%;%:@631,",
";*&=<*%$$$=-$*$@3,:>><=*,:>*-&*;&=*:***:&*:;&**;>&-&-:-%-=;#9:13",
":*&>2$$*=-#$*#-@2=<>-<:-:-,&&*$:-*---;-;&*&=:*&**:=&=---%***4<>1",
"::::-*@=$&*-@@-+5=-=*:<>;:,&*-%*=:-=&%=&::==-::-&%%:*%=;*;:$71>2",
">-&>-@@#&=#**-$+2><;-<;<;,2$&***&%;&&%--&;&**-::;-*:;-;*-*-@7><2",
":**;,@-$-$*%@*%$2<*>>>::*>2$$$;&&&$=-$*;*:>&-&-*&;&%&%*=%=;&7:<1",
">::-;$%#&#*&$**&>:>;-:;:<>>&--*&-;---&;-&--&&=&***:&-%*;:*&@4>2>",
"*>>=<+%==&**-##%<:>>-;>-:;2%*%;%&--%&%:>&-&->;&;--*:%-;;&:&%9;2<",
"=***-$#@&@%$$&#O<-*::>:;::>#*=:-$=&=&::*=*-*-::--&&&&%--***#23,:",
";>=>:++&++%%&*&+5<:><<;1:>1$-$-$$**&&*-=-:&>&&*->$%%%-*#-&*+9>>6",
"-;-=>->;:<:---,=*&&;-;=--:*;;,,,>=<=<-=;>&&:*>&*$><22><<<>1:=;>:",
"*-=-:&:>:*:;:&=*>;*&*;***:>->*=>&:>>-=:&*:&-;&:-%>::-<:,>><,=>>,",
"--:-;:*&---=&&&::=;:>&:=:>>:&>>--:->-&*&&=*>:-:>$,,>;<:><<<<:-=-",
"-->:->:*:;:-==*-::*-:*&:*>:=:::>*-*->;&**>*:>:-:$2,,=:-;::=-,:=;"
};
