/* XPM */
static char *aba2e1730a924e99eda224d2047ae2cdnZT7xmM7wOvw97Ti[] = {
/* columns rows colors chars-per-pixel */
"64 64 233 2 ",
"   c None",
".  c #250A12",
"X  c #342532",
"o  c #443539",
"O  c #785739",
"+  c #4B3A4D",
"@  c #533F52",
"#  c #554246",
"$  c #5B505B",
"%  c #624C5D",
"&  c #665758",
"*  c #725758",
"=  c #68635A",
"-  c #5E5268",
";  c #5E4F60",
":  c #695967",
">  c #755C64",
",  c #795C71",
"<  c #686265",
"1  c #796769",
"2  c #7B6B7E",
"3  c #776976",
"4  c #7C7479",
"5  c #6E6172",
"6  c #835D4E",
"7  c #986D57",
"8  c #AD7958",
"9  c #856867",
"0  c #8D746C",
"q  c #897365",
"w  c #866978",
"e  c #926A7A",
"r  c #877777",
"t  c #947773",
"y  c #927A75",
"u  c #967879",
"i  c #957966",
"p  c #A27771",
"a  c #8C807C",
"s  c #9F847D",
"d  c #B98362",
"f  c #AA867B",
"g  c #B6887A",
"h  c #B8947D",
"j  c #A7977B",
"k  c #CE946A",
"l  c #C5977A",
"z  c #D69C76",
"x  c #C18D67",
"c  c #D9A47A",
"v  c #7B6685",
"b  c #7B6A84",
"n  c #7D668B",
"m  c #7B688A",
"M  c #7E7282",
"N  c #7D6591",
"B  c #7F6A94",
"V  c #875F94",
"C  c #846C85",
"Z  c #836D8B",
"A  c #846686",
"S  c #946E85",
"D  c #837286",
"F  c #8A738C",
"G  c #8C7B8D",
"H  c #867588",
"J  c #937682",
"K  c #9C7C84",
"L  c #977588",
"P  c #836492",
"I  c #847492",
"U  c #8F7F99",
"Y  c #927C97",
"T  c #A57C83",
"R  c #A87B89",
"E  c #AB7E8C",
"W  c #9173A4",
"Q  c #8D838E",
"!  c #8C8586",
"~  c #9B8B81",
"^  c #95878A",
"/  c #99928C",
"(  c #968B93",
")  c #998C9D",
"_  c #968599",
"`  c #9C9598",
"'  c #A98886",
"]  c #B48885",
"[  c #AA968C",
"{  c #BB9788",
"}  c #A38B95",
"|  c #AB9D94",
" . c #A4949B",
".. c #AA9999",
"X. c #B79995",
"o. c #B38493",
"O. c #A7A098",
"+. c #BAA197",
"@. c #9D8DA2",
"#. c #9B8BA9",
"$. c #9E90A3",
"%. c #9998A2",
"&. c #A28EA4",
"*. c #A68AAC",
"=. c #A294A3",
"-. c #AC9CAD",
";. c #A997A8",
":. c #B49BAA",
">. c #AC9DB4",
",. c #A79BB0",
"<. c #B89FB4",
"1. c #ADA4AD",
"2. c #A8A3A7",
"3. c #BCA9A1",
"4. c #B1ABAD",
"5. c #B6A7A8",
"6. c #BAB4AB",
"7. c #ADA2B2",
"8. c #AEA7B6",
"9. c #B2A4B4",
"0. c #B3AAB3",
"q. c #BCABB4",
"w. c #B3A5BA",
"e. c #B6A9BA",
"r. c #BAACBB",
"t. c #BEA7BE",
"y. c #BCB3B4",
"u. c #BCB3BC",
"i. c #BDBBBE",
"p. c #C79887",
"a. c #C49894",
"s. c #D59E84",
"d. c #D9A587",
"f. c #C8A999",
"g. c #DCAD9B",
"h. c #DDAE95",
"j. c #C8B59B",
"k. c #DEB49A",
"l. c #DDB396",
"z. c #CDB48F",
"x. c #E3B79A",
"c. c #C29DAF",
"v. c #C2A5A6",
"b. c #C9B4AC",
"n. c #D4B6A3",
"m. c #D2BBA5",
"M. c #C3ADB5",
"N. c #C2B3B7",
"B. c #C4BBB2",
"V. c #C1B3BB",
"C. c #CCBCBC",
"Z. c #C6B9B9",
"A. c #D8BCB7",
"S. c #E4BBAC",
"D. c #E6BAA6",
"F. c #D9C2AB",
"G. c #C8C3BB",
"H. c #D7C9B8",
"J. c #E3C1AE",
"K. c #E7CEBA",
"L. c #F3D8BA",
"P. c #BBABC2",
"I. c #BBA7C1",
"U. c #BEB3C2",
"Y. c #BEB9C3",
"T. c #C2B4C4",
"R. c #C9B6C5",
"E. c #C4BAC4",
"W. c #C9BBC6",
"Q. c #C2B5C9",
"!. c #C7BBCA",
"~. c #CABDCA",
"^. c #C8B5C8",
"/. c #CBBED1",
"(. c #CBC3C5",
"). c #CCC2CC",
"_. c #CCCAC7",
"`. c #D2C5CE",
"'. c #D3CCCB",
"]. c #DCCDCA",
"[. c #D7C6C6",
"{. c #DED2CB",
"}. c #D9D2C7",
"|. c #CEC5D1",
" X c #CFCFD5",
".X c #D3C5D4",
"XX c #D4CBD4",
"oX c #DBCCD3",
"OX c #D9CDDA",
"+X c #D4C8D8",
"@X c #DAD3D3",
"#X c #DBD2DB",
"$X c #DCDADC",
"%X c #D7D3D6",
"&X c #E3C6C6",
"*X c #E4D5CC",
"=X c #EBD9CB",
"-X c #EBD5C8",
";X c #E4D4D3",
":X c #E0D6DD",
">X c #E8DCD9",
",X c #E9CCD0",
"<X c #DEE0DD",
"1X c #EBE2DD",
"2X c #E9E5D6",
"3X c #F5E7D5",
"4X c #F6F6DA",
"5X c #DDDBE3",
"6X c #DCCAE1",
"7X c #E2D6E2",
"8X c #E3DCE3",
"9X c #E8DBE7",
"0X c #E6E2E4",
"qX c #EBE5E5",
"wX c #EBE9E4",
"eX c #EBE4EB",
"rX c #EEEAEB",
"tX c #E7E3E8",
"yX c #F2E5E7",
"uX c #F5ECE4",
"iX c #F2EBEC",
"pX c #F5E8EB",
"aX c #F4F3E5",
"sX c #F9F1E4",
"dX c #F6F2ED",
"fX c #F6F6EA",
"gX c #EAE9F2",
"hX c #F2ECF2",
"jX c #F3E7F0",
"kX c #F5F3F3",
"lX c #F9F5F2",
"zX c #F9F5F5",
"xX c #E8F4EC",
/* pixels */
"                                                                                                                                ",
"                                                                                                                                ",
"                                                                                                                                ",
"                                                                                                                                ",
"                                                                                                                                ",
"                                                                                                                                ",
"                                                        rX                                                                      ",
"                                                        &       M $.OXQ 9X4 u.  %X2 !.                                          ",
"                                                        0X      C m w.eXtX;._.Q 0.eX^.@XaX                                      ",
"                                                                ) 6XD =.hXrXhXgXhX/.Z +X                                        ",
"                                                                jXb 7.zX0X2.XXE.#Xb b XX                                        ",
"                                                        2X6.y.0.r.9XOX7XXXu.).E..Xe..X0X                                        ",
"                                                      sX[ -X*X=X.X[.w u  .8XY.8.$.r.` >X                                        ",
"                                                        = z 8 z O k 7 z  .hX).N N N E.                                          ",
"                                                        ' l.k.l.x.x.x.h.} OXm V V W +X                                          ",
"                                                        X.K.L.H.=XH.-X_.u.>X` L S X.].wX                                        ",
"                                                        < z d.1 d.q { 4 aXaX}.:.X.y ~ _.                                        ",
"                                                        H w r.dX2XxX2XxXiXwXiXqX].1.W.%X                                        ",
"                                                        5 >.7.|.0. Xr.;XH./ 8.2.y.w M.qX                                        ",
"                                                        %.zXgX%.5X,./.S X.o # X + y t G.fX                                      ",
"                                                          3Xb.%XH *Xt t E *.^., ( u.e ].                                        ",
"                                                        @Xc d 6 * 7 s.{ &X: - + : ! } *X                                        ",
"                                                        f d.d.d.c d.g # X.o < I >.hX(.@X                                        ",
"                                                      4Xz.L.n.=Xu ,Xu r 1 | 1Xe.3 3.>X4X                                        ",
"                                                        { J.x.m.* D.g.a.G | O.+ 9 K } 2X                                        ",
"                                                        & wXaXgX` dXXXQ iXsX[.P P G (.                                          ",
"                                                        1 5 M.G 9X;Xw A 2.$X( _ e.eXtX                                          ",
"                                                      sXF.y / & y n.' : lXlXkXrX_. ._ XX                                        ",
"                                                        -X'.w.C pXR.A F _.G.H.3.X.*X=.'.                                        ",
"                                                        }.u.U.u.|.<.P I  .4 ^ r f.G.G [.                                        ",
"                                          u.E.E.E.T.E.Z.3XE.T.T.W.Q.I.F e.7.XX-.R.oX7XeX                                        ",
"                                          0.w.w.w.w.#.v jX5 C C `.Q ^.Z -.) ).E.~.T.#X                                          ",
"                                           X        %Xm N.q p.e A E S o.(.P.W.E.T.^.$.+X                                        ",
"                                          G.        XXt.# i g g e o.f u &.fX.XW.#Xr.E.XX                                        ",
"                                                    XXE. .( [ X.:.M.j.` 0.#X(.W.).T.W.>X                                        ",
"                                        aX*X`.XXXX+X0.: E.+XR.H /.zX4XrX_.I.Z.E.T.!.E.qX                                        ",
"                                        1X[ E.W.W.W.T.G U.: ^ ] { K.6.4.@.qX9.;.9.r.5XqX                                        ",
"                                          ` @X@X'.@X*Xa tX/ ! { k.{ 4 ; u.7X@.@.$.>.0X                                          ",
"                                          G.O.O.O.! ~ O.rX).C.1 N.r 8.M rXXXw.>.P.) u.wX                                        ",
"                                        wX= H.H.Z.3.f.b.(.% > & 4.O.1 6.qXZ.-.=.7.r.u.'.                                        ",
"                                          / f.O./ | n.* : : ] ' OX&Xf.>XiX:X~.XX:Xu.E.$X                                        ",
"                                          _.;XtXgXrX5.>.- $ e {  .h p.K.>X_ W.8XlX7X%X                                          ",
"                                          ; @.w.U.I.&.^.I A P P ~.N.E.|.P.#.w.1.%X<X(.0X                                        ",
"                                          J A m A P ;.5.K L F N K pX#XC ;.;.;.;.r.N.: `.                                        ",
"                                          &Xf 3 > 9 u b.t 9 > @ X.m.[ p.S.J.J.J.l.y | uX                                        ",
"                                        3XJ.H.:.Q [ b.oX4 : t 9 =X=XC.p z 8 d d k * r @X                                        ",
"                                        3Xn.XXr.$.9.'.9X:.2 v.a.&Xb.A.p.F.j f.+.m.% 9 {.                                        ",
"                                        uXK.u.W.`.~.T.q.{.].T.' -XZ.' f D.a.g.g.k.h f &X                                        ",
"                                            tX      0X:X`   rX! kXhXE.C T R T T R p g *X                                        ",
"                                                        Y.    ).hXE.T.W.U.#.w.,.e.*.c.*X                                        ",
"                                                              U.8.N _ V.8Xw.XXE.eX5X>XeX                                        ",
"                                          0.w.w.w.w.9.8.w.9.OX_ OX%X#XXX-.Y  .X.K.$X'.                                          ",
"                                          (.E.).W.W.~.!.I N ~.Y |.rXXXyX] u & 1 j i.G.0X                                        ",
"                                                        U m Q..XD 8.( v.s.7 9 . r #XZ. X                                        ",
"                                                Y.9.0.4.+X#XT.9.OXOXoX[.K w L , H w.^.                                          ",
"                                          ).).).Q.>.@.G wXdXE.D iX'.eX^., ] ] p ] ] +.0X                                        ",
"                                          2 m b e.T.!.!.U.P.W.H yXOXOX2 > f.n.] E ] w `.                                        ",
"                                          OX6XOXOX$X).9X_ m @..X0.9.T.oX+XW.&.n *.q.5.rX                                        ",
"                                          ).XX|.).`.).!.I m v E.T.U..XpX-Xb.: - ` 6.5.uX                                        ",
"                                          2 m m T.P._ ^.|.|.XX`.T.jX`.qXf [ y.y.B.3.0 {.                                        ",
"                                        hXb m m >.u.+Xu.eXzXlXiXXX1.1.iXm 1.<X X5X&.w.eX                                        ",
"                                          $X#X7X_ G ~.8X1.-.1.1.eXb 7.  |.7.  tXwX$XZ.5X                                        ",
"                                                yXeXiXhXqXrXeXeXhXeXrX    rX                                                    ",
"                                                                                                                                "
};
