/* XPM */
static char *_b71ba2cfdac4e20d026402aea841e32oI8IxXfKiJqdn97g[] = {
/* columns rows colors chars-per-pixel */
"64 64 54 1 ",
"  c #5691B3",
". c #5891B3",
"X c #5B92B3",
"o c #5C93B3",
"O c #6094B3",
"+ c #6194B3",
"@ c #6495B4",
"# c #6596B4",
"$ c #6796B4",
"% c #6A97B4",
"& c #6C98B4",
"* c #6E99B5",
"= c #6F99B5",
"- c #719AB5",
"; c #729BB5",
": c #759BB5",
"> c #769CB5",
", c #789DB5",
"< c #7A9DB6",
"1 c #7B9EB6",
"2 c #7D9FB6",
"3 c #7E9FB6",
"4 c #80A0B6",
"5 c #81A0B7",
"6 c #83A1B7",
"7 c #84A2B7",
"8 c #86A3B7",
"9 c #87A3B8",
"0 c #89A4B8",
"q c #8AA4B8",
"w c #8BA5B8",
"e c #8DA6B8",
"r c #8EA6B8",
"t c #8FA7B8",
"y c #97A8B5",
"u c #98A8B5",
"i c #99A9B6",
"p c #9AAAB7",
"a c #91A7B8",
"s c #92A8B9",
"d c #93A8B9",
"f c #95AAB9",
"g c #96AABA",
"h c #9BABB8",
"j c #98ABBA",
"k c #99ABBA",
"l c #9AACBA",
"z c #9BADBA",
"x c #9CACB9",
"c c #9DADB9",
"v c #9CADBA",
"b c #9EADBA",
"n c #9DAEBA",
"m c #9EAEBB",
/* pixels */
"e*ja*f9-9999t$9e=rrege&rr*sg<l9&3rorg@09&6g39g@re&0g;99<ee*e3=gr",
"*e%@3$29&*<-*9o3$9=e&>>&3g$==3@v><>>&e;==&=g$&<==g6>3@3l$;===09=",
"&&%%s4<***4$2*-3e&9@=;9>;*;;0>=<&=e;;@;&9<6@*@e&&=@@9&;3&<e>>$<*",
"0#f04aeOt9<ttOvs&0s*rx<9g<mr&0e>rr&0e@es>lr;eg;ge*sv;0l>r09e3@09",
"<#<f9>**<>tO%:<$0=&&=$6o=@;or=$@$>9<<$;=v=@$$>0<>;@&g&;&r&3@=66>",
"0v%>.O>j<$<:%92%o6>e&o&><9<$<&>9<>&$&e@&@$&l$<;*oe@<><*ro>;=;r&;",
"049v*ev*jvO90O8t;s0;00*rg*xr;gm&ee$9l<gg*sg=00&6g=r9<0s@rse0e&0s",
"@9*<-2>s-*::<4O<63&r$9**3r&6>=@r<&=&@ge&***3;**9&g&@*3=e;;*;3g6o",
":-0-9**$4-f*2%%$9r>$3;e>@$&@r>@&=&9&=<=&96*;>*s*&@&$g;$&;=e&*&<&",
"t$st<ssOxv-tx-ee*gr=g0<90<em&0gere30e6rr@0g&g0rg9$gx$9m$e0@00@rg",
"$94Os$>*-%t*&*:$r*<*@&0&3<=<e3;$<@9&&6=og3>=<*r<3<$*l>;=;>s<>$>o",
"O9<<<>%9*<-2&v2O**&e&9*>0r>@&&*s&$>33r;s@;=0*;$6&0$;9@<r@*6*>9*@",
"t4jt%t9-ss%ss$hf3s6ogx@em;0l>e9*eg=e6<se;9x>rv@rg$e0*s0*reoe0;g9",
"-jo-*>-t*9*%$e-o;>=r;o&**6*@<>*e&@@o@r<==3&9*<*>*g@>=;@r@o3<@e&>",
"2$<-tOO*%*9*.$O<0<&3<*9>;@$;6&$$==s$;&o<r$;&*&0@re*o0;>;&&l*=*$*",
"8>t0-t9*s8%f9<sj;rm;r0&9e*rs$er>eso0r=06orm<g0;xeo006vl&9x$llors",
"%***8->4 *e;&*3$x9&0**e>$9=*r$3>=;e==3=&e@=<;309;=&@g&o*&&0$6&=&",
"<8$*40*v&1&9#e>&*#;g&>#>6r>>>=&0&>=;$so=<=$r$;&>$0@e@;$6o$=o*9$&",
"t80v%ft*004ss049;9s*0s$0x30s;0n$60;sv&se>s9=r66gv<0r&9930r;9s>99",
"*0%%%**v-&10&v&>><*e;r$&&s9o9>3r=<>;@9=3@$<0>&<o3g$>&**g&;;@;r<3",
"8*<,92-*9<s@<#4;r;*$**r$=&<*0;<$$=g*9<o$9;;>*;e$=@;@r**0&&r@>&;;",
"9%09*jtOsr&ex;00*00;0s;0g$re&es39s9ld&l9&90&el6ss<el6esr0r>er*er",
",$>-f4-<o&r&o<>-0*&<<*r3&<&3g&3$&&g<o&@6r@$<$$0>*& <g;&*;*r>>=*3",
"*0*<-%$t*>**oeO&@666<#$>;r&;;&>s@@&=;g=;;==m@6=;=s;<or<r@&<;@r&&",
"t*9t*s99fv*9f>90;eg&l0&0r<rm;gg&er$9l>s9$99<sr;r0@0r*r0&9e*0g;6r",
",v*$<<$f<%*<oe4-;6*9<*<&@r&&;6o96@oo=r=o@3og<><<3l$&$**r9o@&<e&9",
"***89*&-O*t9#*<-g$*;&3v;>9=$s*&@&@g&>o6ol<&3o;g3&&> s;;>>=0;s@*6",
"f&0y>eeOff>sv;xs>00;e0@s0@rr*vr@ee@66;sg3rr$ge=0ml0g@rr006>xg@g9",
"<<4<eO*-<*t>>*%>0$<>6*0@$&@$g&;>$&9@;&$&0>&=& s*o***9&*@*or$$>&<",
"<f&88;*f<>&>;s%8;*&0o<o*9r$;&&@r>&&<*0>3@;<er*6*&s$*@=*s@&&**0;;",
"e&40$9f29f&99*sf&rx;rrr09>r0<er$gg;e9=gg>e0;mg;ss$6r;00&g9omr*g0",
"-v@*&>-9>%>&%f&>>1=0;=<&3m>=&6oe&<=<&0==<==m@0;>>s0*$&&e;@@<6s&>",
"&$&@0>;o;$e&=-==r===>;e;;&&;e<=&o*g<<<o<g*3==&9$<;;6r0;==10=*=;&",
"0>r0;rs*9e9rg-g69mg=ee&r9$90@re<9l$re&9l;gsogsogg&r63001lr sr1ve",
";&6&r;&=;>e<&$&&r$<39=g;<$;39;&&;&r>&&$@e$$1*=0*o$;1e*&91og;& o<",
"or$;&=@r$<=;or==<&&33$=$<m 3=;=e3&3=9e=3&;$9*@1&;g>3*=;r>*=*@s*o",
"m@9e&r93ee&6l@eg=ee@96$ee$rr=er>ml=0e@re@e0@e9@r9100&e66rg<em10g",
"3r;3&o@0&&<@=9@=6&&9$@===e;;<<<0 6@=og=oo*;0&1$$1r<o>;*m3=&ror$&",
"@ <=9@;@>$eo$;=>e=<;<&goo&>&e==&93l@;3&=9<>3@30$@;>&m=&=&$0@$;*&",
"g;e6<ms&0e6ee me&e9;vg&9e$ee&ge;rr&ee<rm&rr&sg@r0$rr>rr&9e=re&sg",
"==;@0*>&3&go&< <e9&$=<r;;<<@r3;=*=r@&&&$r>4o3*x&*>@6l *><<r;&&&6",
"=e&<@<=9>3===r$=$<$d=&$<<e;o66;e @@&9r13&@>0*$>>ol;<@<9g;$*$=re@",
"r$s0=rr<96=vg=er=69=fe&e0&ggers&99;gs*0xsrr>0r@em;gmorr;rg;er=gg",
"*go==>@d&=6;<e&@<&$g=$=@6e3;;;<e&;@*;4<&&1;0<>;6$n3$&;&0&6>36r=&",
">=o$06;&&oe>@;3&g&&$>@e=><@&d3$@<of;3*@&r>@*&@9;@&;&r *;&@r&==&3",
"e;mr=e9>9r>r9=er<le9e9$e9>ee=9xr0e3r0#0y@gx$e9&rg&r9;mr<d0@se=e9",
"><$<e&63<<e>06==me<$$o3;$$$>eo<<*;g *&&#0@&4*&e=;=@*e$$o<$0>=e;6",
"@g=6;6;r>6&<om=o<o=e&=@;$6=& =<g;;3&&e*&*7;g;<>&&eo&==re=<6@<e&&",
"6&9r;96<g00sr@9r*rr3g0$9x3vg3er&e0$0m;ss&6s6es6rr&0r69s&er30g;rg",
"o0; &6<s<&ro>0&;&6=g@;;*&0@@&&9e@<<;<0;;&@;r*&o>or&0;<;0@o6o@93=",
"=>;<3;;$9>g@0*o;r==&@;01@6@<r=<@;9g;*==;9&&>*>er@*>=e>&<$6r3<<;=",
"0$9r&9r;00$sl*9060g*re;ge=rr<9d>0r*gr>r9$r9&er$dg3eg&eg;6g3xr&r0",
"<&&9f&&*3*so>3>*ro&@**r1$3$;e$@=<69;>3*$m$@@@&g9&&><r>=<3@e@=;=>",
"3s;3>;&0&@*& s*6;6&63<&9es;6&&;9;<=*>go<=&36&@*o&x9$=;;v&@<&&r3&",
"m;rs=s0;r0&rg>g0*90&re<ng=eg=v9=g9oge$r9@sr&96;rl&gg@9g$ee<er;gr",
"@r&=*$&s@**=<r*@=o@e$ero=9o>=$<v*@*@>r>o=;&0*==;;r&@<$;eo<&&$e$>",
"&$=&0*6;>;0$o*$&r<*<;;9r6*=$r;&&=o9$*&<@g@$*;&s=;=$69&1*=>s6 =;6",
"9*rr@s9;gg$0g>69&gr<le=09@0s*rl&l0&9e*s9o09$er=0moex*r9;rg@e9>ms",
">o&=l@=o36s6>0&>0<@;;*03;@>3r*&$$3g&&&&3e&;@<>0@>**>s>@&&@e;=@*&",
"*r;$$@*f*96336<>&==r@3<<$9><3>>m@<*&oe$$@;<0**&;&x**$1*9=>o<&e&;",
"r<9s>rr&0e@0r>0g=gr;g9;e9696<ge;993rros0;ge*g93r6<gg$sx;xg$9f*0s",
"*m6>& $s<$o*@0o3=@&9 $&&$s;@*&*e>o3$&r<>o<@0>0;39r<&>O&x>*#*1y*>",
";0<*g>&$**9<&>=>s<6<;&6&&@*6e@$=3*r>&$@$g;;&*69>oo@*r3*4&OsO<>;9",
"r=l0&rv=s0<r0=0l$es&9g@er;ego9e>reo903g0&lgore*0r30l&r9<0g3ge<00"
};
