/* XPM */
static char *_1644506b8eb47e084ded3125e035bd1IgB1zqY2lwmtulSw[] = {
/* columns rows colors chars-per-pixel */
"64 64 36 1 ",
"  c #E4A137",
". c #E1A038",
"X c #E0A03E",
"o c #DFA042",
"O c #DEA044",
"+ c #DEA048",
"@ c #DDA04B",
"# c #DDA14E",
"$ c #DCA150",
"% c #DBA156",
"& c #DAA259",
"* c #D9A25B",
"= c #D9A25E",
"- c #D8A25F",
"; c #D7A364",
": c #D6A467",
"> c #D8A362",
", c #D6A468",
"< c #D5A46B",
"1 c #D5A46C",
"2 c #D4A56F",
"3 c #CFA67B",
"4 c #CFA77D",
"5 c #CEA77E",
"6 c #D3A570",
"7 c #D3A573",
"8 c #D2A574",
"9 c #D1A676",
"0 c #D1A678",
"q c #D0A679",
"w c #CDA781",
"e c #CEA881",
"r c #CCA883",
"t c #CAA987",
"y c #C9A98B",
"u c #C6AA90",
/* pixels */
":1;:*>:>-<77787><::--3t#%*>272::73322<72>-2722:>>><277:><2-:<q38",
"7>*%%*:1::77>747-%>2277>:7:27:<28q:o@*>:22:><<2:#%:2222737<>:><2",
"3348:184t7:7::82:>77<:*%3q72:*<<:<@o$*--24<qq7-:>:72**:2<7<>--3>",
"7<7%788<77:<72<<:<8772:#$<7:--%%%-**>>:>-2<<732772>-#@%%::<2qq37",
"=;#O<111>7<1>>::2->::*%*2-2<-:2>*2<:-<<:><7<><::<:*-:<2232<>7997",
"=w<=*<<:-*:87:1:7:-:**<>-:7<*2:::2:%-::*oo-%O*:<%:>*<77rt3<-<7>:",
">:171*%>*-%*:::1-*%-*o#*::2>-<-8q7<*::<%%>%O-*:-*--::<23q7833894",
"181180<=16:2::><:<<7>%-72>>*>q2<<>-:>%*:72><7<>::*-<><:%>7223qr3",
"23<*24<<002<2:2::-**2q::2>-*:7----->>:>->>->:222<<73777<7q2222<7",
"737-%:2274:@*:2:-#%-:87::*>:87<92227272-*2-222<82q3q727>><:-@#*>",
"<<<22q8q07:oX*742><2>7<->:>q2>752><:-<7:*<>:<223qq33374q->7-*>><",
":>:>%>>7>#*-#>>2>-->27--::>-*<9822:>*-:7>>-**->27*-233437<72>2:3",
">-*>->*::*o%8e*:<-#%>-#*><33<q7<<>:q2>7q38:*%*><37>277<33<<:>:>:",
"2422<-#>2:>-:8>::**27>-:7277<<<22>>><3>-72:::<<<<27223722273<>%#",
"e7:@o-*>::<:22:>*#>7:*>7>:<--<7q2<:-->#@*>2r4:::><7<->4433357722",
"->-@#OO*#>2<2>77<2233:-<2<<>5t38*%%*:-%#%*-22<2:-><:<q43<<23<<72",
"*:=#@*#%@#>--:288>>8544r<>:8282>*-:9r2:789#*-222#o%>2<2:>->qq732",
"3e7%#:77>#-:27*->**2qrrt2>2>>22<<999<>>744%*<:*-*<<><>72-*:><37:",
":37->27<72-*-:>:>:>7<77<<<:<--:q8q9--77%>8>-4q77799:--:::<:<<7<7",
"-<::>--$<2-*%:q<<:->>*:2342>:8<>:<<>2rq<:2:-q8q8794:*>><73rq-<3r",
"::><<>2272<<27q22:**%>-<r787::;%-<:2777<2<->-**-:752-<778<7:-:<:",
"<<:-2q778q9<:77:>>2<*:-::-:*@;26q7872><:<:<<>>-><<24<:>2q>-2tq<7",
"<<>>2<72<2797<2>77q482<>*-;>:22:75377<:->7:<>>:><2<82:<53*@-rq97",
"2<>2372-:2>>---<9922<-*%-2q82332:22q<:<:222<3<>:277q7:737:::<747",
">:-<<>::->>-*><7:-*-:<:>2qq928q27<#*#-<79992><<<q3735q9q7872>288",
"><>>-*><*->8<277-->77772q28>*:27q<*:*:77%-22:<q8822<q97<<7<7<:<3",
">:>-:->8772<>:>->::<73q2<:><:9:<7:<3q7q7<<-<7<:::2<<2722>233<:2q",
">227q<>8q2:72<>:<74>>:2<7q<258->:2272<-:872349q97<><7772>7<78223",
"7><2877:-<:q58<-<87::2<<<2292>>2:222:97:><q2::2<:->74u77855235r5",
"88<<<2222q7788<<277273:>-227<<927<<2-7t9-<22<-->>*>9<72q37735qq3",
"2::>q2-78q8<<7:<<272qr323q<>2<2222::>>272728<>>-::<:>-72<>:33<3t",
"--<237>>>87:>2<:>2<--2q2782:92:*>2>>7<::<2<->2<22::<84q3q3q278tt",
">-<:--:>*<<:>:<2<<:-#*-:->>:79<--:-<2:72<7:<q277:::-27:733q4r727",
"2882->:>:<:85882<:>:->->>22722<22:>22992:2:-<*%#-:>>:--><:84rq37",
">933qq778<<2q88<>->->7:>>2797<:2:77-%72:q72>-*%:q8:82q<->:qq2<77",
":qq3322<:>27>2q87<7:::-2q2::<272:92>:<928><::><78>23<<22<7879qq3",
"2222822--><8282qq<>-:>*<7<<:<2:::7<<977:-<<2<<>:><2:7222::$:<77<",
"--::-88<<><22:<:7*%7:><q82<:77<<8q8q:-##23<::>>9<*7-:77<:>$77288",
"9<:72:<<22q-%<<-:>-3t7::<7:<<>22787<:**-:372827q8<<<77727<:q33r4",
"r4<2228273y5<>>277:><::<<22<*>-*-<>-%><:>3577<::7<<>2<qq27<-*227",
"*>22722:qq<<2->:<22%-:---<:<22<<7>*>><7777q2<7272<q>>:22<:<q2>-2",
">>7<<3q:::<q22>>%:<<<2>*>27q37:747<:%2777<23929q7<-::-><<<277<77",
"<<2:>2>>799q72<::<278<::733q487<>272<qqq3>27:<<82>*>7:<7q<:-*-27",
"<:<4437229q9<7222q774704787:q79q72qrq7qq--722>798:2<7q223q<*-<<<",
":-<:722229<222<>&*272<7qq7775rq<::2<<<42%%<27244qq72::9q7>>-<77:",
"<<<-*:;>>>#>7<:<<<<2<:#*3<*2347--<<:77q7<<<79q9744q778q9:-782q48",
":727#*<**--->>2<2792::#%78<7438>:8q7qq>>:<q777:98:2<738>-:::-q5q",
"@3tqq2q>>77:@->:><<7<:78337738992>>>7q>2<<->:<2<2:><q2>><<<>-><2",
":2872:q2<2<272:7:->:72<7r57q9:2t8*><>797><<:853<77287-*-<59%%q<-",
"7:77%#%-*>:<<:><<*-238><7:27q22yt9:>*><<<2927227qq82%*<299:%#>-:",
"><7qq-$*>-:>>>>:<2:78722><<2q22quu<::27787598:253<>*#<7>>:->**:>",
"<r45q-:797q78737:-2:<8:<>-*:::<::5>-*:<--<98>-2:-:::<73q7:<7<277",
"7q7<<7q2*>7qr334:-32<rr7>**87<:<>>2><>*>292>:2q:::<28722<:229q92",
":->:2q3<o*2>><:>:2782-q<<<<:q92287qqy8>75285888:77<<2:<7277<2q7:",
":>#>7773q2:*>72>::2727q<78q45q:@#$*738294884q52222743733q872:>-*",
"272-><q8$:3>-#:3::::%2q83q2qrq2:>-73<<q9q9<>78<33><2<q359877772<",
"7q:><-77*3y7>XO<<3:-<74477<277::>qwr22<758<<28<<<:-q73::-<277999",
"<#%:-<3q2422:::<73. 77<<-<q22<-*;72>-7><7>>852287<72872>>-22->>>",
"2%<::722:227<77722277*>78-77<2<-*<22<<7<>:<>:2qq<283872:8:@-8-#>",
"q<r92<-2372qr2<<2<3e3<772--*:::<7r2>3:2q72<>><7>:72323q<-%%-:2<2",
">>7<>22<:777<<::<->:8:<32<<->7273<-:><>2q972:7<:>q<->q8>-*:7q92>",
"3qqq<::::<2:>>:<>-%*>>*27<:><8432-##->-;22*--::>752>7q9<-:-<q7--",
"492<327q772><8<:<>-:>:>:qr327q452:>%*--;:<:7:<2>77>->:7>%2<<:>**",
"<-*>7<77:<27q42:33<2:-278q372<<;<>>-%<7272<9<2r57<295<<>>8<>2:-<"
};
