/* XPM */
static char *_621415995650[] = {
/* columns rows colors chars-per-pixel */
"64 64 211 2 ",
"   c #050000",
".  c #0B0302",
"X  c #0D0903",
"o  c #0B0A08",
"O  c #110501",
"+  c #130B05",
"@  c #1C0E05",
"#  c #140E0A",
"$  c #190F0B",
"%  c #14110C",
"&  c #1F160A",
"*  c #1C130D",
"=  c #171412",
"-  c #1C1612",
";  c #1D1A15",
":  c #1E1C1A",
">  c #211306",
",  c #23160C",
"<  c #241A0E",
"1  c #291A0E",
"2  c #231612",
"3  c #241B14",
"4  c #2A1C14",
"5  c #231E1B",
"6  c #2A1D19",
"7  c #311F14",
"8  c #262014",
"9  c #2C2416",
"0  c #24221D",
"q  c #2C231C",
"w  c #2E281B",
"e  c #332416",
"r  c #382215",
"t  c #31251C",
"y  c #332A1E",
"u  c #3A2D1E",
"i  c #3B301E",
"p  c #252422",
"a  c #2B2522",
"s  c #2D2A25",
"d  c #282629",
"f  c #2D2B29",
"g  c #322622",
"h  c #352727",
"j  c #332B24",
"k  c #3A2D24",
"l  c #332E2B",
"z  c #3A2E29",
"x  c #2E302B",
"c  c #363025",
"v  c #3B3126",
"b  c #35322C",
"n  c #3C332C",
"m  c #3F382C",
"M  c #353332",
"N  c #3B3533",
"B  c #363833",
"V  c #3D3A34",
"C  c #3D3B3A",
"Z  c #402E2C",
"A  c #413627",
"S  c #41342C",
"D  c #48352B",
"F  c #43392E",
"G  c #493B2D",
"H  c #423531",
"J  c #483634",
"K  c #443B34",
"L  c #493D34",
"P  c #433D3B",
"I  c #4B3E39",
"U  c #513F3D",
"Y  c #3E413B",
"T  c #4A402F",
"R  c #454035",
"E  c #4B4236",
"W  c #45413C",
"Q  c #4C433C",
"!  c #4E493D",
"~  c #534335",
"^  c #534936",
"/  c #52443C",
"(  c #59473B",
")  c #53493E",
"_  c #5B4A3C",
"`  c #5B503E",
"'  c #453F40",
"]  c #454342",
"[  c #4B4542",
"{  c #454A46",
"}  c #4C4A44",
"|  c #4E4B4A",
" . c #524641",
".. c #594745",
"X. c #544B44",
"o. c #5A4D44",
"O. c #544D4A",
"+. c #5B4D4A",
"@. c #4D514B",
"#. c #565145",
"$. c #5B5246",
"%. c #55524C",
"&. c #5B534C",
"*. c #5E594E",
"=. c #555352",
"-. c #5B5552",
";. c #565C57",
":. c #5D5A54",
">. c #5D5B59",
",. c #614E4C",
"<. c #625446",
"1. c #62554D",
"2. c #63594E",
"3. c #6A594C",
"4. c #625551",
"5. c #695655",
"6. c #645B54",
"7. c #695C54",
"8. c #635D5A",
"9. c #6B5D5A",
"0. c #725E5D",
"q. c #5E625B",
"w. c #6B604E",
"e. c #656156",
"r. c #6C6156",
"t. c #65625C",
"y. c #6B635C",
"u. c #6C685D",
"i. c #736957",
"p. c #766758",
"a. c #72645C",
"s. c #73695E",
"d. c #635F60",
"f. c #656362",
"g. c #6C6662",
"h. c #656963",
"j. c #6C6964",
"k. c #6C6B6A",
"l. c #746561",
"z. c #796664",
"x. c #736B64",
"c. c #7A6C65",
"v. c #746D6A",
"b. c #7B6D6A",
"n. c #6E716A",
"m. c #7B7166",
"M. c #75726C",
"N. c #7B766B",
"B. c #7B736C",
"V. c #747272",
"C. c #7B7673",
"Z. c #7D7974",
"A. c #767779",
"S. c #7D7C7A",
"D. c #816E6D",
"F. c #837767",
"G. c #81736C",
"H. c #83796E",
"J. c #827571",
"K. c #8A7775",
"L. c #847B74",
"P. c #897B76",
"I. c #837D7A",
"U. c #8C7C79",
"Y. c #927E7D",
"T. c #7E837D",
"R. c #878076",
"E. c #8C8177",
"W. c #85827D",
"Q. c #8B837C",
"!. c #91837E",
"~. c #958A7D",
"^. c #848383",
"/. c #8B8581",
"(. c #8D8984",
"). c #8C8B8A",
"_. c #948582",
"`. c #9A8685",
"'. c #938A84",
"]. c #9A8987",
"[. c #928D8A",
"{. c #9B8C89",
"}. c #8F9088",
"|. c #9A9085",
" X c #93918D",
".X c #9B948C",
"XX c #959491",
"oX c #9C9692",
"OX c #9C9995",
"+X c #9D9B9A",
"@X c #A18E8C",
"#X c #A1918E",
"$X c #A39591",
"%X c #A99695",
"&X c #A49995",
"*X c #AA9997",
"=X c #A39E99",
"-X c #AC9E9B",
";X c #A3A19C",
":X c #ACA19D",
">X c #B1A19E",
",X c #A2A2A1",
"<X c #AAA7A2",
"1X c #ADACA9",
"2X c #B3A4A1",
"3X c #BBABA8",
"4X c #C6B6B3",
"5X c #C7BEB9",
"6X c #CCBCB9",
"7X c #D3C4C1",
"8X c #D8D1CB",
/* pixels */
"* g S ,.+.l.,.9.b.J +._.3X5X{.7X6X4X_.7X4X].-X2X$XK.b.].z.D.`.Y.@X$XD.v.l.v.x.B.R.t.N.T.#.&.Q 9.6.J.x.b.b.P.b.{.5.Y.b.b.l...5.z.",
"h z h 4.+.+.9.$X2X$X2X{.2X_.9.3X2X4X{.%XU.9._.*X-X].L.b.K.Y.K.z.{.`.`.x.9.:.%.g.T.%.=.e.8.$.n #.[ c.v.].I.J.U.K.9.l.0.+.0.l.D.D.",
"g g z I &.J.+.+.P.I.U.$X.X%XK._.9.@X!.P.b.+.+.5.z.,.b.z.z.D.z.z.D.7.B.' P -.Q -.q.%.! Y t.:.V %.K t.v.&XQ.J.L.v.l.b.P.z.0.%X`.K.",
"n [ L.9.z [ g.g.O.9.Q.=X@X4X%X].K.`.P.@XJ.5.0.P.`...9.+.5.z.0.z.5.H ,.K X.x.&.8.! Y x s P n s V s C X.B./.'.B.v.x.Q././.0.`.Y.`.",
"Q 8./.L.o. .X.&.l.I.C.5X3X>X%X*X`.Y.K.@X5.,.D.0.+.4 ' 0.D.D.5.,.U z H 6.N.L.:.=.#.B B x Y 0 % 5 3 x } x.[.OXm.M.c.[.N._.z.z.K.@X",
"N H b -.&.P g.oXoX-XQ.8X6X`.@X`.,.,.D.,.,.Z ,.h Z J ,.5.,.( 5.,.,. .O Q g.M.#.x @.e.u.Y ! b x W :.:.f.N.'.;XZ.m.Q.oXQ..X0.z.K.0.",
"/ 9...+.l.P.].l.b.x.4.>X-X@Xz.l.z.J 5.Z h J U ,.5.Z U D U 0.9.d.5.K + X.&.-.s *.%.W W x #.*.H.*.K u.&.s.Z.H.r.~.Q.y.6.x.,.8.z.b.",
"g I I ,.9.b.'.6 J...+.0.K.z.l.D.....0.U 5.U J D ' ' ,.5.5.,.+.9.6.8.&.Z.j.g.n %.#.W %.! *.6.s.c 8 E 2.L.H.N.u.L.E.&.&.6.C.6.+.9.",
"2 h 6 2 5.J ..'  .Q 9.U.K.U {.`.z.9.Y.U U Z ' ....0.4.D.g.8.6.v.9.b././.t.j.W &.} b W V *.$.X.- 8 n u.N.e.x.R.H.s.j Q u.&.P $.W.",
"2 6 6 g 2 Z H q  . .+.9...,.,.b.K.$XJ.Y.U I 4.D._.2XD.z.+.5.9.P.Q./.'.x.g.v.4.6.} c V b &.! w & y F 6.#.R ! X.Q R ; w ! -.X.g.Q.",
"h 6 6 3  .g z S H 5./.g.b.5.5.+.z.5.b.4.U 4.b.{.$X>Xb.+.g ..&.J.#X(.J.-.%.&.[ V c 0 n B 4.%.3 8 q n R s n n j n c y w X.s j -.I.",
"+...+.[ J g 2 6 H  .+.Y.J.5.6 6 . h 4.b.z.z.4.I ..z.9.+.j O.v.J.I.6.-.4.&.6.y.*.-.*.t.t.e.x.! &.R n c 3 n R ! #.! X.W x.j.-.&.s.",
"J z ..6.h a 6.6 H K 4...z.{.b. .B.9.z l.6...7.I 9.P.+.g +.=.Q.U.u.I  .-.Q &.j.t.j.u.u.-.q.e.*.t.*.W b 9 c j R #.e.t.Q %.4.y.t.M.",
"N z +.-.g 3 $ * -  .n B.'.+.b.C.+._.b.g.a H P.l 6 [ Q l.C.J x.J.b.t.9.O.} O.t.X.:.=.&.{ &.W V B } W W b = a q.:.j.&.W %.x.W.y.%.",
"5 j K - q q +.N $ h C.C.g.x.L.O.Q y.O.j N 9.9.n O.H b.B.J g.x.9.y.v.[ y.g Q ! 5 #.h.N :.j.N n s } %.8 V n c V } L.W.%.&.h.W.6.t.",
"2 O 2 $ q N 4.W 3 9.{.6.B.v.6.8.j.*.(.v.9.J.g.B.g.X.O.6.6.B.l.9.y.x.Q X.X.W s W :.t.! y.#.} ! ; j t.} W b Y =.! t.Q.W.u.R.t.:./.",
"q O . - * g } K 6 N.-Xy.B.x.'.x.x.e.j.e.B.oXR.Z.&.:.-.t.1.x...K K [ O.l.%.4.y.M.e.n 0 ; b N B s b :.h.6.W p %.t.t.n.Z.T.R.%.W v.",
"X.N 8 a N H } H s %.Z.v.g.%.Z.t.y.N.N.Z.Q./.y.} *.M.Z.j.I x.8.+.I n *.B.u.W W b @.s 0 - -.t.W.+X).C.M.-.y.n./.(.^.;XOX/.j.j.*.@.",
"&.[ N Q c s n 3 K j X.t.&.} W (.[.W.OXOXR.M.j.y.t.u.x.C.-.x.6.[ j - Q g.Q 6 a 6 9 % # h.T.;X;X}.M.S.XXj.%.=.{ @.%.n.Y W q.j.*.q.",
"6.x.Q q 8 3 c - &.H %.&.[ -.j.;XW.W.Q.oXW.W.W.Z.%.j.t.j.l.5.J 5 * $ Q g.} s ; j s b   V %. X;X).S.}.OXq.W.=.f } -.%.: ] #.j.=.%.",
"l n W &.O.P -.I O.K -.W } %.L.v.} R.W.<XOXW.N.q.=.I.v.=.d.,.d.+.o.I &.g.| I K s X ; * W k.1X1XXX).OXXXZ.A.} M f { } b x 0 %.t.@.",
"j n X.y.O.n %.Q 6 - X.K e.q.%.M.j.x.}.(.W.t.Q.:.=.=.M.I.z.d.Y.b.6.W  .8.J.P N a -   0 s C W.[.M.T. XW.f.n.% p C =.d p f @.Y Y ! ",
"6 3 Q  .K w 2 3 q z K o.L.R.E.E.R.C.c.k. Xg.;XT.S.A.d.d.8.d.z.S.| a P P 8.l 5 ] l [ a V f.h.^.).^.T.k.k.>.M f B } s p p } $.e.e.",
"2.H 3 6 g L 4.4.L v X.m.!.L.L.P.E.W.W.(.v.^.^.T.).A.^.V.' C.A.' M M ' l d.=.' N - M [ >.k.f.f.=.M.XXM.{ f p p f p = : x & 8 0 R ",
"z j q Q 3 H 4.y.X.J ) y.~.L.H./.'.W.C.N.^.I.| ^.] k.).T.k.A.C.d.>.' ' A.V.l.=.M o # ' d.d.' C | >.f.] C ' M : : = p ; : % H V 3 ",
"n  . .&.o.9.x.4.n g X.P.B.B.c.N.E.Q.B.8.I.[.+XS.,XXX^.h.d.K.K.' l O.' =.N ' ' ' h d | -.M ' | f d C b d p x p : o : f C X.W X.X.",
"z H 1.9.K.g.o.z 2 3 Q c.B.L.N.b.Q.:X;X(.Q.XXXXC.x T.,X).A.C.^.k.=.d.b.J.h M ' ,.=.h f . p M ' a p W N s =.B 5 % C =.-.B X.K s K ",
"6 n 7.6.&.K j S o.&.*.4.m.L.I.B.W.oX[.Z.oXXX8.f.).XX1X+XV.).*XJ.-.V.S.=.d : C 5 | l '   = : P [ %.-.P C N d 0 . : f V s ) Z.Q N ",
"q z j @ . * n X...P / &.y.y.g.x.j.9.%.} I.C.C.<Xk.f.W.XXXX).[.+XA.' M H ' ' +.d N N N o   l %.b V f.-.b ] j - : ' :.6.} j X.W 6.",
"q 6 g 7.H L  .&. .L W ..I.v.k.Z.M.:.-.k.I.8.[.%.f.d.[ l O.I.S.S.K.=.' d ' ' d.^.d.v.' N N M b - : W [ } 8.:.[ -.-.v.v.V.c P } *.",
"S z o.6.U.7.j H Q / x.L.C.[ t.+X(.f.N g.I.| W t.V.v.v.C.O.d.C.I.XX0.=.>.' o ' z.=.p o 5 a N P l %.=.:.8.6.W.8.B l g.j.t.#.6.7.-.",
"Q &.J.L.l.Q.y.I Q x.{.L.v.^./.I.W./.=.9.Z.8.O.O.+.6.=.H d.d.=.J.A.d.N h M h d M O.M - 5 l V P 3 s [ g.8.=.:.[ W =.:.%.:.6.X.} 4.",
"&.&.x.l.u.x.+.H  .N.$X_.,X^.).1X[.v.t.(.v.%.} -.9.g.6.Q ' O...k.' : = 2 h ' k.z.z l d.N # $ j q N -.I.7.v.g.*.X.-.j * n W P -.B.",
"+.I 2.9.o.H g I 4.c.Q.$XA.).A.V.XX^.g.OXW.t.7.c.x.y.o.z N p ' =.' h ' ' M d.d.=.' ' | ' d. .O.X.6.g.Z.y.:.y.-.I g.X.W X.K 9 g n ",
"L q j z q k [ 4.u.x.C.].+X).T.k.k.A.Z.O.P n j a N y.D.9.' N Y.A.' N ' k.d.' ' ' ' ' ' -.J.B.v.:.y.X.W K N.y.n $ X.:.&.[     c x.",
" .Q L z l v  .4.5.6.=.k.).).V.k.k.B f W P P X.6.6.7.5.' d.C -.d.' =.' ' ,.o d ' f N ' ' [ b.Q.x.B.-.} X.t.6.O.X.j.9.n X X.y.%.N ",
" .X.n g ..l H I Q Q K 4.A.k.^.).h.{ v.=.t.V H X.F 9 n &.P N ' d.N d l H ' ' M N >.-.] | X.4.j.$.-.#.4.*.t.6.4.u.u.I.Q.L.n W.*.v ",
"S J K 4.N H +.I H I L &.A.| =.k.f.C | 5 b n %.u.&.L ! ) v.V.k.V.8.- C d M ' d.' 5 p 8.-.x.! 4.x.L.c.N.6.*.7.s.I.x.|._.u.g u.- n ",
"6.' | l x d { { d d ] ' p O.y.&.! #.Q F ) *.7.&.9.-.+.&.-.8.[.| h ' z : | J ' o % Y } b s.|.~.m.&.1.c.4.*.I L Q 9.Q O.O.O.8 X N ",
"O.[ B M M : d ] M d ] | I f I *.$.&.Q y r.u.e.*.&.[ l N  .z =.8.' p p M =.k.=.' b { j.@.< R G E #.2.2.G X.+.4.4.6.I ..v.v.O.s N ",
"B l : 0 f : p M C B B C C { W.x.m R Y < 9 Y ^ s.Z.u.[ +.N g h +.P 5 = = 0 C c C % % s : . a.|.!.c.6.y.x.*.9.4.4.8.9.8.B.I.g.N M ",
"b C Y B 0 p d f B Y x d p ] C.X.c $.) c T v m ! ) 6 . . 6 a a P ' ,.M - C M | { p s 5 M A B.r.*.H.E.7.v  . .S N  .x.+...C.[.N 6.",
"| { } d : d x d x Y Y B P -.v.+.m 8 ; ) w & w y &.a a g M g I =.-.l.N J C ; c s 0 : = p j ) w 9 X.2.&.) Q z n o. .-.I =.(.M.oXv.",
"k.>.h.q.x 0 0 d Y Y q.q.5.+.l &.~.u.F T 9 & m m B.[  .[ H M -.,.O.[ 5 P c 0 p W %.0 B : F W v X.x.2.e.c.g.q [ L.g.+.I v.v.g.L.f.",
"h.q.@.h.Y p x Y @.n.T.h.u.I.u.m.R.w.! w i 9 i < X.z n j g g P K [ N 0 K % X + R ! x x + m $.2.s.u.#.4.7.b.. I C.g.+.P ..| P O.M ",
"q.T.;.h.Y B Y @.h.}.Q.! y.Q.u.r.#.T *.T Y T ^ ! s.2.[ n -.K z P 9.l 3 a N 3 s P B %.W X.X.s.u.*.#.r.x.X.g.. O.B.8.+.| N n O.j 0 ",
"q.n.q.h.@.*.h.n.M.t.N.} ..y.X.$.T T T T T ^ ! ! u.b. .Q I H J X./ Q W J 3 + X P ! c ! @.! u.e.#.} m.m.t...a 4.g.d.I 6.' = l C b ",
"{ @.h.n.h.T.W.h.} n #.%.t I e.e.) m ^ w.` i 9 Y y.7.L P o.c.+.v 4.6.k 3 s + + E %.#.%.%.n #.x.! X.W :.X.=.8.K d 2 [ [ P W P -.n ",
";.Y ;.@.e.M.(.e.) R *.m.X.H &.6.s.` $.i.i.$.e 9 ^ &.&.)  .y.l.4.4.l.x.s.9     - w c B W #.:.} t.%.j.! V M -.%.[ O.=.O.d.+.h >.l ",
"T.h.T.M.W } e.E e.2.) <.x.<.s.3.3.<.i.~.R.F.~ i y v / z 4.3.7.4.X.*...j y.& . 2 W *.R c ! ! %.#.-.} [ V l W W W O.a f d.C   l 5 ",
"C.t.! t.4.X.o.L i.p.G e 7.&.o.F A <.` i.i.w.T ` E q 4 > t 7.Q , L s.7.6.W v #.&.E P m X.} w ; a %.%.P 5 N [ M O.N d.d.I.-.l b l ",
"h.=.{ u.H.7.<.L p.7.~ 7 2.a.o.A i <.T e A i i ^ 1.3.+.S t ..~ 4 t L 2.x.Q t j S F F n c B ! R *.W -.| 6.| %.=.=.N | >.O.[ l j 5 ",
">.} =.&...J S k ( ~ _ r G b.P.3.L ^ ` G u e A G o.F.b.1.L S ( 9.7.a.a.&.2.X.L Q m n X.! :.%.u.q.W.M.N.q.[ B =.C | M d.d.b s W N ",
"[ b y.n v t 7 u U U 3.r . S ..F F G w.^ ^ i ( <./ ( L J t o.o.J ..o...u.u.2.Q ) H c ! m W %.=.u.j.C.t.} P V W } -.-.| | l 0 6.-.",
"l g j @ y > G ( D _ _ D @ @ u A S k L k v D k 7.$.H k A k 2.L.m./ ) F ) ! o.t < k c v w w *.&.#.x.w.u.*.X.w } b M f f W z.' h O.",
".   . @ u u ( p.w.F.,.<.6 , e X.~ y.D G / $._ 7.( k / y./ F / $.F 2.) E / 2.! K F L &.#.R #.) 2.T.*.q.#.b B u.B 0 s C ;.J ' f f ",
"  . + L u A u <.3._ U 3.D 1 ( k 2.&.~ 3.6.9.7.7.&.D 2.c.x.E 2.X.v K o.) r.&.A F L ! ) k #.#.m v u.N.T.u.W Y q.0 5 { %.q.n f l l ",
"+ 9 y A 1 1 , e u 1 D D D U ..L J 3.L z.2.3.a.7.9.) 3.3.2.v 6.S J 9 ) 1.6.2.&.r.$.2.H.s.K #.*.E #.$.e.! c m e.B : ! %.u.W :.P N ",
"$ 2 y < > > e 1 r 1 ,.D D 7.3.( ( 7.o.$.<.7.G.r.r.<.1.1.a.) X.A 2.! n ! / E ) &.) X.m.s.e.c 8 y e.e.! & w ; R V B =.%.n.' P N ' ",
"2 O 1 , 9 1 D 4 1 u D._ ( y.c.( 5.<.s.3.s.a.G.3.1.0.7.7.m.m.o.6.m.H.j A 2.$.E &.2.&.r.*.$.v E c E #.%.! R X & 0 c q.q.N.d.8.P ' ",
"6 * 3 , u y A t @ S +.<.&.<.+.a./ r.7.D.c.b.D.1.o.s.0.7.#.2.$.s.F.'.) E K &.$.2.#.L 2.c.2.Q *.F ) u.e.c ! 0 c b - V } W.V.J ' =.",
"g ( F k y A A G 4 z 2 L 7.4 / <.x.c.1.3.1.F.E.y.G 7.<.p.r.2.m.m.|..Xs.L 2.r.X.$.2.F L o.*.9 c 9 T &.e.2.&.N W W 0 W j } ' P d.N ",
"4 t J u < k t t , , H  .S ~ k ( ( 2.U  .p.7.F.( ~ r./ / u.$.m.s.~.N.E.e.7.m.2.m.2.! F F X.k 8 4 k 2.N.x.R c j W } ! ; l C ' f d ",
"J 2.m.) o.) D t 3 3 H [ A 1...I S ~ / 3.p.r.6.J v o...( 2./ $.6.7...$.) r.x.s.7.7.#.r./ J k v F E e.c.e.&.#.Q %.} Q b O.{ | { | "
};
