/* XPM */
static char *a264352f47434362d16564d19b1e7916m7gGLqPSCHxUpxPB[] = {
/* columns rows colors chars-per-pixel */
"64 64 225 2 ",
"   c black",
".  c #010101",
"X  c #020202",
"o  c gray1",
"O  c #040404",
"+  c gray2",
"@  c #060606",
"#  c #070707",
"$  c gray3",
"%  c #090909",
"&  c gray4",
"*  c #0B0B0B",
"=  c #0C0C0C",
"-  c gray5",
";  c #0E0E0E",
":  c gray6",
">  c #101010",
",  c #111111",
"<  c gray7",
"1  c #131313",
"2  c gray8",
"3  c #151515",
"4  c #161616",
"5  c gray9",
"6  c #181818",
"7  c #191919",
"8  c gray10",
"9  c #1B1B1B",
"0  c gray11",
"q  c #1D1D1D",
"w  c #1E1E1E",
"e  c gray12",
"r  c #202020",
"t  c gray13",
"y  c #222222",
"u  c #232323",
"i  c gray14",
"p  c #252525",
"a  c gray15",
"s  c #272727",
"d  c #282828",
"f  c gray16",
"g  c #2A2A2A",
"h  c gray17",
"j  c #2C2C2C",
"k  c #2D2D2D",
"l  c gray18",
"z  c #2F2F2F",
"x  c gray19",
"c  c #313131",
"v  c #323232",
"b  c gray20",
"n  c #343434",
"m  c #353535",
"M  c gray21",
"N  c #373737",
"B  c gray22",
"V  c #393939",
"C  c #3A3A3A",
"Z  c gray23",
"A  c #3C3C3C",
"S  c gray24",
"D  c #3E3E3E",
"F  c #3F3F3F",
"G  c gray25",
"H  c #414141",
"J  c gray26",
"K  c #434343",
"L  c #444444",
"P  c gray27",
"I  c #464646",
"U  c gray28",
"Y  c #484848",
"T  c #494949",
"R  c gray29",
"E  c #4B4B4B",
"W  c #4C4C4C",
"Q  c gray30",
"!  c #4E4E4E",
"~  c gray31",
"^  c #505050",
"/  c #515151",
"(  c gray32",
")  c #535353",
"_  c gray33",
"`  c #555555",
"'  c #565656",
"]  c gray34",
"[  c #585858",
"{  c gray35",
"}  c #5A5A5A",
"|  c #5B5B5B",
" . c gray36",
".. c #5D5D5D",
"X. c gray37",
"o. c #5F5F5F",
"O. c #606060",
"+. c gray38",
"@. c #626262",
"#. c gray39",
"$. c #646464",
"%. c #656565",
"&. c gray40",
"*. c #676767",
"=. c #686868",
"-. c DimGray",
";. c #6A6A6A",
":. c gray42",
">. c #6C6C6C",
",. c #6D6D6D",
"<. c gray43",
"1. c #6F6F6F",
"2. c gray44",
"3. c #717171",
"4. c #727272",
"5. c gray45",
"6. c #747474",
"7. c gray46",
"8. c #767676",
"9. c #777777",
"0. c gray47",
"q. c #797979",
"w. c gray48",
"e. c #7B7B7B",
"r. c #7C7C7C",
"t. c gray49",
"y. c #7E7E7E",
"u. c gray50",
"i. c #808080",
"p. c #818181",
"a. c gray51",
"s. c #838383",
"d. c #848484",
"f. c gray52",
"g. c #868686",
"h. c gray53",
"j. c #888888",
"k. c #898989",
"l. c gray54",
"z. c #8B8B8B",
"x. c gray55",
"c. c #8D8D8D",
"v. c #8E8E8E",
"b. c gray56",
"n. c #909090",
"m. c gray57",
"M. c #929292",
"N. c #939393",
"B. c gray58",
"V. c #959595",
"C. c gray59",
"Z. c #979797",
"A. c #989898",
"S. c gray60",
"D. c #9A9A9A",
"F. c #9B9B9B",
"G. c gray61",
"H. c #9D9D9D",
"J. c gray62",
"K. c #9F9F9F",
"L. c #A0A0A0",
"P. c gray63",
"I. c #A2A2A2",
"U. c gray64",
"Y. c #A4A4A4",
"T. c #A5A5A5",
"R. c gray65",
"E. c #A7A7A7",
"W. c gray66",
"Q. c #A9A9A9",
"!. c #AAAAAA",
"~. c gray67",
"^. c #ACACAC",
"/. c gray68",
"(. c #AEAEAE",
"). c #AFAFAF",
"_. c gray69",
"`. c #B1B1B1",
"'. c #B2B2B2",
"]. c gray70",
"[. c #B4B4B4",
"{. c gray71",
"}. c #B6B6B6",
"|. c #B7B7B7",
" X c gray72",
".X c #B9B9B9",
"XX c gray73",
"oX c #BBBBBB",
"OX c #BCBCBC",
"+X c gray74",
"@X c gray",
"#X c gray75",
"$X c #C0C0C0",
"%X c #C1C1C1",
"&X c gray76",
"*X c #C3C3C3",
"=X c gray77",
"-X c #C5C5C5",
";X c #C6C6C6",
":X c gray78",
">X c #C8C8C8",
",X c gray79",
"<X c #CACACA",
"1X c #CBCBCB",
"2X c gray80",
"3X c #CDCDCD",
"4X c #CECECE",
"5X c gray81",
"6X c #D0D0D0",
"7X c gray82",
"8X c #D2D2D2",
"9X c LightGray",
"0X c gray83",
"qX c #D5D5D5",
"wX c gray84",
"eX c #D7D7D7",
"rX c gray85",
"tX c #DADADA",
"yX c gray86",
"uX c gainsboro",
"iX c #DFDFDF",
"pX c #E1E1E1",
"aX c #E4E4E4",
"sX c #ECECEC",
"dX c #F1F1F1",
/* pixels */
"G.P.G.G.z i x ^ %.^ z F t P z %.C C w [ ^ 6.a.T ' P F 7 n i t K i x ' ^ +.n f F F x F F K z T C z z 4 z K : 7 K F : F T [ f @ w ",
"B.<X`.t.t C z x x T ~ X.C +.' x : z C ' f.6.C 6.' =.t.^ & i K 4 x n t ' 3.^ P t f ' n i n 7 i K =.P > t C & =.t.w K 6.P T T 4 4 ",
"`.pXrX/.C [ n x ' X.^ ,.P.[ f 7 7 z n %.G.' f f.w.~ ' T C > K C 4 : t f 3.C t 4 x ^ x z i t x T ,.P x %.v.m.+.C n P 7 ^ 6.=.i w ",
"=.OX/.~ w x %.3.T 7 T B.R.^ x 4 z ~ n X.[ ^ ' F ~ ' ^ ~ t ^ [ ~ F 6.=.z C 4 f x C C 7 f f i f [ 6.%.+.a.R.~.w.n P z n =.G.,.f z ",
"C B.B.B.T & C C F ~ ' 7 ^ T %.%.T +.x X.T %.,.' K ' T a.~ z t.P.B..X' @ z F i t z P P > t C ~ m.B.R.B.3.m.}.rX~ > z ^ 6.`.6.n n ",
"' }.eX/.S.P./.3.%.~ t @ F x X.t.' ^ F ^ S.rXuXa.%.6.f.[ ,.=.G.+.F ,.v.z 7 x & C ,.B.B.w C +.3.R.v.~./.X.^ G.~.n w [   ' <X' t f ",
"a.=.,.^ P t.,.6.3.C F [ z P T F x [ X.n R.eXOX+.[ T [ K i l.+.%.6.~ t.a.x t ^ R.aXdX9X=.+.^ t [ w.f.G.^ & 7 X.t.t.,.7 P R.t : 4 ",
"x f i z ,.[ w 6.C f w.' n t f F ^ n ' K %.eX}.P F 3.> t ~ S.,.+.=.' P ~ z f ,.S.t.B.`.v.4 w : n w.' v.6.F ^ S.rX=XP T ,.,.z n > ",
"w ~ z F f.' & i T l.}.l.z K K z ^ 4 t F =.}.uX' ~ ' T n F P.X.a.F i x f 7 n w %.f i C =.x   i +.6.%./.%.x %.+.9X/.^ 7 [ ,.t ,.[ ",
"f K [ x X.' f f +.X.,.R.f.~ ' ' ^ K v.`.OX9X=X~ P C %.n z OX^ K z x w > t w 3.l.3.n [ z w ~ K [ B.' B.w.i P 4 S.S.w i f.X.& K =.",
"[ 7 i [ F X.n > ' w.=.B.B.S.=.C ^ ~.<XP.<Xm.3.K n n l.' ^ ~.K n & : > i f z F %.t.X.F F C ' x +.l.t 3.R./.B.w.}./.+.l.B.n 4 4 ~ ",
"`.w.n n n f z %.%.`.v.3.eX.Xt.S.`.~.m..X}.3.T C K T w.a.l.P.n f t z ' w.+.,.,.G.v.x @ P w.F z 6.[   n a.' ,.,.P.%X}.K 4 i F 7 f ",
"}.~.S.T K t P a.P t.%.,.t.OXOX}.S.R..X.Xm.' n ~ [ 3.w.}.P..XF f ,.[ ' X.+..XeX9Xf.=.[ X.X.i X.' K K C z 7 > +.4Xa.T : 7 F t     ",
"/.R..X%X~.=.[ ^ f f C T =.`.}.~.G.`.m.,.C z 7 ^ ,.6.' `./.R.~ x P z z f [ OX%X9XP.S.P.OXP i f.z 3.^ C n [ F t ~.+.> 7 T K & K ' ",
".X%X~./.<X6.[ 6.+.w x T R.%X`.~.`./.6.f x i f P 3.X.F t.v.v.v.B.6.P ' K t.`.9XrX9Xi 6.sXv.' %.F ,.f w K K t z /.%.i 3.w.7 : P ~ ",
"X.%.w.[ C ~ =.a.z f w.v.%.+.v.S.%.3.B.~ ^ K z T 6.K =.f.f.`.f.F F x t.f.[ ~..X/.=.w B.<X`.w.> T %.z 7 t f 7 n R.t.t.R.S.z f w f ",
"t x +.~ 4 i =.w F .XB.B.+.& F %.m.~ /.P f 4 C t.6.t.X.^ [ ~.K n P %.P t T +.~.~ i K : n G.l.t f x K P f f t T l.G.l.9X~ 4 z > x ",
"P i X.f.C & F P =.~.G.[ t 7 7 f.~ +.[ x K 4 C ^ B.4Xw.m.f./.S.%X}.' K 4 4 F P.%XR.=.a.P.R.+.P n t n w t x T w.R.%X4X}.[ C > 4 f ",
"%.=.=.' ~ x C ' x f n > z 4 K R.F X.3.x C x ~ T X.l.f.4 =.`.l.,.m.3.[ F x x 3.9XOX3.OX%X6.,.=.T t n t i P a.w.3.3.B.f.P.=XOXm.^ ",
"T v.=.C =.=.F ^ n i i K f f.K [ ,.' t.T   z 7 [ ' ~ P x ~ .Xt.K T T w C [ z w ^ B.`.4X,.X.' x [ +.n 7 C m.P.7 @ : 7 7 f x +.3.F ",
"P t.X.~ %.%.x F n w 4 4 z ~ [ z ' f.%.v.T T K T z F > i i S./.+.w f t 4 f T ' x C S.v.' w F ' P C f C C z n t f x n i i : 4 ~ C ",
"=.a.=.C x i i F f f F F w w f P x C a.,.m.a.v.' 4 i C 4 ' OX<XX.x z 7 t P x F C z ,.n P X.f w.=.t & z 6.F @ x f ~ ' w f : @ z ,.",
"~ %.6.~ C i t C F i z @ > P x t K i F F 4 z f i K F F K w K ' T K f > P z   x K 7 T K +.3.,.l.n z ~ z x t : f & @ z 7 n w f 7 F ",
"+.%.^ n 7 [ K ^ 3.x z 4 i ^ ^ C ~ w.X.T P : w n F v.F 7 4 z P [ 4 ^ n %.C i t i > +.m.K ~ G.3.t K w @ i n z t > C =.[ F > i T f ",
"F T f 4 n ' B.X.%.n & z x 7 7 i ~ X.6.' K i > ,.3.%.F f ^ x X.P n ' C P F i C C t x =.n 3.R.t.[ t 4 t 7 w ^ t f z C f x C n %.K ",
"~ ' %.X.w.f.a.f.P.=.t.f.t.~ =.[ X.X.a.3.6.B.v.+.3.a.,.B.B.=.w.,.[ [ 3.v.6.[ t.t.l.=.+.t.a.m.=.%.=.[ w.%.6.a.^ P %.P i K X.T ~ 3.",
"%.+.3.=.G.v.' G.=Xm.f.=.6.P F x i K X.K P %.n f w.m.X.T C x t x C z n i i ~ w.F +.w.3.n ^ f : f ^ F z 4 n S.a.z z n z f i i 7 w ",
"C : t x T f t X.T x x K x n > 4 > C n > t ,.w F a.3.~ f x x : 4 z X.~ i t   x n K 7 i 7 > x n P i 4   t +.=.F : 4 : i T 4   4 i ",
"F x i K [ K z P t t C K i K t i f x n z K ,.7 i x f T t 4 7 w & w T C f t : P 7 4 w f > T =.G.3.f K t ' %.f > F K 7 f X.K 4 t i ",
"6.S.~ i K K w [ +.^ ~ 7 > 7 i n T 7 P 6.G.t.' x +.P./.P & t C > : > > n z : z @ w n   t t.l.P.=.^ 3.C T n t w [ F i t f x F K K ",
"P.<Xv.F t t f ,.t.+.[ x 4 & t ~ T F w.a.t.' ,.C f.rX=XT z ^ K f &   K 3.K t f i t x > C %.X.,.=.l.a.=.+.3.f > ' t.n 7 i : 4 ' 3.",
"%.R.%XP.v.P f i F ' K ^ ~ n @ =.K a.f.X.a.w.,.%.l.<X.Xi w ^ i 4 4 7 P T i i t +.w t m.v.C > > t f.=.6.~ x : z l.pX[ n w.K x 6.K ",
"K ~.P.t.a.v.7 F ' F i X.,.P w ' %.~.[ x %.3.n t.`.9Xt.z > x z : n 4 w t w ^ t ~ ~ K x z > i z ' F f > > n i 7 t.OXP z T t.B.'   ",
"m.G.OXv.P 6.P n K f z t w ' w.6.l.,.~ +.G.t.B.`.4X%XX.f 4 t w : z i w z f ' ^ x   & K t X.3.+.P > w t 4 z   > P a.T =.t.v.6.@   ",
"=./.~.X.m.B.a.[ i : C t i v.`.^ +.S./.t.`.G./.`.<XG.x & C x & t f ^ x x %.n C P K n n i ' K 4 w 4 z i t 4 X.a.a./.t.=X' x x > x ",
"C =XR.w n m.B.t.,.z : x t f.%.z ~ ~.m.R.P.`.B././.~ w > 7 7   7 z l.B.B.l.S.v.w.l.B.[ ^ f 4 f [ F > @ > n }.t.R.9XT ~ K f t F P ",
"z /.6.: F P [ T t n F ~ t F K ' i ,.B.R.P./.~.9Xm.f 7 P i n P 3.v.m.%.C F x w z ^ B.,.m.S.+.F F w 4 4 : B.X.t a..X^ ' f 4 i ^ P ",
"F B.x [ =.n i t w z t P F [ n i n v.P.R.%X`.9XOX+.+.[ z 7 F 3.3.X.i @ i 4 > w n [ OXS.[ X.f.f.=.t   > x l.i 7 6..Xm.,.X.& P 3.l.",
"x P.K OXt.> 4 t w w z ' z w 7 ^ v.G.~.f.P..XrXw.K 3.=.t t 4 i P m.a.=.%.=.n K a.a.v.R.%X%.X.[ ' f w 4 i B.& z B.m.^ t.3.K [ 6.S.",
"4 v.B.%X=.n F   n 7 @ ^ i K x v..Xl.' w.t.<X`.^ ~ F [ T 7 P z : i n ~ =.6.a.t.w.w.%.^ 3.7 > & 7 : 4 w f w.K w X..XB.<Xa.[ P +.=.",
"B.R.m.`.}.G..XF > z n n i ^ =.3.t.a.T x 6..X=.f z w t w.a.a.C   t w 4 @ 4 w T F C f w n t t 7 n i z w : 6.[ f ^ P.<XB.%.4 ~ z i ",
"`.K f > z f ^ C x i 7 7 C R.=.F w.P ~ P %.^ X.^   4 C m.%X/.T > z 4 C z & w i 7 z x t P ,.x z X.T f : f 6.l.,.,.R.}.3.l.^ =.,.^ ",
"f & 4 i t & :   : x C F m.=.> 6.=.^ 3.^ T =.S.S.l.3.C X.' +.%.4 & z ~ T 7 K 4 : n ' 7 i f n K T > w K +.%.i z 6.R.R.3.v.G.m.l.%.",
"i 3.i z i C =.C t x %.a.^ K X.t.a.=.,.X.X.,.%.G.w.C z K @ n 7 > 7 T w.z & z z C ^ P K w.F n f K C x a.f.K & x 6.v.a.w.`./.6.,.=.",
"K <X[ z f n S.X.i F w n [ f.l.T X.6.,.v.6.=.T P.l.i t w 7   n n w t 7 T C :   > i & X.`.m.=.z T F z 6.f.~ ^ T T ,.3.t.f.B.[ S./.",
"z =XX.7 i t /.3.> i t X.P i F l.[ =.^ F S.R.~.P.f.a.X.=.~.K   7 > 4 K [ f > z > K > +.f.,.+.x F F t [ ^ z ~ X.F 4 7 =.l.' P a.a.",
"z 4X~.6.X.x P.=.7 i t @ 7 z P P %.~ [ ' X.l.}.~.^ f.P.+.i 4 w : @ f & w f T ' x P n v.`.+.K ~ 3.S.^ f t f   i F > 4 +.3.X.,.[ z ",
"+.~.P.' ~ i t.[ w X.=.x : x z 7 > n K ~ w.`.%.+.f.a.=.n 4 t : & : ' F w P ~ z P v.[ ' ,.a.B.`.w.t.=.z > @ > +.K t i P ,.F T P T ",
"v.3.m.T f @ : z   t ,.z C x P f 4 4 @ > z X.+.a.' a.l.%.=.w f t t ^ T f P ,.F x G.%.w i 3.6.P z C [ i t i x n C z K : i @ t a.> ",
"6.f.w.^ w.P P K 7 z K x T i   7 w t x 4 4 7 ,.6.K %.P.m.[ i 7 n 7 > z [ %.' K X.G.+.K n C P P C ^ n F P w n P n n ^ i x i T ~ ^ ",
"^ 6.,.^ w.+.w.~ ~ P T ^ =.' T [ [ +.3.w.%.^ a.a.=.a.t.+.[ t.w.6.X.^ w.%.=.w.6.f.<XB.t.3.l.+.,.f.P.6.f.t.' =.X.' 3.,.^ +.' 3.,.t.",
"l.3.t.+.T ^ l.~ [ ~ %.~ ^ ' B.t.t.,.x P P.~.G.%.n t w C z ~ ' +.~ i x z x w @ i 6.x f =.F n w n K ~ K t K 3.P f n C i 7 ^ T C w ",
"f.K n C 7 i C w 7 z P : @ : z T P.m.> i %.m.~.R.i 4 x & C 7 w C i   : ' 7 @ f z T z F   @ w t 7 7 n x : f ^ C z P F w i +.w.x t ",
"+.B.F   K X.i x & C T 7 w C : ' /.3.f n 6.f.+.+.f ^ %.C f t i z w i F X.[ z f F K i t w t : x 7 x & 4 w t > z t.P.T 4 F T P 7 f ",
"`.m.n 4 P =.n i @ n f 7 P %.w x +.f P +.~ a.X.f t K x z t > 7 K F z +.%.~.S.n & > z ~ l.~ 7 T w T 7 @ i K 7 T ~.eXX.: 7 w.C t 4 ",
"R.a.t.' t n w > ~ =.C n v.f.C : : > t f f.3.=.x & i n 7 > z f T f t m.S.+.^ n ~ n f C ~ C P ^   7 T t w P C ,.t./.P.^ x K t @ 7 ",
"X.m.n 4 t F t @ f i ' =.P.a.P x : f   x =.3./.i   7 z ^ F n & F f ~ +.' C w t n t i n w ^ f 4 n 7 f t C +.P G.3.3.t.7 x 7 n n : ",
"a.G.w.P z : 4 z F z K %.~.m.F x @ i z t.+.=XB.^ =.z i f t &   ' f.f.n   t P w @ t x C l.}.R.3.a.X.=.T n f w K ~.m.7 ~ n C a.' 4 ",
"=XS.%.f 4 7 7 x z f t +.OXf.& > 7 [ %.' ' G./.~.a.z > w > z t x a./.,.n f C K x n P =.B.[ z t w F f.+.^ ~ =.m.6.K w n F K T f 7 ",
"+.t 7 z 4 T T C C x t %.OXf.w > 4 i F 4 3.a.~.l.i i ^ n n t t > =.m.a.m.' & w P ~ t.l.' w T C C T X.n i a.%Xv.f @   : C z @ 7 i ",
"w f F C T ' ~ F z P P =.~.l.7 i 4 & F ~ w.=XS.C > z %.n w t f @ x %.R.OX~.^ i P 6.v.w.%.%.+.' > K X.: P ~.eXm.n z C 4 > : w i x ",
"n ^ [ n v.+.' P   z %.t.G.%XF t w f.l.,.6.%XP.n w i i f z : x P K i ' %Xm.~.v.a.P.v.a.`.v.t.F K w.X.w T B.+.6.f > ~   w i x P C ",
"K F X.l.`.a.,.P : w =.m.`.v.4 x C i 7 ~ m.B.R.f > 4   f 7 x C x P t 4 n %.v.}.~.S.t.v.`.a.X.X.K x i > t.l.i 7 F f   > =.' z [ K ",
": ^ [ m.t.f.F > i > T 3.OXv.i 4 ' w 4 z 6.R.t.z n 7 f   @ n : @ t : i ' `.=XG.t.S.v.=.3.w.x ^ T i > w ^ a.w.x ~ ~ t t ' f > i P "
};
