/* XPM */
static char *b45237e8e7a447b1e0f9c54fcaadd0686adcFDD1mCCr3tPf[] = {
/* columns rows colors chars-per-pixel */
"64 64 211 2 ",
"   c #050000",
".  c #0B0302",
"X  c #0D0903",
"o  c #0B0A08",
"O  c #110501",
"+  c #130B05",
"@  c #1C0E05",
"#  c #140E0A",
"$  c #190F0B",
"%  c #14110C",
"&  c #1F160A",
"*  c #1C130D",
"=  c #171412",
"-  c #1C1612",
";  c #1D1A15",
":  c #1E1C1A",
">  c #211306",
",  c #23160C",
"<  c #241A0E",
"1  c #291A0E",
"2  c #231612",
"3  c #241B14",
"4  c #2A1C14",
"5  c #231E1B",
"6  c #2A1D19",
"7  c #311F14",
"8  c #262014",
"9  c #2C2416",
"0  c #24221D",
"q  c #2C231C",
"w  c #2E281B",
"e  c #332416",
"r  c #382215",
"t  c #31251C",
"y  c #332A1E",
"u  c #3A2D1E",
"i  c #3B301E",
"p  c #252422",
"a  c #2B2522",
"s  c #2D2A25",
"d  c #282629",
"f  c #2D2B29",
"g  c #322622",
"h  c #352727",
"j  c #332B24",
"k  c #3A2D24",
"l  c #332E2B",
"z  c #3A2E29",
"x  c #2E302B",
"c  c #363025",
"v  c #3B3126",
"b  c #35322C",
"n  c #3C332C",
"m  c #3F382C",
"M  c #353332",
"N  c #3B3533",
"B  c #363833",
"V  c #3D3A34",
"C  c #3D3B3A",
"Z  c #402E2C",
"A  c #413627",
"S  c #41342C",
"D  c #48352B",
"F  c #43392E",
"G  c #493B2D",
"H  c #423531",
"J  c #483634",
"K  c #443B34",
"L  c #493D34",
"P  c #433D3B",
"I  c #4B3E39",
"U  c #513F3D",
"Y  c #3E413B",
"T  c #4A402F",
"R  c #454035",
"E  c #4B4236",
"W  c #45413C",
"Q  c #4C433C",
"!  c #4E493D",
"~  c #534335",
"^  c #534936",
"/  c #52443C",
"(  c #59473B",
")  c #53493E",
"_  c #5B4A3C",
"`  c #5B503E",
"'  c #453F40",
"]  c #454342",
"[  c #4B4542",
"{  c #454A46",
"}  c #4C4A44",
"|  c #4E4B4A",
" . c #524641",
".. c #594745",
"X. c #544B44",
"o. c #5A4D44",
"O. c #544D4A",
"+. c #5B4D4A",
"@. c #4D514B",
"#. c #565145",
"$. c #5B5246",
"%. c #55524C",
"&. c #5B534C",
"*. c #5E594E",
"=. c #555352",
"-. c #5B5552",
";. c #565C57",
":. c #5D5A54",
">. c #5D5B59",
",. c #614E4C",
"<. c #625446",
"1. c #62554D",
"2. c #63594E",
"3. c #6A594C",
"4. c #625651",
"5. c #695655",
"6. c #645B54",
"7. c #695C54",
"8. c #635D5A",
"9. c #6B5D5A",
"0. c #725E5D",
"q. c #5E625B",
"w. c #6B604E",
"e. c #656156",
"r. c #6C6156",
"t. c #65625C",
"y. c #6B635C",
"u. c #6C685D",
"i. c #756758",
"p. c #72645C",
"a. c #73695E",
"s. c #635F60",
"d. c #656362",
"f. c #6C6662",
"g. c #656963",
"h. c #6C6964",
"j. c #6C6B6A",
"k. c #746561",
"l. c #796664",
"z. c #736B64",
"x. c #7A6C65",
"c. c #746D6A",
"v. c #7B6D6A",
"b. c #6E716A",
"n. c #7B7166",
"m. c #75726C",
"M. c #7B766B",
"N. c #7B736C",
"B. c #747272",
"V. c #7B7673",
"C. c #7D7974",
"Z. c #767779",
"A. c #7D7C7A",
"S. c #816E6D",
"D. c #837767",
"F. c #81736D",
"G. c #83796E",
"H. c #827571",
"J. c #8A7775",
"K. c #847B74",
"L. c #897B76",
"P. c #837D7A",
"I. c #8C7C79",
"U. c #927E7D",
"Y. c #7E837D",
"T. c #878076",
"R. c #8C8177",
"E. c #85827D",
"W. c #8B837C",
"Q. c #91837E",
"!. c #958A7D",
"~. c #848383",
"^. c #8B8581",
"/. c #8D8984",
"(. c #8C8B8A",
"). c #948582",
"_. c #9A8685",
"`. c #938A84",
"'. c #9A8987",
"]. c #928D8A",
"[. c #9B8C89",
"{. c #8F9088",
"}. c #9A9085",
"|. c #93918D",
" X c #9B948C",
".X c #959491",
"XX c #9C9692",
"oX c #9C9995",
"OX c #9D9B9A",
"+X c #A18E8C",
"@X c #A1918F",
"#X c #A2908E",
"$X c #A39591",
"%X c #A99695",
"&X c #A49995",
"*X c #AA9997",
"=X c #A39E99",
"-X c #AC9E9B",
";X c #A3A19C",
":X c #ACA19D",
">X c #B1A19E",
",X c #A2A2A1",
"<X c #AAA7A2",
"1X c #ADACA9",
"2X c #B3A4A1",
"3X c #BBABA8",
"4X c #C6B6B3",
"5X c #C7BEB9",
"6X c #CCBCB9",
"7X c #D3C4C1",
"8X c #D8D1CB",
/* pixels */
"* g S ,.+.k.,.9.v.J +.).3X5X[.7X6X4XQ.7X4X'.-X2X#XL.v.'.l.S._.J.+X+XV.l.f.c.z.m.R.e.M.Y.$.&.Q 8.6.H.l.v.v.K.v.[.5.).S.v.k...5.l.",
"h z h 4.+.+.9.$X2X$X2X[.2X).9.3X>X4X'.*XL.y.).*X>X).J.v.J.U.J.S.[.'.).z.y.4.O.z.Y.%.%.t.6.&.n O. .z.v.`.I.H.I.J.5.k.0.+.0.0.S.S.",
"g g z I &.H.+.+.L.P.I.$X X%XJ.).0.+XU.I.S.,.+.4.l.,.v.x.l.S.k.l.S.9.v.[ L :.Q :.q.%.! Y t.>.V %.K t.c.&XW.H.K.z.k.v.L.z.l.%X_.J.",
"n [ K.9.z [ f.f.O.9.W.=X#X4X%X'.H.'.I.+XH.5.0.J._...9.+.5.l.0.v.4.J ,.J O.z.&.>.} Y x s Y m w V s V X.V.^.`.N.N.z.W.^.^.0._.U._.",
"Q 8.^.K.o. .X.&.k.P.V.5X3X>X%X*X_.U.J.+X5.,.S.0.+.4 ..5.S.l.5.,.U z S 6.m.C.>.*.@.B b x Y w % ; : c } b.].&Xm.z.z.].V.!.l.l.J.+X",
"N H b -.&.P f.XXXX*XW.8X6X_.+X_...,.H.,...J ,.h Z J ,.5.,.,.,.,.,. .O [ y.N.#.x #.q.u.Y ! b x [ :.:.t.N./.;XC.m.W.XXR.XX0.0.U.0.",
"/ 9...+.k.L.'.k.v.z.4.>X*X+Xl.k.l.I 5.h Z J U ,.5.h J J U 9.9.f.4.J + X.&.:.s %.%.W W b @.2.G.&.R z.$.z.G.K.r.!.R.u.4.z.-.9.k.v.",
"g I I ,.9.v.`.6 F.+.+.0.I.l.l.v.....0...5.J Z J ] ..,.5.1.4.+.9.6.8.&.V.u.f.n &.#.W %.! *.*.u.k 3 R *.K.G.M.r.T.R.&.&.4.H.4.O.9.",
"2 h 6 2 4.J  . . .' 9.I.J.' +X_.l.9.U.U I Z / ....k.4.v.p.9.4.c.f.m.^.).t.f.W &.[ b W V *.$.X.; 8 n u.M.6.c.T.K.z.y R u.&.K &.W.",
"2 6 6 g 2 Z H 6 .. .+.9. .,.,.S.J.%XH.U.U U ,.S.U.2XS.l.+.8.9.K.I.^.`.z.u.m.6.6.[ b V b &.! w & y F 6.#.E ! ! Q R ; w ! -.X.f.E.",
"h 6 6 2  .g z H H 5.Q.k.v.5.5...k.5.v.4.I 4.l.+X$X>Xv...g  .4.H.XX).V.4.O.&.} V c 0 m B 6.#.3 q q n R j n m j m c j w X.g j :.K.",
"+...+.[ J h 2 6 H  .+.W.H.5.6 6 . h 4.v.l.v.4.' ..l.f.+.h +.c.V.P.6.&.:.&.6.y.:.:.%.t.t.t.f.! #.K m j 3 b R ! #.Q X.Q c.f.:.&.f.",
"J z O.4.j t 8.6 H J -.o.v.[.v. .N.9.z k.4.o.9.I 9.I.+.g +.-.I.L.y.Q X.-.W &.z.8.z.t.u.:.:.e.:.t.%.Q b w c j W } e.t.! %.6.t.t.m.",
"N z &.4.g 2 $ $ =  .n N.`.+.c.H.+.).v.f.a N L.z 6 [ Q k.m.K z.J.c.9.9.#.X.O.t.} :.*.%.Q *.W V m } W W b % w t.:.f.&.W %.z.E.u.%.",
"3 h K - q a O.H * h V.F.f.k.H.+.Q y.+.j H 8.8.n o.K c.N.I k.k.9.y.v.[ 8.g Q Q 8 %.u.B >.f.V n j [ %.8 V n b V X.K.E.*.%.f.T.6.t.",
"- O 2 $ q N 4.W 3 9.|.6.N.c.6.t.z.-./.z.8.H.k.m.f.O.O.4.4.m.k.8.y.z.W +.X.W f W :.t.Q g.%.} W ; c t.[ W c Y %.{ t.W.E.t.E.t.:.^.",
"q O X , * g ) K 3 V.:Xy.m.z./.z.z.6.z.e.m.oXT.C.&.:.:.t.1.z.o.P I Q X.z.#.4.u.N.6.m 0 ; b n b s b :.g.>.P 0 %.t.t.j.Y.K.T.%.W h.",
"X.N 5 a N N [ V s %.K.z.f.#.C.t.u.V.m.C.W.W.u.X.-.M.C.y.I z.9.+.W N &.N.f.W P b } s 0 - -.g.E.;X{.V.m.&.u.j.^./.E.<XoX^.j.h.*.#.",
"&.} N Q b h n 3 K h X.t.-.} W !./.W.oXoXT.m.f.t.t.f.z.N.4.c.4.[ j - Q f.Q 0 a 5 w # # g.A.;X;X(.B.A.oXg.%.;.{ %.%.j.C Y q.u.;.t.",
"6.z.Q q 3 3 j ; &.K X.&.[ :.h.;XE.E.W.oXE.E.E.C.%.g.t.j.k.6.J 5 * $ Q f.} g ; h s B   V @.oX;X(.A.{..Xt.E.=.s { ;.%.: [ @.b.%.%.",
"j n W &.#.P -.L X.L -.W } &.Y.z.} T.E.<XoXE.C.:.=.P.m.&.5.,.s.O.o.P &.f.O.I C s X ; % R c.1X1X.X/.oXoXV.B.{ M f [ { f b w ;.t.@.",
"h N X.9.O.n %.Q 5 ; } P e.:.%.m.j.z.]./.E.t.W.:.=.=.m.P.k.s.U.v.6.I } 9.C.J V q -   0 s C E.(.m.Y.|.E.d.m.% p C ;.s p x { m Y ! ",
"8 5 Q ) K t 2 2 q z L X.K.R.R.R.T.N.c.z.].g.;XY.A.Z.s.s.s.s.l.A.O.d P P 8.l 0 ' h [ s C s.g.(.(./.~.g.j.>.M f B [ s p p ! &.e.e.",
"4.F 6 6 a R 6.4.L z o.N.R.K.K.R.R.E.E./.c.^.~.Y.(.Z.~.B.' Z.Z.| M N P l s.=.' M : M [ >.j.d.s.=.b..XB.{ f p p f p = : x * 3 0 W ",
"z j 6 / 3 H 4.9.X.K  .p.!.K.F.W.`.R.C.B.E.P.@.~.] j.(.A.l.Z.V.s.-.' ' H.B.s.-.N o $ ' s.s.' C { >.t.] C Y B : : = p : : % K n 3 ",
"F [  .&.o.t.z.6.n t X.I.n.N.N.N.R.E.N.t.P.].OXA.,X.X~.j.s.Z.J.' M | ' -.M ' N O.h d | -.M ' | f d C M d p f p : o : f B X.Q } %.",
"z H &.9.H.k.o.z 2 6 Q z.M.K.N.N.W.:X;X/.E..X|.B.M A.,X(.H.B.^.j.=.s.v.Z.l l ' -.=.d f . p M ' a p ] N a @.C 5 % V =.-.N #.K s K ",
"8 z 7.7.&.K h S X.&.1.4.v.P.K.m.E. X|.C.oXXX8.f.(..X1XOXV.(.OXH.-.B.H.=.d : C 5 | l '   = 5 P [ O.-.P P V d 5 . : f V f X.N.[ n ",
"q n j + O , n X.X.I Q &.y.y.k.z.f.8.O.} P.V.V.<Xj.d.E..X.X(.(.OXZ.' l ' ' ' ' N C N M o   l %.M V d.-.b ] f - 5 P :.:.| j X.W 6.",
"q 6 h 6.H K  .+. .K I o.P.j.h.C.m.:.-.c.P.8.].O.d.s.[ l | P.P.A.J.=.' l ' ' s.I.5.B.' N N M b = : W [ } 8.:.} -.-.c.c.m.c K X.&.",
"H z o.7.I.7.h F ) Q z.L.V.[ 8.OX`.t.V f.P.| W g.B.j.c.V.O.s.V.P.#Xs.' s.' # ' j.-.p o 5 q V P j &.=.6.8.6.E.8.N b f.j.t.#.6.t.:.",
"Q +.H.K.k.W.y.Q I z.[.K.m.^.~.E.~.^.=.8.C.8.O.O.O.6.&.K s.s.=.H.Z.s.N l l h d N | l - 0 l V P 5 a [ h.>.=.:.] W &.>.O.6.6.X.Q -.",
"&.&.z.p.y.x.$.H  .N.&X`.,XA.(.,X].c.t./.c.O.Q :.8.y.6.I ' O.' j.' : = : d ' l.j.l M s.N # $ j q N :.K.8.z.f.-.X.-.g * b Q K 4.m.",
"1.Q 1.9.X.H g P 6.z.W.$XZ..XZ.Z..X~.f.oXE.y.8.z.v.y.O.z N p ..=.' h ' ' N s.s.=.' ' [ ' f. .O.} 7.f.V.y.6.y.-.Q f.X.W X.K 0 j n ",
"L 6 g n t z  .4.y.l.V._.OX.XY.j.j.Z.V.O.W n j s n t.S.9.' N ~.V.' N ' l.s.' ' ' ' ' ' -.V.m.c.6.u.X.L W m.y.n * X.6.&.[     c z.",
" .Q K j z n  .1.6.6.-.j.(.~.B.j.j.M l ] P K } 7.7.7.0.' s.N -.0.' =.' ' ,.# d ' h N ' ' Q v.W.z.m.&.} X.d.6.#.X.h.e.n + X.u.O.V ",
" .X.n g  .z J I / Q L -.Z.j.~.(.g.{ c.-.6.V K X.F t n $.P N ' s.N d M H ' ' M M >.-.[ O.X.4.y.&.4.O.4.*.t.6.4.y.y.L.W.K.n L.:.n ",
"S J L 4.N N O.I H I I $.B.=.=.j.d.C | : b m #.f.&.R Q X.c.B.j.B.s.- N d M ' s.' 5 p >.=.z.) 4.z.K.z.n.6.1.7.z.K.z.[.`.y.s u.& b ",
"-.[ { M M d { { d d ] ' 5 O.y.&.! #.Q m ) :.e.&.y.-.&.+.-.s.|. .d ' M - [ J ' o % Y } b a.}.!.n.$.1.x.6.1.Q K Q t.)  .O.} 0 + M ",
"O.' C l M : d ' M d ] | W h [ -.%.$.Q k r.u.7.&.&.' z V [ z =.8.[ 6 p N -.j.=.' b { j.@.< R F E $.6.2.F X.&.1.4.4.K o.c.m.O.h N ",
"V f : p f : p B C B B C C { P.z.m E Y < 9 i ^ b.V.p.} O.H f l O.P 0 = = 0 V x C % % s :   a.}.!.n.2.y.a.&.9.4.4.9.9.4.H.P.y.K M ",
"M C C B : d d f B Y M d 0 ' V.X.c $.) c T Y m ^ ) 0   O 6 a a J ' ,.l - W b | [ p s : B F n.r.&.G.R.7.n )  .H N  .c.O.+.B.].V 6.",
"| } { s : d f p x Y Y B P -.z.&.m 8 & ) w & w y &.a a s M h P =.-.k.N P P - b s p ; = s k ) y w X.1.&.) Q n n o.[ -.I 4.].c.XXj.",
"j.:.g.q.x p : x B ! ;.q.8.+.l ,.!.u.F R 9 & m m N.[  .I H n -.,.O. .5 P b 0 0 W %.0 B ; F R c X.a.6.7.z.z.5 [ K.y.+.' c.c.f.P.t.",
"g.q.@.g.Y p x Y @.b.Y.g.y.P.u.n.T.w.^ w v 9 i < X.c n z a g W K [ N q V # + % K ! s x + m $.&.a.u.$.4.7.v.X I H.k.O.I O.} P O.n ",
"q.Y.;.g.Y B Y @.t.{.E.@.y.R.t.u.#.T *.T Y T ^ E z.4. .n -.K z J 9.h 3 g N ; s K Y %.R #.#.a.u.*.$.e.z.X.k.. O.c.6.=. .N M O.s p ",
"q.b.q.g.@.*.g.b.b.u.M.} o.9.#.$.T T T Y T ^ ! ^ r.n. .Q I H L  . .W W K 3 + X Y W c [ @.Q u.6.#.Q m.m.6.O.a 5.s.s.P 6.' % l K M ",
"{ @.g.b.g.Y.E.g.} m %.#.g I 2.r.#.v ^ w.` A 9 Y y.9.L P o.v.+.z 4.7.j 3 g + + E %.#.%.%.m #.m.Q X.W 6.%.=.4.P a :  .[ P W P 6.l ",
";.Y ;.@.q.M.!.q.) R *.n.X.F $.6.a.` $.i.i.w.e 9 E $.&.)  .p.k.4.4.z.z.u.q     & q b m R #.e.#.e.#.f.} K N -.O.W &.=.| j.| f 6.l ",
"Y.g.Y.M.W X.6.E w.2.) 1.l.&.i.r.w.<.w.!.T.M.^ i i v / c 1.2.7.2.X.&.o.h 9.* X < R *.Y c [ W #.} :.} [ V l W W ] O.a h s.J   l 5 ",
"V.q.! q.4.X.<.J u.i.G e 7.$.o.F v <.` i.i.<.^ ` E t 4 > t 5.Q , L p.7.7.Q c #.&.Q R V X.} w ; s &.%.P 0 M [ M O.N s.s.~.-.l b l ",
"h.;.[ u.N.7.<.L i.7.G r 2.p.o.S i <.T e A i i ^ 3.1.+.S t o.U 4 t L 2.a.Q t g F F K n c m { R >.W -.} :.O.%.=.=.M O.-.| [ l s 5 ",
">.[ -.+.o.K Z u ( ( _ r L S.L.3.L ^ ` G u e A G o.n.x.1.L S ( 9.7.p.p.$.6.) L Q m m } ) *.%.t.:.E.m.M.q.[ B =.C | M s.d.n a ] N ",
"[ b 8.n z t 7 u U U 3.7   S ) G G G w.^ ^ u _ <./ ) L L t ,.o.L o.o.o.p.u.2.Q X.F j Q F W %.:.u.j.V.t.@.P V Y } -.-.| } l 0 6.-.",
"d g k > u @ G ~ D _ ( D @ @ k S n k L k A S y 7.<.F z S k 2.K.x.Q ) F X.Q o.y < j c v w y *.*.#.z.e.a.*.#.w } x M f f W k.' d O.",
".     > k u ~ D.w.D.<.<.6 , e ) ~ p.D G / o.o.7.( k / 7.E F / $.F 1.) Q ) 2.Q F K L $.$.R #.! 2.C.*.:.#.b b u.Y 0 s C -.P ' h l ",
"    + G y v u 3.3._ U 3.D 1 ( k 3.$./ 3.7.7.7.3.$.H 2.x.a.E 2.) n F #.) r.&.F F L Q X.c $.#.m v u.M.Y.u.W m q.s : } %.q.m l h l ",
"$ 6 y F 1 4 > r u 1 D D D U o.J J 2.L l.3.2.p.7.0.( 3.2.6.n 2.n K 9 ) 2.6.2.&.7.$.2.G.a.F #.*.R #.$.w.! c m q.B 8 { %.t.W :.P N ",
"$ 2 y < > > r 1 r 1 ,.D L 7.3.( ( 7.o.1.$.7.H.0.r.o.3.1.i.) o.F 2./ S E ~ Q / 2.) X.n.a.r.i 9 y e.e.R ; w ; E V B %.%.b.' ' N ' ",
"2 O < < e 1 A 4 1 u S._ ( 7.v.( 7.o.a.3.a.p.D.3.3.p.7.6.n.n.X.6.n.G.k n 2.$.R $.2.$.r.1.#.n R c E #.*.! R X % 0 c q.q.C.s.>.P ' ",
"6 , 1 , u u A t > S o.1.$.1.o.p./ p.3.n.x.S.F.2.o.l.7.7.o.2.$.a.D.`.) E L $.$.2.$.R 2.n.2.E &.F ) u.e.v ! 0 c c - V } E.B.J ' @.",
"t ) F k y A A F 2 z 2 K 7.4 U 1.l.x.1.7.3.D.I.7.G 7.1.i.r.6.n.x.}. Xa.K 2.t.X.$.2.K L X.&.t c w m *.e.6.&.m W W w K l } ' P s.C ",
"2 q H k < v t t 1 * J  .D U A ~ ( 1.E / p.7.F.( / 7./ ~ u.$.n.z.!.F.R.7.2.n.7.x.2.Q F F ) v 9 2 k *.M.z.R b j W { } - l Y ' f d ",
"L 3.n.) _ ) n t 4 4 H Q S <.o.L A / / 3.p.r.6.D A o.o. .2.^ $.2.7.X.$.#.r.z.a.7.7.$.7./ L v v F R r.z.r.&.#.Q %.[ Q z =.{ [ { | "
};
