/* XPM */
static char *_621416031697[] = {
/* columns rows colors chars-per-pixel */
"64 64 222 2 ",
"   c #030202",
".  c #0A0604",
"X  c #0C0A06",
"o  c #0D0C0B",
"O  c #060808",
"+  c #120E0C",
"@  c #140B06",
"#  c #0C110C",
"$  c #14120E",
"%  c #1B120E",
"&  c #0D0E11",
"*  c #120F10",
"=  c #0E1213",
"-  c #0B1419",
";  c #141413",
":  c #1A1613",
">  c #151916",
",  c #1C1916",
"<  c #151619",
"1  c #1A1718",
"2  c #16191A",
"3  c #1C1C1B",
"4  c #221B15",
"5  c #221D1B",
"6  c #271A17",
"7  c #1D211E",
"8  c #17201D",
"9  c #24211E",
"0  c #2B221C",
"q  c #1D1E21",
"w  c #221D21",
"e  c #281F24",
"r  c #1E2123",
"t  c #1C2624",
"y  c #242423",
"u  c #292523",
"i  c #262824",
"p  c #2C2926",
"a  c #252629",
"s  c #262B2A",
"d  c #2C2C2B",
"f  c #292729",
"g  c #312722",
"h  c #322B26",
"j  c #332D2B",
"k  c #3B2D2A",
"l  c #362B28",
"z  c #2D312E",
"x  c #34312E",
"c  c #3B332D",
"v  c #2D2D31",
"b  c #312F30",
"n  c #2E3133",
"m  c #343332",
"M  c #3A3533",
"N  c #353835",
"B  c #3C3936",
"V  c #353639",
"C  c #353A3B",
"Z  c #3C3C3A",
"A  c #3B3738",
"S  c #423731",
"D  c #423A35",
"F  c #4A3C34",
"G  c #433D3B",
"H  c #493E3A",
"J  c #403738",
"K  c #40342C",
"L  c #3D403E",
"P  c #374139",
"I  c #44413E",
"U  c #4B433D",
"Y  c #52453E",
"T  c #5D4B3F",
"R  c #3C3E42",
"E  c #313840",
"W  c #413F41",
"Q  c #483F42",
"!  c #3D4142",
"~  c #444342",
"^  c #4A4542",
"/  c #4C4945",
"(  c #444649",
")  c #4C4B4A",
"_  c #474846",
"`  c #514644",
"'  c #534A44",
"]  c #594D45",
"[  c #544D4A",
"{  c #594E49",
"}  c #4D554E",
"|  c #55514D",
" . c #5B534D",
".. c #5A554B",
"X. c #524E52",
"o. c #594F50",
"O. c #555452",
"+. c #5C5553",
"@. c #5D5A55",
"#. c #5D5B5A",
"$. c #565759",
"%. c #4B5056",
"&. c #62534C",
"*. c #67594D",
"=. c #615652",
"-. c #635B55",
";. c #6A5D56",
":. c #635D5A",
">. c #695E5A",
",. c #69564F",
"<. c #64615D",
"1. c #6C625C",
"2. c #6D6057",
"3. c #73655D",
"4. c #77675B",
"5. c #5E5E60",
"6. c #645F63",
"7. c #656463",
"8. c #6C6562",
"9. c #6D6A65",
"0. c #6C6B6A",
"q. c #686864",
"w. c #726762",
"e. c #736A64",
"r. c #7A6D65",
"t. c #756D6A",
"y. c #7A6E6A",
"u. c #7A6763",
"i. c #7C7166",
"p. c #74716D",
"a. c #7C726C",
"s. c #737271",
"d. c #7C7572",
"f. c #7D7975",
"g. c #7C7C78",
"h. c #806E66",
"j. c #806E6A",
"k. c #83746C",
"l. c #85786F",
"z. c #8C7A6E",
"x. c #877369",
"c. c #827672",
"v. c #8A7672",
"b. c #847A73",
"n. c #8B7D74",
"m. c #857D7A",
"M. c #8C7E79",
"N. c #927E74",
"B. c #927F7B",
"V. c #87827E",
"C. c #8C827C",
"Z. c #868076",
"A. c #948276",
"S. c #93837C",
"D. c #98847D",
"F. c #9A8A7D",
"G. c #8C8581",
"H. c #8E8984",
"J. c #858381",
"K. c #938681",
"L. c #9A8682",
"P. c #958B84",
"I. c #9A8C83",
"U. c #948C89",
"Y. c #9B8E8A",
"T. c #9B9087",
"R. c #9B928C",
"E. c #97918A",
"W. c #9C9592",
"Q. c #9E9A98",
"!. c #A18E8B",
"~. c #A28F87",
"^. c #A3948D",
"/. c #A7968E",
"(. c #A19691",
"). c #A49A94",
"_. c #AA9C95",
"`. c #A59E9A",
"'. c #AA9E99",
"]. c #AA9793",
"[. c #A6A29C",
"{. c #ACA39C",
"}. c #ABA297",
"|. c #B2A49C",
" X c #B2A79D",
".X c #ACA5A2",
"XX c #AEA9A3",
"oX c #ACABA9",
"OX c #B1A6A3",
"+X c #B3AAA4",
"@X c #BAADA4",
"#X c #B4ADA9",
"$X c #BAAEAA",
"%X c #B9A7A2",
"&X c #BBB2AD",
"*X c #B8B1A8",
"=X c #BCB5B2",
"-X c #BEBAB3",
";X c #BEBCBD",
":X c #B2ADB1",
">X c #C1B3A9",
",X c #C1B5B1",
"<X c #C2BBB4",
"1X c #C3BDBA",
"2X c #CBBDBA",
"3X c #CDBEB5",
"4X c #C5ACA5",
"5X c #C6C1BB",
"6X c #CCC3BD",
"7X c #C9C0B6",
"8X c #D4C5BB",
"9X c #CCC5C3",
"0X c #CAC7C4",
"qX c #D4CECB",
"wX c #D3C9C4",
"eX c #D5D1CE",
"rX c #DCD3CD",
"tX c #DCD7D4",
"yX c #E2DCD8",
"uX c #E1D4CE",
"iX c #ECE1DB",
"pX c #F6ECE9",
/* pixels */
"]._.).).j 9 x O.1.[ x R r ~ h 1.R A 5 -.{ r.M.Y ..U G 2 m a w ~ a b +.{ 1.x p Z G b G Z W b [ M v v < n L $ , I Z o Z / @.d   3 ",
"R.wX*Xf.9 A d m j / [ :.D <.$.m & d B +.C.a.S a. .e.c.| X y Q < d V 5 +.p.| / y d O.V e M 2 y G 9.^ ; r Z X e.b.9 ~ p.~ / ' ; 2 ",
"&XiXtX#XB #.m m $.#.| 4._.+.i 2 3 d M 8.`.{ g K.b.' @./ A $ U B : + 5 u s.A w < z } m d y y d ^ 4.U h >.P.R.2.D B _ : [ d.8.y 3 ",
"8.<XoX[ , x 7.p.) < / T.}.{ x 1 d ) M -.=.[ &.D '  .{ [ 5 [ :.[ G d.9.j Z ; s v B B 2 u u u i -.i.4.;.M. X}.f.c ~ d M e.].t.p m ",
"M R.R.R.^ @ D M D [ O.3 O.^ >.3._ 7.x :.` 8.t.+.U &.` m.[ l c.[.R.<X+.. d R y y d ^ ^ ; 5 S [ R.~.}.~.i.Y.&XtX/ $ j | a.$Xa.M V ",
" .&XrX@X^._.@Xr.4.' y O Z V -.v.O.[ J | W.rXyXJ.1.a.Z.-.e.e.].;.D e.P.j 5 j o M e.W.W.5 D <.y.[.I. X+X-.[ `..XM , @.  +.9X+.5 y ",
"V.9.e.| U b.e.a.y.M Z #.d ~ ' D j #.-.A .XtX;X:.-.' @.I u S.1.3.k.Y b.J.m 5 [ {.iXpXqX0.6.| 9 @.z.S.].| X : ;.m.m.e., U {.u * < ",
"x p 9 j t.+.6 a.Z p c.@.c y d Z ' M +.H 6.tX=X/ Z p.$ 5 [ (.e.;.4.&.^ ' h p e.).l.R.&XU., 4 o M x.&.F.d.D | ).rX6X^ U e.t.p V = ",
"5 ) z P G.+.o y / K.*XP.x ~ I x O.$ 0 G 0.=XyX[ [ +._ m Z `.;.z.P y n s 3 m , 1.p 9 Z 0.m   9 <.i.3.+X3.x 1.<.eX+X| : +.e.6 y.=.",
"j I @.x :.+.u f ;.-.4.|.C.' +. ...G H.#X<XeX9X{ U A q.M d 1X| I x m 3 & y 5 a.C.a.x #.z w } I ..T...T.c.0 U % ).(.4 u G.:.. G 0.",
"+.3 9 +.G :.A +  .l.4.~.^.).3.D  .XX9X[.9XW.t.U M M K.@...XXI B o + ; u u j D 8.l.2.G Z A @.k :.S.0 y.{.+XT.c.,X+X>.U.W.N : ; ) ",
"$Xd.M x M d x <.8.@XL.r.rX,Xm.^.$X+XT.<X=Xy.^ A I ' b.Z.K.[.N i e b O.d.<.t.t.Q.F.k . ^ g.P k d.+.  S V.| t.e.[.2X=XG : 9 Z 7 f ",
"=X+X(.) I 9 / V.~ m.1.e.b.1X<X&XW.}.,X&XY.| M [ +.t.l.*X_.-XP d 9.:.+.#.<.-XtXeXS.3.+.-.<.9 :.=.U L B z : $ 1.wXZ./ X , Z i     ",
"+X{.<X2XoX9.-.{ f d S ' 8.#X=X+X].$XT.t.D j 3 [ e.k. .4X@X XY N ^ p k u @.<X;XqX{.R.`.2X^ 0 J.k t.O.Z m #.Z 7  X<.$ : / I X G O.",
"=X9X.X#X0Xa.=.k.7.3 k U .X5X#X+X$X@Xa.j M y f ( y.-.F l.F.P.P.E.s.^ { H b.&XqXtXrX0 a.pXU.+.8.D e.h 3 ! W w j #X3.0 a.f.: + / [ ",
":.>.c.-.B ' u.N.j p l.P.1.>.P.^.<.y.Y.' [ G v / k.H e.A.C.@XA.F D c m.S.&.+X;X:X0., W.9X&Xc.+ / 6.j 3 a d 1 c .Xz.v.|.).d p 7 a ",
"w b :.[ : y 9., G =XT.^.<.O J 1.R.' OXU i ; D b.i.n.*.{ @.{.I A U 3.^ 9 _ <.+X' y I @ c ].K.w y x ~ ~ d u 0 Y D.].K.eXX., d ; n ",
"Q u ;.V.M X I ^ 0.+X_.+.9 1 4 C.[ 1.-.j ( ; B { /.wXl.E.C.#X).6X&X@.I ; ; G .X7X.X8.C.[.{.>.^ M 5 m 3 9 m ' l.|.7XwX*X$.B = > i ",
"7.w.w. ./ x Z | v u c $ d ; ~ {.H -.y.m C m ) / -.S.V.% 3.*XS.4.E.p.@.Z M j a.eX1Xe.7X7Xa.0.7.` y m 9 y ^ m.a.a.a.^.C.'.9X2XY.{ ",
"` L.3.S 9.0.L | V y y ~ p G.U +.t.+.m.'   j , -.+.[ ^ k [ =XZ.F ^ / 3 Z $.d , [ ^.$XwXe.-.@.c +.7.m : A U.[.4 . X , , p j <.t.D ",
"U n.;.{ q.7.m Z V 3 2 1 m ' @.j *.Z.3.I.' [ I ' d ~ * u u Q.+X1.9 d 9 ; i _ O.x S ].U.| 4 I +.^ C a A J j A 9 y z m y a o 1 ) A ",
"4.Z.1.B x y p B i v R R 5 , p ( k S M.y.P.V.P...; a C < O.;X0X-.x p 3 9 ( m G Z h t.M U -.h c.9.y o d d.D   m f ) $.q f o . j t.",
"' 1.a./ A y 5 B D y v O + U m q I u F D : d i i G G Z ~ 3 ! +._ ~ f # ( d   m R : / G 1.t.e.C.c d [ d m y # d O O z > N 8 y 2 L ",
">.8.[ M 3 $.~ | t.b v ; u | [ C ) f.-.` ^ = 3 M D Y.G 3 2 j I +.2 ) C 7.A y q y ; :.W.H { ).a.6 ~ w X y M d q < S e.-.B ; u / p ",
"L _ i : M ..R.-.8.m o d x 2 3 a ' ;.k. .H 0 % e.r.1.S p | k @.U c | B U I 0 S c 9 x 9.k h.|.b.*.5 < y 4 6 { 9 a p Z f n A M 8.H ",
"[ =.8.-.k.S.M.S._.3.n.A.l.' w.+.<.-.C.r.a.T.U.:.h.M.e.W.R.9.d.p.@.#.p.H.a.-.b.b.C.e.2.b.M.P.8.8.8.$.g.<.k.Z. .( 7._ a ~ #._ [ s.",
"1.;.y.u._.P...].3XI.C.3.r.U D c u ~ @.H ^ 8.M d x.T.-./ A k 9 x B x B u p / g.H 2.l.e.c  .p + f [ Z j % c ^.V.d d m d s y y 2 5 ",
"B $ 3 j U i 0 :._ m x ~ m m ; - = A m ; 5 t.3 Z A.i.[ p j x o > d #.) y 5   b M U , 0 : $ h A H u :   9 :.e.H + : + f ) ;   : u ",
"Z x y G $.L d _ y r N ( s R t a f m m h H t.: u k g ^ i ; 3 3 O 3 ( A f y * ~ 1 < q a $ _ e.`.y.u G u +.7.f ; J Q : d 5.~ 2 9 y ",
"a.Q.[ u ^ ~ 5 $.<.' | , $ 2 9 M ( 1 ^ l.'.c.+.x >.[.oX~ O 7 C < o $ ; V d * b   q C   3 Z.C.].3.| p.B ~ m r q +.G y y u m A U I ",
"'.wXY.D u 6 j e.l.;.-.l $ X 0 / ' D c.N.b.&.e.Z K.uX0X( z X.I y X   G s.~ w d a a j * S <.-.e.e.S.z.e.2.s.s $ +.m.m 2 u $ $ +.p.",
"1.}.2X[.U.~ i i I  .P O.) C O 0.H n.S.*.z.b.e.1.K.wX-Xy 5 [ u : : , ^ / y y w 6.3 5 Y.U.S : $ 7 A.4.x.' x o j K.yX@.M f.I l c.H ",
"G .X}.M.A.S., P $.I i #.p.^ 4 &.3.+X..x 1.r.c Z.#XqXm.l % x n # M : 5 u w O.e X.) ^ b j $ u j +.Z d < = V y , m.-XI p ` N.~.o.  ",
"Y.).2XI.Y k.Y M I p d 9 , ..a.a.P.e.' 1._.v.R.*XqX9X:.d ; r 3 o s t 8 s f } } n   o W y $.p.<.U $ 3 y = d   % H m.' w.m.D.k..   ",
"u.#X+X-.~.~.Z.*.y o Z 9 0 E.*X| ;.].+Xb.$X].@X#X0XQ.n O Z n o w f O.x j <.c S U ^ M M y +.I > 3 ; d y q : -.Z.M.%Xm.9X@.x x ; n ",
"S 9X[.4 M Y.R.l.0.j X x 7 H.8.l { {.I. X'.$XR.+X:X) , ; 2 2   : k L.!.!.L.^.I.v.H.R.+.[ d % p @.! <   $ M ,Xl. XuX` [ W d 9 Z I ",
"j #Xd.# P U -.Y y B Z } 9 G I | 0 r.R.}.}.+XoXeXY.g , ~ y m ^ y.F.T.1.c J x 3 d ] ^.u.P.W.1.D D 3 > ; + W.:.6 A.-X| O.d ; f { Q ",
"Z R.x @.<.N 0 9 9 d y ( Z @.B 0 c P.}. X7X+XeX5X>.1.+.j , G p.y.-.0 . 9 , = 8 C &.3X/.*.;.C.C.e.y   # j H.0 % a.-XE.p.-.O ^ j.D.",
"j '.D <Xf.# ; w 3 3 d O.d 5 , | P.). XD.}.-XtXf.U y.9.5 y ; 0 ~ T.C.e.1.3.c I C.S.L.{.2X8.-.@.+.f 3 > u W.. k R.E.{ Z.i.G @.y./.",
"1 I./.7X9.N !   B ,   O.y I j U.-XL.,.x.n.9X&Xo.[ J :._ 3 ~ z o 9 N [ 3.a.N.z.x.c.1.{ t., ; o 2 o : 5 p f.I 5 :.=X~.8Xz.-.I ;.u.",
"^.'.R.#X=X`.=XG = d m m y | 9.p.v.Z.^ x d.<X1.p v 5 e n.N.l.D   9 7 :   ; 9 / G A i 5 M 5 y , m 0 j q o a.*.0 | '.0X(.3.: / k y ",
"$XH p + d d [ Z d a 3 , M [.3.F z.U [ U 1.[ :.|   ; B P.3X@X^ & d ; Z x o 3 y , z m 7 ~ 0.x d :./ d & p a.S.4.e.OX=Xh.I.[ q.t.| ",
"p O ; y 3 o o   o b Z J R.w.@ k.4.{ e.| ` 4.(.W.U.a.A #.+.<.8.; X x ) _ 3 G ; o M O.2 y d m ~ _ = 5 H 1.1.u j a.|. Xy.D.).E.L.1.",
"y s.i n i B 0.M y m 8.J.{ U -.v.n.3.e.;.*.e.1.).x.S j ~   M : ; 3 / f.z o d z N X._ I f.Z M d W C m n.A.U X x a.K.n.k.4X Xk.4.1.",
"W 0X#.d f V W.-.y Z 3 M @.H.K.] -.a.e.P.a.4.Y [.A.g 0 q <   V C 3 y , _ A #   $ u . -.&XU.9.j ) R j x.A.[ O._ ' e.i.v.D.T.../.@X",
"j 9X:., y 0 #Xy.* f w :.U 0 D C.-.e.| H /.|. X}.A.N.:.8.oXG   3 $ ; I @.p ; d $ G % 1.C.e.:.j H Z w -.[ x ) :.J % % 3.L...Y A.Z.",
"j qX+Xd.-.x `.8.3 y y   > j _ ~ >.' @. .-.D.=X.X] M.`.;.u : q o   d X 7 p ) O.m ^ c P.@X>.U { t.).[ f r p   u Z : $ >.y.<.e.-.h ",
";.OX[.+./ u b.&.3 #.0.m o n d 2 $ M I { l.$X1.>.A.n.e.M : 5 & O o $.G 3 ( _ x ^ U.=.&.u.v.^.*Xc.z.9.s - O @ <.~ 7 s ^ e.Z _ ` / ",
"F.k.P.' j   $ p   7 t.j M m ( a ; 2 X ; d @.;.z.&.B.S.3.8.2 d 7 y X./ d U t.I x ].<.4 u p.s./ j M $.y 0 u m V V f ( & a   0 V.+ ",
"h.A.l.' a.^ ^ I , d I x ) u   : , 9 x ; , , r.x.U 3._.I.&.u 3 c , + j -.1...I -.).>.H M D ^ U M [ M G I , M ~ M x O.y m y / ' [ ",
"T h.r.' b.>.c.' [ ^ / | 9.+.'  .-.<.p.f.q.{ n.Z.e.Z.n.;.=.m.c.y.@.[ f.<.9.a.a.C.8X(.b.a.U.<.e.C.}.d.C.m.| e.>.+.t.t.| :.| y.e.m.",
"S.i.b.2./ ..K.[ @.[ <.) [ ..R.n.l.e.l U _. X].1.x 9 6 S l [ +.3.) y x k x 6 . u d.k g 8.D c 5 x G [ H 9 U t.^ u c B y , | ' D 4 ",
"C.U M B , u M 3 3 v _ o   X x ' }.P.% 0 1.~. X{.y ; x X A > 3 Z a   o +., . p v ^ d G   . 3 9 1 3 M V o f O.G h ^ Z 3 y <.d.m y ",
"2.W.D   W #.y m o Z _ , 7 Z + +. Xe.f B h.S.>.<.f | 7.Z s t y d 3 a Z :.@.x f Z ! y y , r $ n 3 b O ; q w + j b.`.) < G ^ ^ 3 s ",
"*XP.c : / q.m y   V u : ^ q.3 M <.p _ <.] n.;.f 9 ~ x z r & < W Z j <.1.+XW.N O $ x [ H.[ 3 _ 7 ) 3   y ~ , ' +XtX:.+ 3 f.S q < ",
"}.A.b...9 m 3 ; / 9.M M U.C.B X + = r f S.h.8.v O 9 x 3 = b h ` p 0 P.).;.{ x [ x i Z [ B ~ |   : _ y 3 ~ B 4.l.+X`.[ x H 0   2 ",
"*.I.c ; y R a O f u O.u.'.N.^ m o s   m 8.r.#Xu   4 d ) ! m o Z h | :.+.A 5 9 m r y V 7 O.p : x , p 7 B 7.~ ].h.h.b.4 x , m M o ",
"A.).b.U d o ; d ! j W 3.{.Y.B b   i d m.;.6XW.| 8.j f p 9 O   O.A.C.S   9 _ q   9 m M H.=X{.p.V.#.w._ M u 0 F  XR.4 / B N J.$.; ",
"6XW.<.i ; 3 2 x z f 9 ;.2XS.X ; , #.7.@. ./.@XXXm.j $ 3 # d y j v. Xr.c p V ! n c ^ 9.R.@.j 0 , Z K.5.| [ 0.Y.a.G 3 M L ( _ p , ",
"7.9 , j : ) ' Z Z m 7 3.=XA.3 o : p D % r.n.OXH.u y O.m V y r * 4.R.C.R.@.o 3 ) ] b.S.&.4 ' B B ` -.M 0 m.7XF.g     o A d   , y ",
"3 i G B /  .[ B d ^ I w. XS.: s : . Z ' i.8X/.B ; d 8.V 7 r f   h q..X<X+X| 0 U x.F.x.3.1.<.+.; H >.& ^  XuXI.m n Z ; ; # 3 y x ",
"N | +.S P.>.=.^   j 7.n.}.3XZ r 5 V.P.e.i.3X[.M 1 y y a v o m ( ~ y $.1XY. XF.N.].I.A.@XP.m.G Z f.>.q ` ~.;.k.i = )   , f M ~ Z ",
"R G -.S.@XM.e.I o 4 0.~.#XI.$ n Z u , ' I.^.{.p ; >   a 3 V A V ( r , c <.I.>X|./.z.F.@XZ.;.:.Q j u = m.L.0 4 ! a   $ 0.+.d #.Z ",
"+ | =.~.v.C.H + y : _ h.<XI.y > +.9 : l a.}.b.p m > d     V &   9 # 9 +.#X6X_.B.^.F.4.h.l.c [ ^ y * q [ n.l.k %./ 9 9 | p < y ( "
};
