/* XPM */
static char *_621416053604[] = {
/* columns rows colors chars-per-pixel */
"64 64 126 2 ",
"   c #010101",
".  c #0A0503",
"X  c #0B0906",
"o  c #0D0A09",
"O  c #120401",
"+  c #190600",
"@  c #140904",
"#  c #1B0B03",
"$  c #120E0B",
"%  c #180F0A",
"&  c #1A1007",
"*  c #15110E",
"=  c #1A120E",
"-  c #171310",
";  c #1A1512",
":  c #1E1915",
">  c #1F1B18",
",  c #271500",
"<  c #22150C",
"1  c #291B0E",
"2  c #201612",
"3  c #221A16",
"4  c #2A1E16",
"5  c #241D19",
"6  c #291E19",
"7  c #2E2014",
"8  c #26211D",
"9  c #2A221D",
"0  c #31271D",
"q  c #32291F",
"w  c #272521",
"e  c #2D2521",
"r  c #2F2823",
"t  c #302722",
"y  c #322A25",
"u  c #352E29",
"i  c #382F2A",
"p  c #3C3023",
"a  c #36302B",
"s  c #3A332D",
"d  c #3D3631",
"f  c #3F3933",
"g  c #403731",
"h  c #433B35",
"j  c #483F37",
"k  c #463E39",
"l  c #483F39",
"z  c #47413B",
"x  c #4A433D",
"c  c #4E483F",
"v  c #4E4741",
"b  c #4F4943",
"n  c #504741",
"m  c #534B45",
"M  c #554F49",
"N  c #584F49",
"B  c #575047",
"V  c #57514A",
"C  c #5B544D",
"Z  c #5D5750",
"A  c #5E5851",
"S  c #5F5B58",
"D  c #635B54",
"F  c #655F58",
"G  c #666057",
"H  c #666059",
"J  c #6B645C",
"K  c #676563",
"L  c #6C6660",
"P  c #6F6961",
"I  c #736C64",
"U  c #736F69",
"Y  c #757067",
"T  c #767169",
"R  c #7A746C",
"E  c #7E786F",
"W  c #7B7770",
"Q  c #7E7971",
"!  c #827D74",
"~  c #837F79",
"^  c #858077",
"/  c #868179",
"(  c #8A857D",
")  c #8D887F",
"_  c #8B8780",
"`  c #8E8A82",
"'  c #928D84",
"]  c #928F89",
"[  c #959087",
"{  c #96928A",
"}  c #99958D",
"|  c #9C988F",
" . c #9B9690",
".. c #9E9A92",
"X. c #A19D95",
"o. c #A39F98",
"O. c #A3A097",
"+. c #A5A29A",
"@. c #AAA69E",
"#. c #ABA89F",
"$. c #ACA7A0",
"%. c #AEAAA3",
"&. c #B1ADA6",
"*. c #B2AFA9",
"=. c #B2B0A7",
"-. c #B5B2AB",
";. c #B8B5AE",
":. c #B7B5B0",
">. c #B9B6B1",
",. c #BDBAB4",
"<. c #C0BDB7",
"1. c #C1BEB8",
"2. c #C5C2BC",
"3. c #C8C5BF",
"4. c #C7C5C0",
"5. c #C9C6C1",
"6. c #CCCAC5",
"7. c #CFCDC8",
"8. c #D1CFC9",
"9. c #D3D1CD",
"0. c #D6D5D1",
"q. c #D8D7D2",
"w. c #DBD9D5",
"e. c #DFDEDA",
"r. c #E2E1DD",
"t. c #E6E5E0",
/* pixels */
"' +.] ( { 8     5 D J N .   s z H x J D M u       ; 2 =   / w. .T } L D : y D j D C s 6 m F D J R { o.<.! ( *.    ; ; 5 d u : $ ",
"+.6.;.J D y s g y z N Y I P J z 3 = J D 8 y 5   e m d 5   I 5.' U ( Q Z y w d h h 3 o $ - O   y ! } { +.D Y X.P     $ d l 9 t ; ",
"/ ..x m D Y g H 9 y m g I J x s     R H 6 y u J ~ F j h h 0 L V % #     x N t - 3 y h f 3 $ - ( ' ..} _ f 5 s N B d y e i e ; 5 ",
"I ` D m ' -.-.6.>.&.X.X.^ C z D u ; ] [   X   F J m u x C ! G n C +.T _ V O o   w s J I x e L ' >.X.( C b 5 3 t h j j j r w 3 X ",
"G ! R 4 I J ) 2.8.4.6.e.' R A }  .P X. .        . t i s N ( T m ( 7.9.8.>.( 0 2 8 e t j m j X.X.X.( T I V g s 8 3 - > ; > $   - ",
"D Y { +.&.! ! ~ _ } O.%.T S M h V z  .[ ~ ( ! ( ..h ;   x 8 5 z 5 ` &.5.r.5.8.} u   r V x ' X.' X.] D ;.N : r $ : r 5 e 3 i h ; ",
"y ' +.) ;.2.*.T V I V , :.6.2.$.V 7 ,...} &.2.2.7.2.` j N 4 s       +.5.o.^ -.9.+.L   ; C >.' N { &.<.w.F 2 o $ X 5 y i ; o i y ",
"| ~ P ! R ! ' X...( { { ..2.5.2.%.} %.X.J ` O.#.6.,.6.#.} [ 3.+.Q ' [ @.9.r.| [ 3.]   t C &.&.+.{ ' *.6.N ;   o : - o $ w i ; o ",
"J s y 3 5 V D D C C H J P %.%.,.@.;.-.&.-.,.<.2.3.&.2.<.-.2.q.6.,.+.$.E ..9.^ m ) ! @ 5 P ' } ' ) A Y ^ I ( D r $ ; -   5 i - : ",
"J T [ B V N B y 8 x j s h 1 s d ( I D ' @.O.%.&.O.) ! ! @.3.| <.-.,.o.T C   5 h C H Z I ' ~ Z ( ! B ( I x P I 6 X     . r a - z ",
"d R ' A ( ~ V x m N m ( ..' D f P U C I ^ G Y C ! J Y F X.' +.| 6.0.,.Z t 5 d N z N H D D J m ! J I ' ~ 3 5 y 8 - m F L m h m m ",
"j / I ( ' m e U J m N ~ ....-.;.&.( h P D V m Y R s N ( ! ~ | F H T V h C s 8 3 2 . N E s h N D I G E &.I F 2 : d v v m s s e j ",
"  ( j W v C H [ / H I ! ` ] T ! X.v s P h g 5 } F v h k B R D J P C h s i 3 - *   3 / X.J s k m F D ' I } D D   8 g k s s d i x ",
"  ..6 u R P r O       O 3 7 4 j ! ! I x y y e   7 y N J x I Z ! F g y 5 8 5 * X   H [ O.T 0 X.E B C ! A +.' ~ I L % r g y e 5 N ",
"  d s 5 y T L D m y z H ~ _ ] ' I V 8 D T ' J b u s x I R Z g y   t s s 5 - *   x ( ..O.@.-.| I m F P ! Q D D D Z k 3 - w 5 u 5 ",
"O = J k   O $ .     . 8 i i x j g u u . C U ] [ { ` I H ( } c D H H H i       W X.} | | { ( ( ( c i ! | I y m C m U 8 5 t   s t ",
"P J P Z t $ .     o .       * > w h h 8 8 @ s j E ( F m B >.6.( ( (  ._ ~ I | ' ! D C a j D E I ) J ' | I ;   9 D ~ z . r w   . ",
"4.~ V g t - o o 5 : o   o o o - i s : 3 $ * 3 = E F T H I ( { F A R _ ;.9.<.! T P m / A C T D F ~ ! m } _ =   - s Z J j 5 t     ",
",.L e d 8 - e r y 8 : * - > o o 3 ; . $   - * . h i x F L X.! P C J M   Q ..C H F y J J I W ( ' ( | Y &.+.g     @ e C m u D T M ",
"K L e 6 - o e u u e 5 > 8 > - - * - e $ : $ o $   * y s T { ( J h B J v z k C k . u k T J ) P ` ) ' #.7.' C h ; s e s x e d V v ",
"J ..Q   : e 8 e - : * : 5 $ . ; : 3 I E m     * s x 9 8 I %.^ N @ 5 d I I C s N n I D N Z V j x ( P Y ) R | H $ 5 5 d u r 5 ; = ",
"J +.@.h - e 9 y 8   .   o ; y 5 : ; V E W C V 5 : r b d I #.m z M C = 8 c ~ ) ! 6 h 3 a m h m a m { I ( X.;.}     - y 5 8 8 t 8 ",
"H P | ^ 9 s s V n         5 h 8 k s h e H ` Q s o @ V h V %.C m C 5 s - o 3 y 2 8 . 3 F m r x h m ^ E P @.X.2.( z u m j d t ; s ",
"z 8 N ! A 8   a m P U m z a w : $ e J a   k J J H T J N N +.( G 8 u - 3 5 $   r 5 - r N u s k h 9 s ! G ( +.5.9.H = 3 : t y m x ",
"s :   = T } T O k D H J x u u y h U E T J e s H ! ' E U k X.H D 6     v 8 x m $     e A x g z g m R ( I ! ' | ;.'   $ ; y d v d ",
"  3 3 -   ! @.k   8 s t 9 9 j I I C t i 2 - - = 2 M ` Q j } I D ( U C N m d d . : e 3 ! ` } I = y D C C J Z m R R       3 ; o h ",
"  . o * - r ( ) x   % 5 5 : e z z 5 5 6 5 : - - $ 5 u h x @.I I T Y J e r y 3 $ - 3 F ( } [ ^ I s 3 C m j P J ( U     . $ o r - ",
": e s 8 - y   W X.Y V @   o * 9 6 9 s 8 8 5 ; h m C 9 ; H ( D y 9   = -   X > 3 3 = ;   T } ' U b V J h s I G =.&./ . d J n k w ",
"a 5 8 8 o > : 5 H <.$. .M   o - j N j y u d u y u x D d T $.Z j 3     e -     .   g . : x V j 2 3 / ~ s 9 b Y ' X.3.A e C d . . ",
"9 * * . .   e 8 6 T =.=...      e z f j x m h u 5 - 5 x J *.m ! J V   . ; 8 J W J i e 3 8   M / I ' E s h h ) J 2.,.+.  e e   D ",
"8 * : : - > - a a + T =.2.&.R r     h D x y - o .     * : V $ f W ! n 5 : w j D ( d = $   I #.X.^ @.T Z x D ! +.<.&.( D s x Q ..",
"8 3 9 8 5 : $ a D   3 J O.-.,.+.J D   ; :   .             U V   < U ~ ( Z g e 5 c I h . E @.' ( } @.;.%.I t x [ | X.@.s m + ~ ! ",
"- - 3 5 5 : : o s J h e Y E @.2.2.&.%.N J I 3 C x e 5 . 8 x B ,.%.s h R H Q   - 5 C  .( *.<.*.@.E R ( ! / (   U Y F | { D ! O.,.",
"    o $ - e : o = m C x @ s P O.#.%.#.} / q . = 8 w 5   J T / 9.%.| H D O &.U   . ` -.+.@.{ R J g d i @ q -./ J ~ F ( X.#.( { ) ",
"v d s j b H w   . $ s P m 8 5 Y X.O.,.2.2.-.,.2.5.5.2./ +.O.O.3.+.{ $.X. .-.~ I M ) [ ( I z g j % % C Z e J ( W ~ Y Y I P { ( J ",
"b u : w y . o - $ $ $ 2 c Z f y ) H I ..&.,.2.5.1.3.0.,.Q / $.<.! V D ! ..+.+.J ' ! V d N g D x L J D ( f C ( ( s R I N A m &.c ",
"- o o - - o   - o o X o a x N + E D A c m T } @.} ..=.&.} J -.%.J y u r v D R D H j % r H   g M ; . u j y x F X.H q ' A 7 ( =.T ",
"d u > o X o o   .   X . - r 9 F +.J A V a s v D / } X.=.O.( [ O.J k J H S h F m f z k u     . .   $ $ z F V H ( ( 8 m { | &.&.5.",
"u -     $ - * * o         . . R X.n t c j I P F C m R ` / Y N ! $.X.' o.%.} D v b b ) ( F   @   h h O x E N g N ( x i H T D C +.",
"s h M d - - - o o 8 f h X   * Q W 9 ! R T m z F v x J I h V T H ..>.+.%.%.4.1.W R I Y ` ] J F B F H 8   $ c ; i D R E m z Y h R ",
"w u I v @ - - : > y Z I u   u ! h   v H T ( m . ! E D F W J 2 J _ I H [ } ` 2...< R ! T F J Y ~ C j 8 - o 3 u y j j L N k H v C ",
"  w ' 5     * 5 > o : 3 .   C [ + e 8 O . j Y n z m s 0 y M M J v T ~ E / F o.,.v   s J '   g 9 2 r y ; X   ; l C h d m a x ( j ",
"  J _ ; z y   X o o o - d $ D T   o X * o 2 y P ( +.~ H R M r s I k E I T  .;./ ( v 5 9 m J %   z k o -   -   D x m j e s 8 Q D ",
"v { ! r d D 8       - > - h x n 9 $ : r * o . 4 C T J J j s 8 x z m t C } ..,.W I O.-.{ } <...! F > o ; r d 3 a i ; j D 6 F R ! ",
"J ( F i M r s k 5   : > 2 - k L Q x . : w ; ; *   . @ 5   ! L R Q d v m v { ' X.-.%.*.>.;.-.} T x .   o $ - o ; m b m -.' U d v ",
"~ ' D s M 5   o : o $ - o   5 u M J M 8 t @ . o   $ : t 6 C E J J J m D b m ! ` ! R X.<.&.x & 9 V .           X     / &.+.R x $ ",
"_ P z $ r e e e X   o $ - o * X $ t s * > Z b 8 u w u * -   U y I M ( / C V O.H y k C x ( T % h ; . e z y T F     Q ! j y H M u ",
"Q C U a o - . $ > $ $ $ $ 5 t : - 3 e r - d b k s k s       x V N m ~ ' {  .-...E x d 9 m J e s b i V v x v J   ! ! D Z x & m z ",
"! D Q 3 .       f u : * o o : 8 = 3 y d Z o     $ u k m 9 x m j J F o.! ^ v ..! x 5 2 s v C e e m C x 5 3 u / ' V C x 5 g D H h ",
"! F H .           * - o - o $ > : 5 : D E D H h $   f [ } } } I M ! +.C u t j t M W I I I ! Z x h v r y x F I Z I j x h s D R V ",
"-.| c D C 3 5     8 5 o o - $ o - e u J f 3 . x h     v ( ( W W _ R ! v s 5 5 F T _ P [ E ~ M   $ o - 5 b F E * e e F m V ` J x ",
"+.X.h D L 2 x B y 8 -     o $ - - : 8 h s $ y 8   X X d m s 2 D ` ! R @ h k C Z d ; s h 8 5 h . .   o     e j . .   h C 9 ( ` T ",
"_ D e C H     ; s n v . X   o > e e g C C e u $       d u 3 : l ~ ! Z ) d F z j k 8   $ y k m C b b s F F j :   . C v i 8 H I E ",
"D m ; 8 D A K ! b * -       $ > 8 8 e g Y J     o r * r e : r I ~ ~ N Y C d ; 5 8 5 5 3 > w * w w M J Z I u ; N d y l i 3 H W 6 ",
"6 y   $ J | 5.q.! 9 k ( z   o   : y u t t N v 6 s C I 6 D r d R ! ! T ! b e *     h h e - o - X t g 3 h h 5   * o 5 6 d v v I D ",
"I ~ m   ; n 0 { A   y s @     > .   y y s z F ^ / I ' T R d h L P I T ) F /   : $ X o $ - $ o   s y $ e i m . - d . 6 u ! H < 3 ",
"1.-.;.} 9   . ( 6.>.>.=.` s a D C x 8 v P h x D I T ! U y 8 C D c C j ! c (   9 i $ y *   o . : u 5 y s r . $ 3 f ; o w x F m r ",
"3.q.r.w.+..   ` ..5.q.q.e.3...W       u Z 3 : % 2 m 5 h q C Z ! ` ( ! ! g ! D x T Z       . - : 5 r : 2 y 5 5 o - y i     5 B H ",
">.&.&.2.5. .H N < I 5.5.-.7.6.3.W v     *         - . . m D R R } X.! ( u s n x I ! r ; >   X o : i w - y w $   o   X       @ 8 ",
"9.8.6.7.9.q.| p 4   ] %.} o.! -.1.=.` R O   @             @ I ! [ [ { P u s r @ e v J n V m . o - : k 5 ; g I t e     s f m U j ",
"T ( ..-.9.w.r.r.w.` U O.X.{ x J { &.&.=...] $.` C t   = . = F ! E { ( I n M m D D d s 5 i C h 5 - * u 8 . s J e u x s d J I I k ",
"< < + L ( X.1.0.,.3.6.,.[ =.} ` ]  .I ;.9.q.7.t.9.&.{ #   Z ~ ( ' | I I m P ! ` Q m u d i 8 J D         $ u s u o : - $ 8 . m 5 ",
"_ C M h O = 8 W ` ' ` X.X.-.,.5.7.9.9.;.@.w.1.4.4.0.7.2.' P ! ! ! ' T J Z m J m x j y i x 9 u y .   ( X.b   . - - $ e a o . y h ",
"u e 0 4 # 8 x V C A ! T G T ! ` Q { &.5.3.0.7.3.,.3.,.3.&.T Y ~ ! [ ` D N k D 6 y s y e g 8 $ $ o x ( [ X.w       ; : -     k z "
};
