/* XPM */
static char *_621416041518[] = {
/* columns rows colors chars-per-pixel */
"64 64 181 2 ",
"   c #030100",
".  c #0A0502",
"X  c #070803",
"o  c #0C0904",
"O  c #060608",
"+  c #0B0709",
"@  c #0E0C09",
"#  c #100604",
"$  c #120C05",
"%  c #120D0A",
"&  c #0F100A",
"*  c #131106",
"=  c #1A1407",
"-  c #15120D",
";  c #19140D",
":  c #1C190E",
">  c #161411",
",  c #1B1512",
"<  c #1D1A14",
"1  c #1E1B19",
"2  c #1C161A",
"3  c #221C15",
"4  c #231D1A",
"5  c #281F18",
"6  c #232116",
"7  c #25221C",
"8  c #2A241D",
"9  c #2B291D",
"0  c #30271E",
"q  c #241F23",
"w  c #252421",
"e  c #2B2622",
"r  c #2D2A23",
"t  c #2F2C2A",
"y  c #302623",
"u  c #322C25",
"i  c #332D29",
"p  c #382E2C",
"a  c #333126",
"s  c #383127",
"d  c #35322B",
"f  c #3A342D",
"g  c #3B392E",
"h  c #382F30",
"j  c #373531",
"k  c #3B3632",
"l  c #3D3A32",
"z  c #3D3B38",
"x  c #423C2E",
"c  c #423C34",
"v  c #483F36",
"b  c #433E39",
"n  c #483F39",
"m  c #434236",
"M  c #494237",
"N  c #45433B",
"B  c #4A443C",
"V  c #47493B",
"C  c #4B4A3E",
"Z  c #514B3F",
"A  c #464541",
"S  c #4C4641",
"D  c #4D4B42",
"F  c #4E4D48",
"G  c #524D44",
"H  c #534E49",
"J  c #4F5146",
"K  c #525246",
"L  c #595147",
"P  c #55534A",
"I  c #5A554C",
"U  c #57584B",
"Y  c #5B5B4E",
"T  c #5A5651",
"R  c #5D5C52",
"E  c #5E5D58",
"W  c #625D54",
"Q  c #645F59",
"!  c #685F58",
"~  c #5E6053",
"^  c #636255",
"/  c #6A6957",
"(  c #65645A",
")  c #69655C",
"_  c #66695B",
"`  c #6B6A5D",
"'  c #71725F",
"]  c #676765",
"[  c #6C6661",
"{  c #676860",
"}  c #6D6C62",
"|  c #6D6E69",
" . c #726D65",
".. c #746E69",
"X. c #6E7164",
"o. c #6F756B",
"O. c #727265",
"+. c #757962",
"@. c #74746A",
"#. c #79766B",
"$. c #76796B",
"%. c #7A7A6D",
"&. c #777672",
"*. c #7C7771",
"=. c #7D7D71",
"-. c #7B7D7C",
";. c #817D73",
":. c #7D806F",
">. c #7E8173",
",. c #7F8579",
"<. c #828375",
"1. c #858976",
"2. c #84857A",
"3. c #89867B",
"4. c #86897B",
"5. c #8A8B7E",
"6. c #8D907F",
"7. c #8A8582",
"8. c #878883",
"9. c #8C8C82",
"0. c #908D84",
"q. c #8E9183",
"w. c #8F9089",
"e. c #919285",
"r. c #95958A",
"t. c #98958E",
"y. c #969A8C",
"u. c #999B8D",
"i. c #959690",
"p. c #9C9D92",
"a. c #A19E95",
"s. c #9EA193",
"d. c #9EA49A",
"f. c #A1A396",
"g. c #A4A59A",
"h. c #A9A69F",
"j. c #A7A99C",
"k. c #A9AB9E",
"l. c #A5A6A0",
"z. c #A8A7A2",
"x. c #ADADA2",
"c. c #AEADA9",
"v. c #B1ADA3",
"b. c #ADB1A5",
"n. c #AEB2AA",
"m. c #B2B3A6",
"M. c #B3B5AA",
"N. c #B8B6AD",
"B. c #B5B9AB",
"V. c #B9BAAE",
"C. c #B6B5B0",
"Z. c #BAB7B1",
"A. c #BCBDB2",
"S. c #BDBDB9",
"D. c #C1BDB5",
"F. c #C0BFBA",
"G. c #BCC0B3",
"H. c #BFC0B8",
"J. c #C1C3B7",
"K. c #C4C4BB",
"L. c #C6C9BC",
"P. c #C9C9BE",
"I. c #C6C5C0",
"U. c #CAC7C0",
"Y. c #C6C8C1",
"T. c #CBCBC2",
"R. c #CECEC9",
"E. c #D1CEC7",
"W. c #D1CEC9",
"Q. c #CED1C5",
"!. c #D1D1C5",
"~. c #D4D4CB",
"^. c #D7D9CC",
"/. c #D8D8CE",
"(. c #D6D4D0",
"). c #DAD7D0",
"_. c #D7D8D2",
"`. c #DDDDD4",
"'. c #DFDED9",
"]. c #DFE1D9",
"[. c #E2E3DB",
/* pixels */
"d 3.: ;.R.S.I.A.] r R 5.k.k.>.<.>.5.>./ C     e d f f ; F A   & 4 e y d >   . i B ( ( O.^ V.Y.| . .     V d } ] u.a ~ / ` <.j.q.",
"e W * <.R.c.(.A.0.r K W a.a.X.R P O.q.4.y.} w i B % p . i k O > e . % 4 i @ < < 3  .f.u.O.` =.} ; b t.e.>.=.X.d <.q.%.>.e.f.P.f.",
"8 I $ p.~.n.].n.B   - 9 g K ^ =.#.n ( ^ 2.9.9.#.P   4 o 7 d % 7 4 4 > 4 u . ,   J u.x.2.9 t K ..[ d 7 l X.u.e.s X.g.y.+._ C m.y.",
"5 x / N.Y.S.[.p.  - 9 R ^ E   7 d $ d d u * e D j   . - e c % 3 e > . e t > - > ,.2.l   1 k c R M 3 a <.4.Y G 3 >.9.d.7 C C ` 4.",
"= . 7.).(.P.g.7 ; ) W )  .P @   . p H L i B   % < @ . > 8 T 3 , 4 >   o % - X &.U r < < 2 4 y 8   u } Z e.1.U 6 >.M.m.O.q./ ~ y.",
"3 3 p.).).u..   G f.E   > 4     % e 4 q [ d   > > > @ % . T e 4 < <   < k e &.p.e i 7 t % > ; % % #.} U G 5.G Y $.J.>./ m.@.a 7 ",
"v 3 K.'.t.`   . e K.(   F 1   O @ e . z 1   % > > @ . .   u 2 > % > w <   5.z.@.  k r < e 7 %   $ } r ` 9 I P R u.k.%.y.b.z j   ",
"L 3.E.[.g K 0.7.r.`.,.> F       % 7 @ c .   q > @ @ . > , . . % j d 7 8 =.5.c * h I 9 a r e @     ` . 0.+.M u ^ s.$.5.V.!.( j   ",
"I r.A.~.8 > p.T.W ;.H k e .   k 4 . > w   + 3 3 &   + O %   3 f Q u 7 ( a.D   l D F 4 2 i y e     F   4.( P 3 W y.Y 3.(.Z.8 d 3 ",
"~ 2.P.y.  @.U.Z.  8 @ H e 1 > j @   + X   @ % i 7 X + X , - M /   $ @.J.@.  3 ) X.  . ; y 8 ; %   d   ( C I B I q._ p.L.x.t M W ",
"<.e.Q.( t.T.(.C.u b > H @ 4 , > - - % % > % * E z     . % d W m 4 &.m.x.D : c W &.  . % 7 <   O   N   =.P C N ` r.U u.T.s.F G ` ",
"+.d.V.j.n.K._.C.d 9.    + . . % % # 2 > e % 4 ..z   . @ 4 ) M 9 ` m.n.p.% 3 5  .D     2 2 > @   y W $ %.<.5.g W q.: B.^.s.V @.G ",
"^ s.r.u.g.M.`.w.@ A     % @ 2 % - % . > - c   t &   < t C H $ #.s.K.d.F   7 8 G A   % w 4 2 X   i 3.< r.u.u.m O.f.V.@.6.4.` X.. ",
"$.B.B.y.p.Q.S.j     @ O   , .   1 *   3 g o       X r S I y a %.n.Z.    @ > 0 8 d - 2 % 1 - + X d 0.6 e.u.5.6 v.K.L.^ %.U _ @.  ",
":.G.r.V <.T.d.a   X & & & > - < u % r s D ` P r * . 8 G v < @.x.J.@.  @ - e n p 8 b i # < o % @ M r.3 X.D.( u v.T.K.D ( m m  .f ",
"6.L.<.X.M.J.%.^ <   > 2 > & > w < . r ..G  .p.<.;.;.^ # y *.p.K.g.r   > 7 N | u > 8 4 > - o ; 4 B 5.m <.m.f c D.I.z.z t.^ d B M ",
"2.L.6.s.G.&.  T . 4 4 e % , , ; ; % H ;.e   # b %.f.g.1.5.s.k.K.]   8 k 5 B ..x % S % < % 4 e e l O.2.g.m.+.2.j.x.P P p.t   1 ` ",
"w.!.s.m.m.D   F   y e e 5 y 4 4 3 e  .c % % 4   8 D / Y _ f.n.x.(   M W 4 y G #.q c : 7 ; , c v a I =.D 5.X.} V.r.r m ] 8   * V ",
"B.^.} k.w.    e i f 3 k 4 i < u 8 c L . < % e B 1.9 Y ^ +.M.b.n.  b c c c , u #...x I  .e   ; v d 6  .d g ~ ^ V.b.G.d.r.9.%.} ` ",
"Y.m.B.B.@.X t B y i c W n ( [ d e $ 5 1 t % . [ #.C R N t.J.y.P 3 T n i e 4 p %.y 0 <.=.@ - e 3   ) D { '  .5.v.y.y.q.d.t.( W ^ ",
"I.j.`.s.  < T | c 5 %.I p l  .W ; 3 e y ; o   #.%.B 9 K M.J.2.` 1 S S y q 5 # }   ` #.K 2   % 5 R O.d l ( 1.k.V.X.p.2.    3 8 L ",
"~.'.!.0.X   7 l m I ) 8 $ 7 } . g R . > . 2 B 3.G ` x %.A.B.u }   u G c 4 4 3 e m 8.U   % > > $ @.0.9 l K } p.G.w.j.8.  . d u s ",
"W.K.R.c..   < B ) K   d i o E . G H   1 . u ..G N O.B t.D.A.o : + > l y ; % ; d { %.P   % > ; g r.( w 6 I } k.J.s.G.8.    t 4 . ",
"I.K.[.9.    - W 2.6   @ 4 S c   c 5 % % 5 ..Z # ^ ^ ( z.W.D.- E   * r u b , - [ [ l 7 - % # , m r.D   y.@.P m.J.k.L.2.  | ]     ",
"D.Y.!.T O   , +.<.d %   X z - # p u .   Y <.V =.B Y 5.u.A.L.t B   @ 1 s P % - <.( o < k . l >.$.y.f 4 } %.<.f.P.Y.~.p.  } 3.7 . ",
"I.~.m.t   > F #.%.Y t         k N e %   O.k.V ;.C K r.p.R.P.1 y O O * B P 7 J q.#.$ u B $ u ` 1.9.8 p v f / 9.m.K.H.b p B ` G - ",
"A.~.p.  .   7 <.w. .> .   X g c i h 2 % ` <.f ^ ^ =.f.b.~.Y.< 5     - ` 7 s r.%.[ K G 8 y G #.) O.G Y m P +.<.D.L.9.- d g c d 4 ",
"K.J.@ % . . g #.$.7 e p l V p.P   > t 1  ./ 9 ( %.e.j.m.H.2.    O @ J f ; l %.O.Y g k r a ) ^ C _ X.( c 4./ 1.A.v.S . d c c e % ",
"v.t.      D a 9 @.( 8 i H 5.t.7 O + e   c #.u ;.g 4.d.y.%.j.) 4   - ` O.` G m m G P X.@.=.X.+.K 5.;.m K 1.y.j.V.t.D G K I c     ",
"%._ R > o _ U 7 l 8 4 5 a 5.y.B     P <.k P I / P $.1.X.,.g.@.F &.I m.m.1.h.u.s.j.k.x.k.r.y.6.m.y.Y O.<.1.q.J.L.u.3 7 5.;.9 @.7.",
"' :.9.X./ :.Y Y g c 9 : : :.r.P F @.#.@.8 9 D 6 $.U q.V.k.l.<.H I - V Y ^ #.O.R 5.P P 1.5.o.u.!.G d R Y e.d.g.(.K.s w @./ X.H.].",
"1.>.4.>.1.+.1.Y O.#...B ~ >.+.k T 9 ' O.z z ` / _ %.f.k.G.J.^.A.  d 1.V 9 ' W / ) K c K ' O.) 4.R s <./ _ y.Z.R.j.  N J D J r.r.",
",.:.q.$.y.y.4.J } 1.>.1.e.1.K / G @./ ;.N +.V 6.s.g._ ' :.s.m.x.= <._ 1 7 *.0.3 8 P P $ x Y Y 4._   ( X.) !.m.J.<.  8 2.E * O.$.",
"q.y.y.s.5.p.9.P @.%.4.:.+.:.5.^ K D @.g V l :.X.M.j.m 9 U u.r.g %.%.J     | =.  u 3 L 3 K ` $.4.} 7 l I %.!.A.g.q.  9.E.g.> 3.u.",
"6.$.X.>.y.,.1.V $.$.J ( <.<.a.a.2.9.K G 9 =.5.^ d.e.) a _ g./ l 1.D   X & | P   ; l ; k ` R 4.s.) d f l P J.f.h.q.j.M.W.@.  %.` ",
"^ ' X.X.X.4.%.,.e.:.O.4.= M ^ 2.e.4.P K ^ ` @.y.n.p.` 9 %.j.W =.3.1 X r > 7 R D < - t  .B   B.4.d k , f c F =.=.n.J.I.).7.  I ` ",
"Z Y V P u a l D ~ D R z d c 8 2.u.K P C 9.%.4.r.b.n.T C s.y.  ) W 3 > % + e D 4 7 @ D #.m >.Q.1.. 5 7 d W y P d.Q.l.'.Z.I S u < ",
"J C O.U u f =.4.4.e f ) M 3 u G u.I D r.s.s._ 9.K.p.g ^ d.B.M.=.c e e   . t d G $ ; 7.I m w.J.X.+ % 7 , z 4   ^.[.;.U.9.. H r y ",
"Y / ;.L y P ~     @ > B I 5 x u.V.s.5.q.V.m.g.L.V.^  .@.j.>.]   8 k [   > 4 k S   p 2.f ^ R <.y.  > % < 7 d < <.d.M.~.4 # u d ( ",
"6 L 0.W $ M B e > . 4 n W ( 9 <.u.` 4.s.<.2.V.u.;.G C ^ _ o.X - 3 ) =.  e % X - u : 3.L g _ $.e.-.  + > < T g K q.~.p.4   - S c ",
"y D ;.^ 8 O.%.0 &   e b z O.Y M =.s %.m.@.8.B : $.G k ) 9.Y   5 V 4. .  7 > > @ 3 3 8 G . / } <.g.m     3 M R 5.Y.j.d 3 e 3 z W ",
"c f Y s M 3.R =   k e q * w.#.3 V g %.v.f.D   %.+.V B v 2.4.5.L O.g i p - : e   < # g ..s 0 K R q.9.` 3 . K  .;.i.|   r u d - ^ ",
"y p y g @.8   r % b 4   k _ =.: c W y.V.m.1 l ;.$.8.N * J y.B.f.S # y # ;  .: e t ; 5 W M } %.^ d.u.0.5.L ) Y *     r t  .g # f ",
"8 u g e z - O & % y 3 + l p.} d 4 D J.V.t.a R %.4.4.t j g >.k.,.. % 5 ,   <.1.W G ( p P %.} Y a y.j.f.f.;.R X.< t < T l ..c = 6 ",
"c H u y T w     > , , i 7 #.O.B H 5.h.V.y.P w.` y._   E P +.k.b.;.  w b =.u.1.G d G Y I ` O.U V y.f.%.` f ^ 9.+.K E N F B : ; H ",
"3 8 8 T P     @ @ - 5 B 9 <.<.R [ ;.V b.K.{   ^ _   @   f C r.G.k.| X P y.q.p.d g 7 l I e.%.%.Y 6.x.9 f M } <.5.M.M.r.V 8 ; # ( ",
", p  .l . @ >   X ; > H l D / 8 8 $ : q.p.& l $.{     n ^ x :.B.9.b.D v y.1.O.c c G B c O.1.Y >.4.u.f.V V K ~ y.x.r.p.j.@.;   Q ",
"# i E 3 # @ 1 1   X 8 T o   c 0 c x 8 $.>.  7 1.P     H v v ) j.1.s.5.= O.O.; x v x f B 5.r.X./ >.@.;.B ` 1.1.q.j.K q.s.8.3.d ) ",
"@     , , 3 3 u c 5 8 F   > c Z H ; I S ( N 3 L W S   >  .; g #.y.4.O.3 Z u a K 9 C J >.6.4.,.6.Z P J ^ %.^ ,.5.y.q.g.u.V.5.<.%.",
"N X . % - p t q p p I G     C W y # @   4 z e B { d > . ( ; g ;.x.k.e.5.I 6 ^ X.g >.s.X.q.y.1._ g / ~ R W +.Y R e.j.r.5.f.u.f.u.",
"9.2.  t n e % y # 5 [ p % , e B T e   X @ @ d 4 6 @ ; d Q R s 3.B.X.%.1.( Y Y q.%.>.@.+.b.X.J e.%.X.%.5.$.q.2.+.b.P.Y %.5.e.e.f.",
"w.g.  7 3 , 4 k p x W )   7 8 8 S N   @ - @ 7 % . N v g 5.Y o <.x.~ g a g U P X.` X.,.6.^.k.u.y.f.$.^ $.B.2.@.<.T.^.V. .P e.s.J.",
"d.J @ # ; p y e p c ..(   T S 3 S d   @ u . . % $ ;.^ f g 9 9 1.} B x p u B ' %.1.k.d.$.q.g.9.o.` <.f.u.X.: N O.P [ T I K g _ $.",
"7   t i z 8 w . G 8 d N e W ( u A o.  > z >   < G P U m Y } M.2.9 ^ c B @.O.Y r.g.d.B.u.T k : > 9 ^ e.^ / < @.3.4 > $ v < 3 @.,.",
"    d @.` > 8 . .   - < z 2.O.1.| {   . 4   < d ; c  .^ <.5.2.X C ,.e. .( X.V s.R.A.p.E z       J ( 5.R 6 r ` )   X p d 3 g s.V.",
"  > i e u     7 , ; H   X * Y 6.    @ , j T S u u U 1.f.4.%.` X.y.f./ q.M.4.&.Z.Q.7.  , ,   - t Y W ` . < 7 8 e @ % % 5 r P }   ",
"  ; . p e # > c k % k   @ r @.I ,.    D p B I M ^ e.<./ g >.5.+.u.J.L.s.b.X.=.i.^ G   4 k o s ^ K W ` 7 l >   > 1   < 4 z H .   ",
"2 - < N   . r > . 1 i E   y n P ,.<.  D ; H n M +.M 3 a %.+.^ ~ f.f.A.T.8.      : e > 3 8 0 I 9. .c $ c S P   > % 7 y ; c l   > ",
"q 2 > l     j % 5 8 N S v W G G Y %.2.I N n g [ =.d K 6.' O.6.s.j.9.h.W     X @ ; I p p b I  .c r 3 u c B [   < % i 3 , B u . 2 ",
"> k - z j     1 k p y d I L g 3 I V N.v.W y P I D ) 0.( Y X.s.r.f )   u j     < 5 c 4 p v D c # - ; g p P ..    ; y y 3 n y x 8 ",
"    w ( b     F ;.G < 7 7 I x d m s g.5.7 g 8 B V #.y.6 Y ` k.^ G g e I ..1 , e y k y q e f 7 t i e y u c S y 4 e ; 4 1 y y M g ",
"  @   %.G . 7 E ( D ^ ` 3.5.W ^ - / #.#.( 8 G ( @.~ m.9.J u.4.4.$ m e d S . 3 k y y e 3 g W e 4   4 u c u b d d p - e % 7 t e u ",
"N 8 I  .} % G P = #.:.+.5.` ;.W G P m g %.<.<.D z Y x.x.x.4.q.s.1.;.  @ c p . S G 3 8 > I %.    k y 8 d e L % > : y S   4 3 e , ",
"A c ; m S 5 ) 9 3 W 6 @.>.m K v N s = C <.Y V I $.k.L.%.K ` q.B.<.u.Q . 5 , c c S j 8 ; F G   . y 4 L v S G B 4 # d % > % , , - "
};
