/* XPM */
static char *_2f1122568124df29f828361028215db1RSySeNPwaplEBAh[] = {
/* columns rows colors chars-per-pixel */
"64 64 245 2 ",
"   c None",
".  c #1C0F07",
"X  c #1C0D0D",
"o  c #170F0C",
"O  c #1B110C",
"+  c #181109",
"@  c #1D0D12",
"#  c #1C0C1B",
"$  c #150F12",
"%  c #1C1112",
"&  c #171213",
"*  c #210D0D",
"=  c #230D07",
"-  c #220C13",
";  c #200F1B",
":  c #23131B",
">  c #261619",
",  c #301C1B",
"<  c #2C1E23",
"1  c #261727",
"2  c #321A28",
"3  c #2C2124",
"4  c #2E202C",
"5  c #33252B",
"6  c #372A2A",
"7  c #3A2C34",
"8  c #372A37",
"9  c #3F3139",
"0  c #43353C",
"q  c #48393B",
"w  c #4F3537",
"e  c #3E2E42",
"r  c #3F3141",
"t  c #443643",
"y  c #463944",
"u  c #4A3B45",
"i  c #4A3949",
"p  c #4C3E52",
"a  c #503954",
"s  c #543E43",
"d  c #4D4249",
"f  c #52444A",
"g  c #5A434C",
"h  c #594845",
"j  c #4F4456",
"k  c #554453",
"l  c #564A54",
"z  c #594A54",
"x  c #564459",
"c  c #5C4B5C",
"v  c #594358",
"b  c #5F505C",
"n  c #644D59",
"m  c #63535C",
"M  c #6C555B",
"N  c #75575A",
"B  c #6F5349",
"V  c #5D4B64",
"C  c #584565",
"Z  c #5C5564",
"A  c #604E62",
"S  c #6B496C",
"D  c #635264",
"F  c #65546B",
"G  c #6A5868",
"H  c #795C68",
"J  c #6A5776",
"K  c #735B75",
"L  c #755B7B",
"P  c #744F6F",
"I  c #776565",
"U  c #7A637D",
"Y  c #786775",
"T  c #865C5F",
"R  c #8E665F",
"E  c #815D75",
"W  c #83627D",
"Q  c #896778",
"!  c #986D77",
"~  c #9A7577",
"^  c #8A7270",
"/  c #AE7B6D",
"(  c #A67979",
")  c #B37A78",
"_  c #AC7576",
"`  c #A8816C",
"'  c #BA866B",
"]  c #BC946D",
"[  c #AA857A",
"{  c #B3847B",
"}  c #BA857E",
"|  c #B5897B",
" . c #BC8B7A",
".. c #B68674",
"X. c #BA927A",
"o. c #9E8B6E",
"O. c #C3886C",
"+. c #D99A6E",
"@. c #C98C78",
"#. c #C5937B",
"$. c #CC947B",
"%. c #C7977A",
"&. c #D49C73",
"*. c #DC9B74",
"=. c #D79879",
"-. c #D08E79",
";. c #EF9D6B",
":. c #EC9E67",
">. c #F19D67",
",. c #E69D79",
"<. c #F49A79",
"1. c #DCA474",
"2. c #DCA57A",
"3. c #DDAA7C",
"4. c #D6A378",
"5. c #D2A672",
"6. c #EBA26B",
"7. c #E4A569",
"8. c #E4A473",
"9. c #E9A374",
"0. c #E4A77C",
"q. c #EAB27D",
"w. c #F3A164",
"e. c #CD9758",
"r. c #765E86",
"t. c #7C6484",
"y. c #7D658C",
"u. c #7B6589",
"i. c #7B6795",
"p. c #7C7780",
"a. c #895C95",
"s. c #865F81",
"d. c #836284",
"f. c #83628C",
"g. c #886488",
"h. c #8B7B81",
"j. c #987686",
"k. c #856592",
"l. c #986D8A",
"z. c #A77C88",
"x. c #B17C82",
"c. c #825FAA",
"v. c #878383",
"b. c #9C8A8C",
"n. c #AA8589",
"m. c #B58A84",
"M. c #BB8B84",
"N. c #B5848D",
"B. c #B78A88",
"V. c #B89389",
"C. c #A98294",
"Z. c #B38A96",
"A. c #B89799",
"S. c #A69696",
"D. c #A6A09E",
"F. c #AF9BA1",
"G. c #BAA5A6",
"H. c #B6B3B4",
"J. c #C28A88",
"K. c #C89586",
"L. c #D59D84",
"P. c #D59887",
"I. c #C89894",
"U. c #D38E82",
"Y. c #E39E90",
"T. c #DAA985",
"R. c #DCB388",
"E. c #C8A598",
"W. c #D7AE95",
"Q. c #DBB797",
"!. c #E3AB85",
"~. c #E5A682",
"^. c #E4B58A",
"/. c #E6B886",
"(. c #E4BB94",
"). c #EABC91",
"_. c #E2BC9C",
"`. c #E2B594",
"'. c #F2BE94",
"]. c #DABDAC",
"[. c #DCB6A1",
"{. c #CBB7AF",
"}. c #ECBAA0",
"|. c #DCC39B",
" X c #E3C19C",
".X c #EAC598",
"XX c #F1CE9A",
"oX c #DEC5A4",
"OX c #DDCBB3",
"+X c #D9C7B7",
"@X c #D8CFB6",
"#X c #E5C5A3",
"$X c #E5CAA3",
"%X c #ECCBA4",
"&X c #E4C6AB",
"*X c #E4CCAC",
"=X c #EACCAB",
"-X c #EBC2A3",
";X c #E6D1AD",
":X c #EBD5A9",
">X c #E4CDB4",
",X c #ECCCB4",
"<X c #E8CABB",
"1X c #E4D1B3",
"2X c #ECD3B4",
"3X c #E5D2BA",
"4X c #EBD5BC",
"5X c #EDDBBB",
"6X c #EAD9B2",
"7X c #F3D9B8",
"8X c #F1D4A7",
"9X c #F5E5B8",
"0X c #B9B7C0",
"qX c #C6BEC6",
"wX c #D4CDC9",
"eX c #D9D0CD",
"rX c #D2D0D4",
"tX c #E3D3C2",
"yX c #EBDCC4",
"uX c #E6DACA",
"iX c #EADCCC",
"pX c #E7D5C7",
"aX c #F3DCC3",
"sX c #F1DDC8",
"dX c #E8DCD5",
"fX c #F0DED1",
"gX c #EBE3CC",
"hX c #F3E4CB",
"jX c #F5E5C7",
"kX c #ECE3D5",
"lX c #EBE6DB",
"zX c #F3E5D3",
"xX c #F6EAD4",
"cX c #F3E5DA",
"vX c #F4EBDC",
"bX c #FAE6D3",
"nX c #F3F2DF",
"mX c #F6F1D9",
"MX c #E4DEE2",
"NX c #EAE9E3",
"BX c #F4ECE3",
"VX c #FAEEE5",
"CX c #F4F3E5",
"ZX c #FAF3E3",
"AX c #EFF6E4",
/* pixels */
"                                                                                                                                ",
"                                                                                                                                ",
"                                                                                                                                ",
"                                                                                                                                ",
"                                                                                                                                ",
"                                                                                                                                ",
"                                                                                                                                ",
"                                                                                                                                ",
"                                                                                                                                ",
"                                                              NX  cX                                                            ",
"                                      CX          VX    vXvXzX(.7XT.zXlXhX  BX    vX                                            ",
"                                    BXvXcXZXvXwX3X$X]. X-XE.U.=.+.:.=.P.0.5X3XiXOX>XBX    cX                                    ",
"                                    wX3XoX4X,X4X#XO.b.%.m.H N ) T B.N x.@.&.Q.zXjX*XlX  zX&XgXlX  BX@X                          ",
"                                    kX#XjXR. XjX}.J.i.T i @ # M 7 G 8 U Q I.| >XoX*XVXBXQ.aXR.gX    BX                          ",
"                              CX    mX,XQ..X*.I.%.) k = @ X X o O - @ j L E x.m.%X.X<X].:X0.6XR.xXcX@XCX                        ",
"                            kXoXtX  iX|.9XV.) K h * X o o X X . X O @ $ @ < P [ 4.&.L.].R.8.|.0.hXaXhX                          ",
"                            Q.8X XgXsX3.,.! J h n 9 > + + + X X X + X < 6 q > n M.} O.) $.3.7XR.7X8.^.ZX                        ",
"                          OX:X$X6X|.aX-Xw.| Z w V.G.Y 5 % O X X X * - N ~ {.Y 3 S [ | V._ K.9.R.3.;./.nX                        ",
"                        cX2X#XiX_.XX~.&.%.Q H ` 4X  rXp.3 X X X X - s E.oX  eXY : s n.~ Z.' ;.XX8.9.*XZX                        ",
"                        >X2.hXbXQ.0.,.B.W J R 5.6X    0Xl X X X X 5 ~ <X      D.O @ n U K 4.<.*.1.`.ZX                          ",
"                CXBX  vXxX X3.8.' $.! Q Y 4 w ` OXlXMXMX^ X X @ X I I.].NXlXNXb.% < 7 D a U.8.! b.CX                            ",
"                yX3X;X3X>X;X.X!.=.) C.F % + . - . % $ o % X X X X * * X $ o o $ X f G 0 ! / K.h.dX                              ",
"                ZX*X#XXX:X XaX&X( I.! D X + O % % % @ X * X X X O * O > 2 % X X X X X = %.5.s.l.L.jX                            ",
"                  ZX4X>X&X:X^.' K.( m.z @ - X X 3 6 3 @ @ X @ $ X * O G l.> o + + . X X P r.! -.,.R.    BX                      ",
"                  vX9X$X1X^.7.+.) V.N 7 - @ X * F i.I B N ^ o.v.v.v.v.A.A., X @ X X . + # u.I.) K.T.aXfX@X                      ",
"                  dXOX>X$Xq.6.@.@.n.B f - X X * x L X.8.Q.vX          F.N < f 8 @ X * @ # U a.=.O.7.~.(.yX                      ",
"                      iX%Xq.K.X.j.C.G % X @ X X - 0 R 2.yX          wXt # 5 K c l 0 * % X t.n.M.T.'.R.,X3X                      ",
"                      fX/.@.M x x u.x X X * @ X X o w j.dX        qXk t D Z t u z 0 d 6 % l [ B.| #XtXuX                        ",
"                      *Xq.( e + @ b q X X X @ - X o @ f H.rXwXwXwXY < z G G @ @ - @ l k 3 1 d.m./ W.aX  CX                      ",
"                    kX$XW.Y 5 X X @ z 0 @ * X @ X X X X X X X X o ; z u X O . O X @ @ x x < f.n.#.8.(.                          ",
"                    jXQ.[ q O X X @ 7 c m < X @ X X X X X X X X X : Y @ * O . X O X % # j 3 f.n.X.8..XeX                        ",
"                  vX=XW.! 7 O % O @ X k U 5 % X X X X X X X X = * : Y ; : q X O O O O % 9 < k.z.#.8.%XOX                        ",
"                  iX>XE.g @ @ @ @ X X q D y - X X X X X X X X X * d D 9 k b % q 7 X X # z 3 f.Z./ T.>XZX                        ",
"                  dX<XF.a @ X X X % X X % m @ O X X X X X X X X @ z x n U 1 i b 7 X u c 8 l k.Q T.!.mX                          ",
"                  uXoX{.x y 1 * * 0 : X - m @ @ X X X X X X @ X X : U V y.: V x X * F r.7 F f.d.T.$XCX                          ",
"                cXcX6XB.k G t @ u m u @ @ b @ X X X X X X X X X X : U c d.: V l X @ F d # u g.( T.9XkX                          ",
"              cX>X>X XM.g J t # G e k c z u X X X X X X X X X X X : n c D x u c 7 X D d % W N.J.L.%XtX                          ",
"              kX*X(.7.} a G 9 @ G 9 u U G < X O X X X X X X X o X - 5 A > U X D i 7 A t q j.I.) `.`.VX                          ",
"              vX*X Xq.$.T K 9 % G C I Q C 1 X X X X X X X o o @ X @ 3 A j t.- G A n t % H Z.) !.=XtX                            ",
"              lX1XzXjX^.-.) G l ( k.m.z.r.a X o X X o X X X X X X X @ y A D x c Z y % d d.n.@.=.#X                              ",
"                uXdXBX*XT.R.[ ~ J.x.U._ j.L # o X @ X X X X X X X @ @ X @ 5 K i @ - 8 r.j.T.~ [.5X                              ",
"                    BXlXhX$X4X].].!.0.K.z.H y p X X X X X X X X X X X X X . @ X . X F i.z.~.[ Q.yX                              ",
"                      CXuXpXnXvXBX/.&...I.W L A X X X X o X X X X X o X o X o X O @ D f.J.` P.1.xX                              ",
"                      CXkXvX    dX%XT...M.z.f.L t X + X @ @ X o @ X o X X X X o X - i L z.| J.2.vXVXiX                          ",
"                    gXyXyXxX    fX&X_.,.K.z.W i.J x @ % O X X X o X X X X X X X X X @ J s.5.X.>X*XzXdXZX                        ",
"                  4X$X:X=X&XnX    fX_.$.z.J.$.z.y.r.J y . . X X X X X o o X X X X X X J i.z.( [.2X X*XZX                        ",
"                kX3X:X1X=X=X%X,XtXcX#X*.O.,.+.M.j.y.y.x @ @ @ X @ X X X X X X o X X X d r.Z.a.].>X4XyX                          ",
"                kX;X$X%X!./.6.6.6..X(.;.6.:.*.} m.z.f.J F Z Z 8 @ X X X X X X @ X X X % E x.V.E.pX                              ",
"                  cX>X/.7.:.w.:.:.;.;.).fX,X6.*.| B.z.i.k.u.i.L 8 @ # @ X X X X X X X - r.k.n.V.G.                              ",
"                  kX*Xq.7.:.>.:.:.6.6./.,X8X:.+.} N.} ~ z.g.W z.H C h - @ . X X X O X @ a y.t.n.m.,XyX                          ",
"                  vX>X.X^.-X0.8..X!.(.Q.2X`.$.| { M.} M.N.M.#.L.! Z.W i X @ X O O . + X % p f.k.x.9.yX                          ",
"                    vX>X3XBXsX5X*X2X1X=X).8.*.&.&. .} x.J./ 1.9.P.) V.K F : @ X X X @ % O : t.u.Q W.nX                          ",
"                    zX1XgX      uXcXiXzX*X^.).9.;.+.$.e.P.O.,.w.8.O.m.j.t.V z 8 u 9 y 6 f 2 d.C.Q uXxX3X                        ",
"                  gX*XkX              jXOX=X#X(. X).6.7.3..X3..X~.0.@.M.V.W z...! L V b z A g (  .tXxXuX                        ",
"                  cXkX                vXyX>X*X%X#X`.(.7X5X*X5X#X2X~.:.=.0.@.4.7.&.#.] h.J p P N.Y.m.                            ",
"                                          gXhX1X*X*XzX    uXAXiXBX<X,X=X=X$XR.q././.(.{.S.M S ) T.{.CXpXVX                      ",
"                                              lXxX                        ZXcXkX1X1XlXVXgX+Xo.X.,.#X>XuXZX                      ",
"                                                                            CX  kXxX      CXiX4XiX4XgX                          ",
"                                                                                                                                ",
"                                                                                                                                ",
"                                                                                                                                ",
"                                                                                                                                ",
"                                                                                                                                ",
"                                                                                                                                "
};
