/* XPM */
static char *dd43b2a18b364636db48845049f130bb4AKTCoKBlq1WJ0Zq[] = {
/* columns rows colors chars-per-pixel */
"64 64 152 2 ",
"   c #010101",
".  c #0A0503",
"X  c #0B0906",
"o  c #0D0A09",
"O  c #120401",
"+  c #190600",
"@  c #140904",
"#  c #1B0B03",
"$  c #120E0B",
"%  c #180F0A",
"&  c #15110E",
"*  c #1A120E",
"=  c #171310",
"-  c #1A1512",
";  c #1E1915",
":  c #1F1B18",
">  c #271500",
",  c #22150C",
"<  c #291B0E",
"1  c #201612",
"2  c #221A16",
"3  c #2A1E16",
"4  c #241D19",
"5  c #291E19",
"6  c #2E2014",
"7  c #26211D",
"8  c #2A221D",
"9  c #31271D",
"0  c #32291F",
"q  c #272521",
"w  c #2D2521",
"e  c #2F2823",
"r  c #302722",
"t  c #322A25",
"y  c #352E29",
"u  c #382F2A",
"i  c #3C3023",
"p  c #36302B",
"a  c #3A332D",
"s  c #3D3631",
"d  c #3F3933",
"f  c #403731",
"g  c #433B35",
"h  c #483F37",
"j  c #463E39",
"k  c #483F39",
"l  c #47413B",
"z  c #4A433D",
"x  c #4E483F",
"c  c #4E4741",
"v  c #4F4943",
"b  c #504741",
"n  c #534B45",
"m  c #554F49",
"M  c #584F49",
"N  c #575047",
"B  c #57514A",
"V  c #5B544D",
"C  c #5D5750",
"Z  c #5E5851",
"A  c #5F5B58",
"S  c #635B54",
"D  c #655F58",
"F  c #666057",
"G  c #666059",
"H  c #6B645C",
"J  c #676563",
"K  c #6C6660",
"L  c #6F6961",
"P  c #736C64",
"I  c #736F69",
"U  c #757067",
"Y  c #767169",
"T  c #7A746C",
"R  c #7E786F",
"E  c #7B7770",
"W  c #7E7971",
"Q  c #827D74",
"!  c #837F79",
"~  c #858077",
"^  c #868179",
"/  c #8A857D",
"(  c #8D887F",
")  c #878481",
"_  c #8B8780",
"`  c #8E8A82",
"'  c #928D84",
"]  c #928F89",
"[  c #938F89",
"{  c #959087",
"}  c #979289",
"|  c #96928A",
" . c #97938D",
".. c #99938B",
"X. c #98948B",
"o. c #99958D",
"O. c #9C978F",
"+. c #9C988F",
"@. c #989590",
"#. c #9B9790",
"$. c #9E9A92",
"%. c #9E9B93",
"&. c #A19D95",
"*. c #A29D95",
"=. c #A29E95",
"-. c #A19C96",
";. c #A39F98",
":. c #A3A097",
">. c #A5A198",
",. c #A4A19C",
"<. c #A7A39C",
"1. c #AAA69E",
"2. c #ABA89F",
"3. c #ACA7A0",
"4. c #AEAAA3",
"5. c #B0ADA6",
"6. c #B1ADA6",
"7. c #B2AFA9",
"8. c #B2B0A7",
"9. c #B3B1A9",
"0. c #B5B1AB",
"q. c #B5B2AB",
"w. c #B6B4AD",
"e. c #B8B5AE",
"r. c #B7B5B0",
"t. c #BAB6B1",
"y. c #BAB7B1",
"u. c #BDBAB4",
"i. c #BEBBB5",
"p. c #C0BDB7",
"a. c #C1BEB8",
"s. c #C4C2BC",
"d. c #C5C2BC",
"f. c #C6C4BF",
"g. c #C8C5BF",
"h. c #C7C5C0",
"j. c #CAC7C1",
"k. c #CCCAC4",
"l. c #CECBC7",
"z. c #CDCCC7",
"x. c #CFCEC9",
"c. c #D1CFC9",
"v. c #D2D0CB",
"b. c #D2D1CC",
"n. c #D4D2CD",
"m. c #D6D5D1",
"M. c #D8D7D2",
"N. c #DAD9D5",
"B. c #DDDBD5",
"V. c #DFDEDA",
"C. c #DFDFDB",
"Z. c #E2E1DD",
/* pixels */
"' ,.] / ..7     7 S H n O   s l F z H Z B y       - 1 -   ~ B.@.Y  .K S ; t S j V Z a 8 n S C L Y  .;.p.Q ^ q.  . = - 7 a u - * ",
">.z.w.H S t a a y l M U U H H l 2 * H S 8 y 5   q n f 4   I j.' I / W Z t q s g h ; X $ - @   t Q o.[ >.S Y -.H     $ f z 7 t = ",
"~ %.z n S I f F 8 t n f H H z a     T G 5 t t H Q D j g g 9 L m % #     x M r - 2 t g d 2 $ - / ' -. .' f 7 a M B a y 8 p 8 = 4 ",
"L ' S n ' q.q.l.e.6.-.&.^ V z Z y ; ` }   X   D H n y z B Q D x V >.Y ` M O X   w a H P j w L ' e.;./ N v 2 ; t f l l l t 8 4 X ",
"F Q T 3 P H ` d.b.h.k.C.} T A X.%.H -.o.        . r p a M ~ Y n / x.b.c.t.! 9 2 8 e t g M l -.%.-.^ T P B s a 7 2 - 2 - ; $   * ",
"S Y ..>.6.Q Q Q ( } :.4.Y A B g B l o.o.! / Q / -.g 1   v 8 5 z 4 ` 6.j.Z.j.c.o.y   w M l ` -.' %...S q.M ; t o ; w 4 q 4 y g = ",
"t ' >.( e.d.7.Y B P B > e.k.d.<.B 6 u.%.o.6.d.d.l.a.` g n 2 a       ;.j.>.~ 7.n.,.H   * V e.} M ..4.a.M.G 1 o & X 5 y y = $ p y ",
"O.! L Q T Q ' -.+./ } { %.s.l.d.4.o.4.-.H ` :.2.l.u.z.2.O.} g.>.W ' ..1.v.Z.O.{ g.]   r V 7.4.1.} ' q.l.M *   X ; = o $ 8 a = X ",
"H a t 2 4 B S S V V G J P 4.4.p.1.t.q.6.q.u.p.d.g.6.g.p.w.d.M.l.u.>.4.T -.n.Q n ` Q O 7 P ' o.' ( S Y ~ P / S t o ; -   2 p = ; ",
"H Y { M B M m t 8 z j s s < a a ~ Y S ' 1.:.4.6.-.' Q Q 1.g.o.u.q.u.>.Y V   4 f V H S L ' Q V / Q B ^ P x H P 4 .     . e p = l ",
"s T ' S / Q B z n n n / +.' S s L P B P ~ G Y V Q H Y F &.' :.%.x.m.u.C t 2 s M l M F S S H M Q H U ' Q 2 4 t 7 = m D L n g n n ",
"z ~ P ^ ' M w I H n N ~ %.-.q.e.q./ f L S N n Y T p N ^ Q Q %.H D Y m g V a 7 ; - . M T a g n S P D R 6.U S 1 ; s c z n a a r g ",
"  _ j R c V G { ^ F P Q ` ' Y Q -.n p L s s 8  .G c g h M T V F P B f a a 2 = =   4 ~ =.H a h n S S ' P #.S S   5 f g a a s p z ",
"  #.7 t T L e O       . 2 6 3 l R Q P x y t 8   6 t m H z U S Q S f t 4 4 5 & X   F X.:.Y 9 -.Q M V Q C >.' ! P L - r s t w 7 M ",
"  f a 4 t Y L S n t k F Q / ' ' I M 8 S T ` H v y u c P R V a y   w s a 4 = =   z ^ -.:.:.q.O.P n G L Q R S D S B j ; - 8 4 y 4 ",
"O * H k   @ @ .     . q a u z l d y t . C P ' }  .` P G / +.x S H F F u       E -.o.+.+.O./ / ~ v i Q +.P r M B n I 8 4 t   p r ",
"L H P V r $ X     o X       $ : w g f q 7 @ a k R ^ F b B t.l.^ ^ ` o.` ^ I O.' Q S V p j S T P ( H ' %.P -   8 S ! z . t 8   . ",
"j.! B f r = o o 5 = o   X o $ = y s - 2 % & 2 * W F T H P ` { F S Y _ e.n.u.Q Y L n ~ C V Y S F Q Q n X.` &   & p Z H g 4 r     ",
"u.J w s 4 = q t t q ; & = : X o : ;   $   = $ X f u z D H -.R I B L m   W #.V F S u H H P Q ^ { ~ +.U 4.,.g   . @ t B n y S Y B ",
"G L w 5 = $ w t y e 2 : 7 : = = $ - r $ ; $ o $   & t a Y ..^ H f N H c l l V g . y g T H / P ` ` ' 4.c.` V d ; a w a z w s B c ",
"H %.Q   ; w 7 q = ; = ; 2 o X ; ; 2 P W n     $ s l 8 7 I 4.~ m @ 5 s I P B a M n P S B V B g z ~ P Y ' Y o.G % 7 2 s t e 2 = - ",
"H >.,.g = w 8 y 7   .   o ; e 2 ; = M R W B B 4 ; t b s P 1.M k m B & q n Q ' Q 4 f 1 a n g n a n o.P ( -.e.X.    = t 4 8 8 w 8 ",
"G P O.~ 8 a p B b         4 g 8 k s d e G ` W s X @ B g B 2.B N N 2 a - X 2 t 2 2 X 2 S n t l g v ~ W L 2.-.d.~ l y n l s w - u ",
"h 8 M Q C 8   p n L I n l p 8 ; $ w H a   g H H G U H M M <./ F w y & 2 4 $   t 2 ; e B y a l g 8 a Q F / :.j.n.H * 2 ; r y n z ",
"y ;   * Y o.Y @ j S D H x t y t g P R T F r s F Q ' W P l -.F S 5     b 8 z n $     w S z s l s b T / P R ' +.e.'   $ - t a c g ",
"  2 2 =   Q 3.g   8 u t w 8 g U P B r u 2 = & * 1 m ` W g o.P S / I V B n a a X 1 w 2 Q ` o.P 1 e S V V H S n T T       2 - o g ",
"  . o & - w / / z   % 2 4 ; 8 l l 4 4 4 2 : = = o 5 y g v 1.P P Y Y H 8 w t 2 $ - - S / o.} Q P a 2 V M k P H / P     X $ $ w - ",
"; e p 8 = t   W -.Y B @   o & 8 4 8 a 8 8 4 = g m B 8 ; F ^ S y 8   * =   X : 4 4 - -   Y o.' P n B H f a P S q.6.^ . s H b g q ",
"y 4 7 q X 2 ; 4 F p.3.+.m   o = g M l y u a y t y z S s Y 3.S g 2     w =     .   g . ; z B g 1 4 ~ ~ a w n Y ' -.d.S e V s X . ",
"8 & $ . .   q 7 4 T 9.9.%.      w z f g x n j t 5 = 2 z H 9.n Q K B   . ; 5 H E H y 8 2 8   B ~ P ` R s f f / H d.u.;.  w 5   Z ",
"7 & ; ; = : = a p + U 9.a.6.T t     g Z z t = o X     & ; B $ s E Q M 2 : 5 g D / s * $   P 4.:.~ 1.Y C x S Q :.a.6.` S a z W -.",
"7 2 q 8 4 ; $ y S   2 H :.q.u.,.H S   ; 1   .             I B   , I Q ^ C g q 5 x P g . W 1.' ^ o.1.q.4.H t v { +.-.>.a n @ ~ W ",
"$ ; 2 4 2 2 ; o a H d w I T 1.d.s.6.6.M H P 1 V z t 4 . 4 c N u.4.a g T F W   ; 2 V -./ 6.p.7.2.T T / W / /   P Y F o.X.S Q :.t.",
"    o $ = q ; o = v Z z + a P >.2.5.2.X.Q t . * 7 q 2   H Y ^ b.4.o.F S O 6.I   . ' 9.>.3...R H g s u @ e 6.! H Q S / -.2./ { ' ",
"c s s j n D q   . % s H n q 5 Y &.&.u.s.d.w.u.d.l.f.f.~ <.:.:.f.,.o.2.-.@.w.Q L n ` } / P z f h % % C C w L ~ Q ^ P U P L { / H ",
"v y ; q t . X = $ $ $ ; c V s t ( S I +.6.u.d.g.s.s.m.u.E ~ 3.p.Q B S Q %.,.>.J ' Q B d n f S l L H S ^ s C / / f R P B Z b 4.M ",
"= X $ = = o   = o . X o y x n + Q S S x n U o.2.X.-.8.6.o.H w.4.H y t t x Z T S F g * t S   f m ; . y g t z S -.F 0 { Z 6 ` 9.Y ",
"s t : X X X X X   X   X = e w S :.H C B u p n S ~ o.-.6.:./ ' :.S j H G S g D n s l j t     o     $ $ j D B H / ~ 7 v { +.4.4.j.",
"t =     o = o = X         . . E &.M t x l I P F N M T ` / Y N Q 4.-.' -.4.o.D c v v ( / S   O   g g @ z R m f m ( z y H Y S V >.",
"s g m s ; = = o $ q d g X   = E T 8 Q U Y n l S x l H P f B Y F %.y.,.4.4.j.a.E T P Y `  .H H N S D 7   * x - y S T W n l T s T ",
"q y P v o = = ; ; y C L y   t ~ g   v G U ^ n O W W S G R H 1 H ` Y S o.o.' s.%., T Q Y S H P ! V g 8 & o 2 y t l l P M h S c B ",
"  w ` 5     = 2 : o ; 2 X   B } + 8 5 @ . h P n z n a t t m B H z Y Q R / S -.u.c   p H '   g 8 2 e t - .   - j S f a n y x / z ",
"  H / - z e   X o o o = s @ S Y   X X & X : t H ^ >.! D Y B t a P k W L Y @.t.~ / b 5 8 M H %   z g $ =   =   S l n h w a 8 T S ",
"v  .Q w s S q       - : - s c v 8 $ ; t = X X 5 C I H H g a 8 l l n t V  .%.u.W P >.7.o.o.a.@.Q G : o = e s ; a y - k S 8 S T Q ",
"H / S a m e s g 4   ; ; ; - g K Y c . ; q ; = $   . @ 5 . ! P T W s n n z  .' -.q.4.6.y.e.9.o.Y z X   X $ & X ; v n n e.' Y s c ",
"! ' D p m 2   o ; X $ = X   7 t M H m 5 r @ . o   $ 4 w 5 N Y G H H c S v n Q ` Q T -.p.6.x # w B .           X     ^ 6.:.T z % ",
"` L l & t q w w X   X & & o & X & r s & : C n 4 y q y & -   Y y P m / / B N >.G t g V z / Y % g ; X q z t Y S     W Q g y G m t ",
"Q B I y o = . $ : $ $ $ & 4 t ; = 2 q w - s v k a g a       z B m n ! ' } @.q.%.R x s 8 b H w s c p B z v b J   Q Q S V l * v z ",
"Q S W 2 X       s y ; o o X ; 7 = 2 y s C .     $ y j m 8 z n g H D ;.Q ~ x @.Q k 4 2 y c V w q n V z 5 ; y / ' B V x 4 a S F g ",
"W D F .           & = $ ; o $ : ; 2 2 S T S G f $   s } o.O.o.P m Q <.C y r k t M W P P P Q C c g z r t c S P V P j v f a S T B ",
"q.%.b S B 2 2     q 2 X X = & o & w y H s 2 X l g     c / / W W / T Q b a 4 5 A Y ` L ] W Q n   $ o = 4 n S T - r w S M m ` F z ",
"1.-.g S L 2 z m t 7 =   X X $ = - ; 8 g a = t 7   X X s b u ; S ` Q T @ g g C C s - s g 5 4 g . X   o     w j X X   g B 8 _ ' Y ",
"/ S w N G     * s b n       o ; q w f B V w u $       s y 2 2 k ! Q C ( f S x j g q   o t j n C c v a D S k 1   X B c u 8 G P T ",
"S c - 8 D Z K Q v $ =     X $ ; 8 5 w f P H     o e = e q ; w P ! ! M U B s - 2 w : 4 2 2 q $ w q m H C P p - n s t k a 1 H W 5 ",
"4 u   $ H  .j.M.Q w g / c   X   ; t y t t M x 5 a V P 5 S t s T Q Q T Q n e &     g g w = o & X r s 2 g f 4   & $ 4 5 a b b I S ",
"I Q n   - c 0 ..C   t s O     : .   t y p l D ~ ~ P ' Y Y s g L L P P ( S !   ; $ X o & = $ X   a t $ w a n . - s   5 y Q F - 1 ",
"d.e.e.o.8   O ) l.r.t.7.` a a S B c 8 c L g l S P Y Q P t 7 V S x V x Q b `   w u $ t &   o X ; t q t u t . $ 2 g - $ 8 c D n w ",
"d.n.Z.B.,.    ' %.j.m.m.C.d.%.E       t C 4 ; & 1 n 4 g t V V Q ' / Q T g T S l Y C       . = ; 4 w ; ; t 4 2 o = t y     2 M H ",
"y.6.6.d.j.#.F m , P j.j.q.x.j.h.W z     &         = . X x S R T ..-.Q / u a b l P Q e = :   X o 1 u q - t q &   o .         @ 7 ",
"c.c.l.l.n.M.o.i 3   ] 4.O.>.Q q.p.q.` T .   +             @ P Q { { ..H t a 8 * w x H n B n X X - ; j 2 - g L t q     a d n P j ",
"R ^ -.q.v.B.C.Z.N.` I >.-.} x H } 6.4.9.@...1.` C t   $ . * F ~ Q ../ P b M b S S a a 7 y V g 2 = & t 7 . a H w y z a d H U P k ",
", * + H ` -.p.m.p.f.c.t.[ 7.o./ ' %.P w.n.M.c.Z.b.6. .#   C Q / / +.P L M P Q / W M y s p 8 H Z         $ t a y o ; = $ q   n 2 ",
"' N M g . * 6 R ` ' ` -.>.9.u.j.l.v.v.e.2.B.a.g.j.m.c.d.' H Q Q Q { Y L C n H N z g t u z w y y .   _ -.n   . = ; o 7 y X X t g ",
"y r 8 6 # 7 l B V Z Q Y S U Q ` Q } 6.l.f.n.l.d.a.f.u.g.6.Y Y ~ Q { ( S B l C 4 t s t w a 8 % $ X l / } %.q       ; ; ;     g z "
};
