/* XPM */
static char *e1edb727af994de3fd7f4fab466694538lp37TrN9gg386RF[] = {
/* columns rows colors chars-per-pixel */
"64 64 184 2 ",
"   c #020302",
".  c #080504",
"X  c #040A04",
"o  c #090A06",
"O  c #050509",
"+  c #0A060B",
"@  c #070B08",
"#  c #0B0C0B",
"$  c #100E0E",
"%  c #041105",
"&  c #061209",
"*  c #0C130C",
"=  c #0B1A0E",
"-  c #071C0B",
";  c #11120E",
":  c #11190E",
">  c #0F0E11",
",  c #110710",
"<  c #110D12",
"1  c #0E1210",
"2  c #0E1A11",
"3  c #131413",
"4  c #191614",
"5  c #141B14",
"6  c #191A16",
"7  c #161518",
"8  c #1A171A",
"9  c #171B19",
"0  c #1B1D1B",
"q  c #0F2316",
"w  c #132215",
"e  c #122917",
"r  c #162219",
"t  c #1C231D",
"y  c #142B1A",
"u  c #1B2A1D",
"i  c #21231E",
"p  c #202A1F",
"a  c #1D1D22",
"s  c #211E23",
"d  c #1E2321",
"f  c #1E2A21",
"g  c #1D3323",
"h  c #232423",
"j  c #2B2523",
"k  c #232B24",
"l  c #292B27",
"z  c #252629",
"x  c #292629",
"c  c #262B28",
"v  c #2B2C2B",
"b  c #223126",
"n  c #283025",
"m  c #203926",
"M  c #263329",
"N  c #2C332C",
"B  c #253B2B",
"V  c #2B3A2E",
"C  c #31332F",
"Z  c #2E2E31",
"A  c #312C32",
"S  c #2E3532",
"D  c #2E3C32",
"F  c #333433",
"G  c #383637",
"H  c #333B34",
"J  c #393A36",
"K  c #353639",
"L  c #363B38",
"P  c #3A3C3A",
"I  c #3C373E",
"U  c #423D3A",
"Y  c #2D4135",
"T  c #334235",
"R  c #35453A",
"E  c #3B433C",
"W  c #37493E",
"Q  c #3B493D",
"!  c #3B513F",
"~  c #41433F",
"^  c #3E3F41",
"/  c #3D4441",
"(  c #3D4C42",
")  c #3E5144",
"_  c #3F5549",
"`  c #3D5943",
"'  c #434442",
"]  c #484340",
"[  c #444C44",
"{  c #4A4C47",
"}  c #464D49",
"|  c #4A4E4A",
" . c #435246",
".. c #485045",
"X. c #455349",
"o. c #4C534C",
"O. c #455C4B",
"+. c #4B594E",
"@. c #51534F",
"#. c #4D5C51",
"$. c #4F5352",
"%. c #535552",
"&. c #535C55",
"*. c #595C57",
"=. c #575C58",
"-. c #5A5E5B",
";. c #4E6253",
":. c #4F6855",
">. c #536355",
",. c #556359",
"<. c #5B635C",
"1. c #536A5A",
"2. c #5C6A5F",
"3. c #61655F",
"4. c #5F6561",
"5. c #5E6C62",
"6. c #5E7263",
"7. c #597962",
"8. c #636662",
"9. c #636C64",
"0. c #666C68",
"q. c #6B6F6A",
"w. c #637166",
"e. c #687065",
"r. c #657369",
"t. c #6B746C",
"y. c #667A6B",
"u. c #6C7A6E",
"i. c #6D7C71",
"p. c #747673",
"a. c #747B75",
"s. c #787A77",
"d. c #7B7E7A",
"f. c #747D78",
"g. c #6D8273",
"h. c #6D8D76",
"j. c #738376",
"k. c #758479",
"l. c #7C847D",
"z. c #738A7A",
"x. c #7A8C7D",
"c. c #79907E",
"v. c #73907C",
"b. c #808A7F",
"n. c #7E8581",
"m. c #7E8B81",
"M. c #7E9385",
"N. c #828581",
"B. c #838C84",
"V. c #868F8A",
"C. c #8B8F8B",
"Z. c #839487",
"A. c #839887",
"S. c #849389",
"D. c #8C948C",
"F. c #869B8B",
"G. c #8C9A8D",
"H. c #91958F",
"J. c #909A8F",
"K. c #8F9591",
"L. c #8C9C91",
"P. c #939592",
"I. c #939B94",
"U. c #999B98",
"Y. c #87A48E",
"T. c #89A28F",
"R. c #90A18F",
"E. c #8CA292",
"W. c #96A49A",
"Q. c #9CA69E",
"!. c #95AA9B",
"~. c #9AAB9E",
"^. c #91A194",
"/. c #A0A19C",
"(. c #9DB2A5",
"). c #A4ABA4",
"_. c #A1B8A6",
"`. c #A6B5AB",
"'. c #A9B6A9",
"]. c #A6BEAC",
"[. c #AABFB0",
"{. c #B3BDB4",
"}. c #BABCBB",
"|. c #BBCFC3",
/* pixels */
"0 X # @ i @.e.:             O #                 # # . .     O < E } p X & b B W ) ;.g.W.1.g X f u 5 @ X @                   O   ",
"* X   5 J 3.o.              O + .               . O   O     # $ k e.t...<.T = y Y #.y.n._ f X 5 = @ X X @ o                   O ",
"    t N 9.p : o           O O O O               #     .           J a.b.l.u X Q #.j.Z.5.N g = = 2 X     X   . .           O O   ",
"  9 N E J 6 o           O O O O     .             O     .       ; 4 i ~ 9.k % H T w.k.( 9 f k u r 2 & &               O O   O   ",
"1 S t h   *               O O     O .                           . ; ; k E  .u X k W +.M u N N l S f 5 @ .     .           O   O ",
"[ &   o     #           O O O O > 7 1           # .               o ; v 5 Y Q T O.V u 2 i N C F D c 5 ; o                       ",
"v *     o     X         . $ x ' 4.| f .   . o # 1 @           O . i t u p u m 1.!.5.k 5 t i x h S x v l i ;     .             O ",
"$ .             .   .     0 3.Q.}.d.x   @ #     < .           . ; 3.t.V = - V 1.E.w.b & * 3 8 +       o                         ",
"      o               5 ' p.C.P.<.v     o o   h ' X   o         C %.~ : = w u T g.1.b @   # 1                                   ",
"      * * o     3 5 x @.s.d.{ 3       ; #     N 9.3   o         r E N - & w V 1.6.) 2 X . # 3 O + O             .               ",
"      o #       # H *.%.J 0 o         * 3 #   l s.;         X   X N l X - T 1.g.z. .%   @ O # O                       X X X   X ",
"X     o o     o 3 l F i     . 3           o o C b.;       X       X   % D  .>.z.(.1.& X @       O           X       X w k y % X ",
"              ; G t       @         o       # { C.h .             X 5 Q &.W  .~.].2.& X X   O O O O O       @     X g ~ +.Q u - ",
"            3 h 3 o             X           o %.N.x               X n +.&.R ! F.!.>.&   X     O O O             X * Q u.z.6.Q w ",
"      * 5 0 v J o       X           o     # 6 8.s.P               X H t. .m R M.z.O.= X     .   O O O             b u.A.y.O.T e ",
"    * i l l h k o                 X o     *   F H.-.*           X   L j.[ V ) x.6.Q =       O   O O   O         X u 6.c.e.:.T % ",
"  o 0 l v l 0 ; 1 o   o     o             * 0 C P.s.i     . .     1 L o.T T  .g.y.p X X           O     O     O = u D D D Q N X ",
"  o 6 h v l i 0 # .                   o     h @.d.p.h     .       & N +.( ) X.h.z.y                         @ 1 r 2 9 f b D g X ",
"  ; v [ %.@.~ C ' 9 .     X @   . O   O o   t P %.3.6     #         r 9.5.;.:.!._.M X X   .         O       1 k d 5 7 f N k :   ",
"| %.%.<.q.p.s.p.p.P *     o   . .     3 x C v v J H       #     X   @ T +.2.y.(.].b X     O   O             * c 1 1 3 t k 5 # @ ",
"s.p.8.<.0.p.H.U.3.J 0 $     .       6 v %.8.G *.@.C   o       O   * X   X Y ;.A.!.b X X   #   O X     # * o # 5 3 h v N N 0 O   ",
"3.3.%...{ 3.b.B.v N n N 6 : t r 6 : C o.l.e.E p.N.' # #         .     @     = 2.z.b X       O O & * * * * X   3 v G v 7 3 # @ . ",
"o.o.o.%.@.&.-.{ C p * | J.I.Z.p.#.D j.N & & 3 l.s.P               . o     5 5 p Z.#.w @ o   O   # 6 * o 1 # . # 3 7 #           ",
"8.o.E Q Q ..@.N ..w T J.H.b./.b...T +.R p t j.<.E i         . # O     o X   * E e...& X @   # O   &     h a @     . . o # . O   ",
"( T H L k T o.r N N X.m.B.3.a.I.R.x.e.e.+.T K.<.t o           .   > 3 o     & N %.N & &     > 3 . <   O h h #   .         .   O ",
"t N N V n n H 5 X N =.e.9.<.t.B.c.'.R.>.e.e.k.X.~ t * 4 0 4 $   O # #   X 5 5 u  .6   X o o > # 3 0 3   # 6 7 <     . o O # 3 6 ",
"6 k 6 i C i ;   r k 8.d.3.s.B.8.>.u.G.j.B.u.H H *.~ v C F F F x 7 #     X   = R +.w         # O . 3 #     4 0 h   # h Z K L G ' ",
"; 0   * i ;   ; { J | | { %.| { u.2.3.<.H t / 4.J v x i 8 0 v F F Z 0     X u '  .&   X     O           O 3 8 0 F v F A A v l x ",
"  #         4 J ~ v 6 o 6 4   l p >.B.N.=.q.a.} ; o .       $ $ s ^ P 0 o & r C +.X   X         .           # 4 3.^ h # . @   O ",
"  o .     6 C G 0 . $ #         6 p L o.N.l.v f ;                 0 F E N % & n E X @       O O O     .     s Z { v #     .     ",
". . . o 4 G J $ .   ; o     .   .   o 5 1 0 l 0 o     o         O # 5 J ~ H H [ V   &     . O         O   # G F < O       .     ",
"    . $ 4 Z l   $     # i h 4 . .       # * @ @     o 8 4 #     + # # l E [ 2.B.t.& X   o     .   #       6 G 8 +         O . # ",
".     3 z s         i ^ L F F ^ 0 1   O .       # l C v J C n i < O     H <.t.{.Q.5 * l # * 3           > v A   .     3 x P P ^ ",
"7 3 3 A ' h   >   0 x v x 0 8 L F K 3   # #   8 x C l 6 v P U J 0 O .   0 >.8.`.Z.n 5 n l h < O         3 F x       7 x J L Z v ",
"z v x %.8.G v [ x P P 0 #     3 a K A O O < + s P l . o ; i p U x # $ . 3 <.9.Z.>.C * @ ; #   < <     . h v 3     # F F 4     3 ",
"  # # A K # # 8 F | %.K 0 #     + s K > + + O x F ;   o 4 v v ; K 8 @   o =.B.j.D M *         > #     # x v .     # F x O   + i ",
"  O # F l       v P c 0 ^ K # @ , , ^ A + > < A G   . # 0 F P o G v     X o.).e.b 5   X . @ # .   . #   h L 1   O 3 Z 0       . ",
"    # G z   #   v L 8 0 f v v K a 7 A z       v I o   * 5 %.@.* v S       [ {.9.N @   & 1 9 h 4 v t #   h L #     3 L t   .   > ",
"    * N 0       K Z * d 9 a F L / o.K z 3 #   ~ v ;   ; k V.t.& C v       $.{.t.*   @ 1 1 t i 0 / h #   z v # O   7 F 8   @   9 ",
"  ; 0 F k     O S D O d 9 d ^ $.g S / / : $ o l F       c %.#.9 ' N o =   %.I.%.  1 9 * 5 C C l 8 #   O x N #     7 H 0 O @   d ",
"* o * E N   & ; L c X * # 9 S -.$.O $.-.7   @ F P 0 .   h o.n.} H F O     4.B.X @ k h # : v v ;         c P #     3 J 0     # c ",
"R p k } N   5 l E N @     > 1 ' S.S -.0.@     F %.J   * 3 =.f.4.8.P   d 2 L o.5 N h 1 * 6 t :   * .     c F #     1 L h   . O d ",
",.&.e.a.,.+.<.,.o.L @   @ 1   z f.4.K.0.  o # F { G # h 5 5 f M n.9.N F t d N H l &   3 l 0 o o 7 #     v K #     1 P z # * # c ",
"y.G.~.!.Z.L.`.e.} S X   @ #   # &.f.W.5.  o ; p.~ @.~ & @   f S 5.i.L & X v N t . o o @ o     # @       v F #     7 H c 0 7 # F ",
"M.(.|.`.S.L.B.S L N X X   O 8 3 Q 8.a.%.  X t H.~ <.{   X M o.<.6.[ & & O S c 3                       # S v @     0 F a h 0 O L ",
"n.M.(.^.j.u.<.2 H v   X   # F 0 f +.u.N   X ~ q.C P i X & [ <.S.f.6.6.L O M {           #       @   @ h v 0       h N 1 d d   G ",
"q ( #.S.l./ #.  P N o   # . h < u &.k.p   ; 9.3.@.<.t   @ X.t.l.M.M.W.5.X 5 P .   .         # x h d x L v 7   O @ c v o 7 h @ 0 ",
"& X b 1.#.= 2   E N t # 7   3 # @ a.l.k X P p.3.{ %.5 X f t.Z.a.y.6.#.5.2 k l 0       . h H G Z L F H x 1 o     3 v v   o 0   O ",
"X % X ( p X     C J i # ;     3 V t.E 5   <.b.@.~ C X X t Q o.&.g.M.1.Q i i v         o x F h 1 # @ 3 @ o   o   h H 3       @   ",
"X % 9 N 6 0 * o F C o o #   . v +.u.+.M & 3.l.a.t.i X r E u b Q 1.F.S. .p p ~ ;   . . 8 x a O   O   # 8 #   @ 3 ~ 0     #   # P ",
"X p 5 N 0 p i ; ~ J # O   7 < A 5.Q [ b ~ B.a.e.t.5 X u j.9...D 1.h.F.k.& C C ;   . , s A 0 O O .   0 v # O 8 ^ G #     @ O @ } ",
"  ; o F l 4 j i ' ' 0   < 0   7 q k 1.T +.Z.C.l.~   o } F.a.X.T h.v.T.x.w l i # .     8 A a O O O # 8 v z ^ K S 1 O 7     #   z ",
"4   4 i ~ j i U ' v C # + #     e u Q 2.b.Q.B.2.:   6 2.e.,.T ! 7.Y.!.;.T l F # . .   , A A z a h 0 ' 4.-.' N   .   O O   O   . ",
"j . 4 6 U @.C J i i F ;     #   % m Q W.{.i.,.: % & w T n >.;.T ` ].A.F.E N i     .   . 0 F K S x L %.q.%.z @ @ O     # .   O O ",
".     3 U J 4 * . J 6       @ 0 T ~ A.<.~ g & X X T : X V Q p ~ B ! !.i.E 0               @ > * 7 # 1 ( 9 ( k         > +   > O ",
"F k { *.q.; X : i ~   &   X H } ;.;.1.D e % % X p Q T M o.V n Q T >.Z.,.f     O O   O .           1   * } b X = * X   > ,   , O ",
"J N ' [ } X X 1 o.[   X   : %.f.x.e.N & X -   k r.r.<.&.&.R g D ! h.M.6.y     O O                 X 5 = 8.2.R X y o     # # O + ",
"..D %   % 5 5 t ~ { X   X X } a.e.&.&   X & = 2.m.i.r.&._ / D D O.A.L.y.2 X   O                 @   9 & y >.B.R w & 5     > + O ",
"I.,.w & r k H } w 2.b X u 5 R *.;.,.t : X   = k.k.&.1._ R O._ _ O.M.A.1.X         O             *   X 2 5 = O.^.E * 1 @   < + O ",
"m.t.<.k H k E R H D.9.Q 2.E  .[ C ~ t 6 : X b B.k.Y ( _ / ( B _ O.h.c.>.%     O                   X % R R % % >.e.b 2 5     O   ",
"X.<.k.&.t.4.r.6.f.S.i.0.a.X.5.=.# o     X   +.I.r.T ) / Y / B ) :.g.E.,.q X         .           X % = g w y e & a.r.k X     o   ",
"    = D X.&.#.0.l.&.H Q ,.E <.9.| ;   o o X =.n.,.( ( B B Y Y _ y.M.E.) = X   O                 X g Y g e m u - 2.W.,.& &       ",
"E u   X = c X & 9 f 2 = k b ,.L.b.4   o X X [ X.5./ N D / Y Y O.v.c.i.B & X   @               . % g ! m e y = u V a.Z.T r     # ",
"a.( X   & b X   b b =     & M %.|     ;   @ 4.0.) B 9 B X.1.5.6.j.y.) f 5     O   .         X @ y g :.O.Y - = +.q M B.+.N u X   "
};
