/* XPM */
static char *f8aa09d49a444f0eb5dd5317183489baPr7DOo2xeC383Zfj[] = {
/* columns rows colors chars-per-pixel */
"64 64 236 2 ",
"   c None",
".  c #010408",
"X  c #0E233C",
"o  c #041339",
"O  c #552936",
"+  c #43361D",
"@  c #5D5118",
"#  c #694D2C",
"$  c #766821",
"%  c #766839",
"&  c #625726",
"*  c #132A48",
"=  c #153447",
"-  c #173652",
";  c #132D56",
":  c #1E3D66",
">  c #253D68",
",  c #142950",
"<  c #513259",
"1  c #493456",
"2  c #6C3451",
"3  c #4B3C67",
"4  c #1D455C",
"5  c #194154",
"6  c #1F4661",
"7  c #214C65",
"8  c #21436B",
"9  c #264969",
"0  c #24526D",
"q  c #264B75",
"w  c #255473",
"e  c #2A5E7D",
"r  c #275779",
"t  c #395675",
"y  c #364359",
"u  c #73505C",
"i  c #75755D",
"p  c #686456",
"a  c #565269",
"s  c #724D65",
"d  c #54687C",
"f  c #666B67",
"g  c #707572",
"h  c #595858",
"j  c #AE2C0C",
"k  c #B83A36",
"l  c #9E182D",
"z  c #DC0000",
"x  c #EB3D0C",
"c  c #C73E3B",
"v  c #C92811",
"b  c #AB4F07",
"n  c #B84333",
"m  c #9D6235",
"M  c #EE5200",
"N  c #FF5A00",
"B  c #F65302",
"V  c #F54E07",
"C  c #EB6500",
"Z  c #FA6800",
"A  c #FB7900",
"S  c #EE6A11",
"D  c #D44B32",
"F  c #E34F35",
"G  c #EE722D",
"H  c #D57115",
"J  c #88324D",
"K  c #A9354C",
"L  c #B12942",
"P  c #9C495A",
"I  c #915055",
"U  c #B9544A",
"Y  c #A8504E",
"T  c #98625A",
"R  c #877752",
"E  c #BB6949",
"W  c #AD6850",
"Q  c #945768",
"!  c #837B7B",
"~  c #966067",
"^  c #AC746F",
"/  c #C85047",
"(  c #D87B55",
")  c #D16E47",
"_  c #C67F72",
"`  c #D07765",
"'  c #EB7C4A",
"]  c #7A8179",
"[  c #B19C38",
"{  c #A99536",
"}  c #91802A",
"|  c #F68E00",
" . c #E19E1E",
".. c #90854E",
"X. c #A99352",
"o. c #B6A65C",
"O. c #B6A346",
"+. c #938E6D",
"@. c #A89C67",
"#. c #A39B77",
"$. c #B58C70",
"%. c #B7A967",
"&. c #B8AD75",
"*. c #ED8E51",
"=. c #CA8B66",
"-. c #D79B75",
";. c #CE9571",
":. c #E79A65",
">. c #E79F76",
",. c #CDBD6D",
"<. c #C6B66A",
"1. c #CCBC76",
"2. c #CEB06E",
"3. c #E6A36E",
"4. c #DF995E",
"5. c #D5C573",
"6. c #D5C57A",
"7. c #E0D07E",
"8. c #285E84",
"9. c #3A558A",
"0. c #385188",
"q. c #2D6285",
"w. c #2E6589",
"e. c #29678C",
"r. c #306A8D",
"t. c #2B6B94",
"y. c #326D94",
"u. c #2C729D",
"i. c #347096",
"p. c #35759C",
"a. c #39789F",
"s. c #2E76A4",
"d. c #3477A2",
"f. c #397BA4",
"g. c #367CA9",
"h. c #337DB3",
"j. c #4A7B9E",
"k. c #547589",
"l. c #6B7A84",
"z. c #7B7A82",
"x. c #687C97",
"c. c #477BA2",
"v. c #547AA0",
"b. c #89788D",
"n. c #B47B86",
"m. c #3C85B4",
"M. c #3A89BD",
"N. c #3684B8",
"B. c #3881AF",
"V. c #5B849E",
"C. c #698194",
"Z. c #798690",
"A. c #4186B4",
"S. c #528AAE",
"D. c #6889A7",
"F. c #7591AE",
"G. c #3B8DC3",
"H. c #368BC2",
"J. c #3C93CC",
"K. c #3D90C7",
"L. c #3C95D1",
"P. c #3E99D6",
"I. c #3E9CDA",
"U. c #3F9FE0",
"Y. c #599CC9",
"T. c #409EDD",
"R. c #489BD3",
"E. c #4795CB",
"W. c #4AA1D9",
"Q. c #41A4E5",
"!. c #4BA9E8",
"~. c #54ACE7",
"^. c #5AB2EB",
"/. c #6ABEF2",
"(. c #6BBCEF",
"). c #72C4F5",
"_. c #6FC2F4",
"`. c #868B87",
"'. c #9A938C",
"]. c #9C9794",
"[. c #908D93",
"{. c #A49A97",
"}. c #B09689",
"|. c #B5A49B",
" X c #B3A88C",
".X c #8497A9",
"XX c #9C9DA5",
"oX c #899BB1",
"OX c #A9A4A6",
"+X c #B5AAA4",
"@X c #BDADA5",
"#X c #B6ADA9",
"$X c #BCB1AC",
"%X c #BCB1A5",
"&X c #B8B4B3",
"*X c #A9B5B1",
"=X c #9AA1AF",
"-X c #D9A987",
";X c #C9AB9B",
":X c #CFB291",
">X c #E8AF8B",
",X c #C3B4AC",
"<X c #CAB8A8",
"1X c #D4B7A4",
"2X c #C6BAB2",
"3X c #CBBDB5",
"4X c #C3B8B2",
"5X c #D9BAB0",
"6X c #E3BBA9",
"7X c #DD9386",
"8X c #D5C78B",
"9X c #E8D783",
"0X c #EBDC8C",
"qX c #F4E38C",
"wX c #FEED93",
"eX c #CDC2BA",
"rX c #D2C4BC",
"tX c #D8C4B8",
"yX c #D5C7A8",
"uX c #E7C7B0",
"iX c #8EB5D0",
"pX c #A3AFC6",
"aX c #C5BFC1",
"sX c #D5CCC4",
"dX c #DACCC4",
"fX c #D4C7C0",
"gX c #DDD2CA",
"hX c #DBD2C8",
"jX c gray79",
"kX c #E2D5CC",
"lX c #E5D8CF",
"zX c #E2D2C9",
"xX c #E7D9D0",
"cX c #E9DAD1",
"vX c #EDDED5",
"bX c #EBDCD3",
/* pixels */
"                                                                                                                                ",
"                                                                                                                                ",
"                                                                                                                                ",
"                                                                                                                                ",
"                                                                                                                                ",
"                                                                                                                                ",
"                                                                                                                                ",
"                                                                                                                                ",
"                                                                                                                                ",
"                                                                                                                                ",
"                                                                                                                                ",
"                                                                                                                                ",
"                                                                                                                                ",
"                                                                                                                                ",
"                                                                                                                                ",
"                                                                                                                                ",
"                                                          @X@X                  x N                                             ",
"                                                        3XlXdXrXtX3X    >.  Z | |                                               ",
"                                                  dXzXdXdXgXsXzXxXgXfXzXzX7X*.uXuXeX4X3XzXdX                                    ",
"                                                @XvXzXdXtX3XdXdX3XdX3XzX@X}.1XtXkXgXdXdXdXrXdXdX                                ",
"                                              rXrX3X$X|.sXbXkXeX-X,XfX{.0.) |.eXrXtXtXsXtX3XhXzX,X                              ",
"                                        dXlXlXdXfXdXkXxXgXsX4X$X|.4.;X$X^ 5XlXkXrXvXbXuX6X>X;XhXtXdX                            ",
"                                      <XbXcXhXsXsXcXkXhXsX4X3XeX3XrXxXvXhXlXgXlXlXhXtX;.$.}.|.eXrXfXfX                          ",
"                                    3XdXsXsXsXsXgXcXsXsXrXgXlXlXgXsXkXxXvXsXhXlXeX1X;.'. X-.-XyXeXfX2X@XdXdX3X                  ",
"                                3XdXvXdXsXgXvXxXvXgXsXsXhXvXcXhXsXsXsXsXsXsXkXjX1X-.( S C M 4.:.2XsXgXcXlXvXvX%X                ",
"                              rXxXtXkXsXsXbXgXcXgXsXsXhXcXbXkXkXsXsXsXgXsXfX3X;X=.` x V V m H M :.rXsXsXsXgXrX                  ",
"                            gXlXgXrXeXdXgXsXfXkXsXxXhXhXbXgXhXsXsX5XdX3X3XdXzX;X/ / _ F 2 P b N M >.-XeXeXlXgXtX                ",
"                            zXcXsX3XgXdXfX,X,XdXbXxXhXjXgXsXsXsXsXsXkXvXvXlXlXvX2XfXxX2X[.) n N B G 4.>.eXhXvXvX,X              ",
"                        = = ! dXfXfXzX4X,X@X3XvXxXfX,X,XtXrXfXlXsXhXcXgXdXsXsXkXxXsXsXgXkX$X' A Z N G 3.,XrXhXgX3X              ",
"                    X 9 i.r.2XfXoX4X4XOX@XdXgXfX,X4X,XzXcXbXgXfX5XsXsXsXsXeXeXeXfXfX>X-XuX;X) B C Z ( *.;.{.2XrXzX              ",
"                e.t.6 q d.f.3XOXJ.Y.D.E.F.oX$X|.|.,XvXcXhXsXsXsXsXsXsXsXeX2X2X@X;X-Xg ^ $.=.G Z B S :.=.*.7XrXgXcX3X            ",
"            t.H.Q.P.g.g.c.d d.8.r Q.Q.T.N.g.g.=XcXvXvXkXhXsXeX3XdXsXeX$X,X@X@X|.4.g y k *   C | M -._ N F =.1XsXlXkX            ",
"          t.U.Q.T.B.B.`.@.] Q.s.J.Q.h.q q f.D.4XsXhXrXeX2X,XsXgXsXsXeX2X#X].`.a s P Q j *     m W _ V N M 1XeXrXeXeX            ",
"        u.L.B.I.B.i.Z.<.%.N.Q.P.P.P.J.M.p.b.v..X&X$X,X4X,X2XcXgXsXfXzXzXbXzX$Xb.s ~ I k < I E *.2 C A Z M >.rXsXgXrX            ",
"        J.t.u.B.4 r.% #.Z.Q.L.Y.Y.N.s.d.f.f.f.f.f.F.XX|.tXvXbXsXsXgXgXeX3XhXvXhXn.T < n E T Y u X     A V 7XsXgXbXlX            ",
"        r 7 w Y.R.w.  5 N.M.S./.!.I.i.9.f.f.b.x.f.F.gXlXgXkXsXsXeX,X$X@X@X,X$X4X~ > ; ) : W u X         Z >XtXsXkXlXrX          ",
"          5 S.^.m.p.e.B.B.q.~.T.s.t.f.0 C.@.@.#.C.rXlXeX$X2XeX3X4XOXz.b.g ^ W Q K ; u W U s *           A >XyXsXdXhXeX          ",
"            S.W.p.m.Q.U.I.u.Q.d.d.p.a.i ,.5.5.5.<.<XeXC..XeX+X].[.a K L / J P '.}.I / Y / a #             ' @XtXhXrX            ",
"            A.A.y._._.!.I.N.Q.r.i.p.g ,.6.5.5.5.5.6. Xr.f.x.x.j.8 0.0.> - d ,XlXOXD Q W W s [ o             ` eXdX              ",
"            u.i.W.).).!.Q.Q.J.a.f ..5.5.5.5.5.5.5.5.5.i f.f.y.d.f.q > g {.tXlX3XQ J T / K < k ; J O b C A A :.zXlX3X            ",
"              p._._._.!.Q.Q.E.A.&.5.5.5.5.5.5.5.5.5.5.+.M.t.8 y.f.v.Z.eXxXkX+Xa 8 2 U 8 P W Y 2 a Y Y R $.( ;XhXzX              ",
"            7 m._.).!.U.Q.Q.V. X9X5.5.5.5.5.5.5.5.5.5.5.N.t.w a..X#XgXkXkX,X[.- 9.P / a a / Q W 2 O O       *.eXdX              ",
"          0 ^.T.J.Q.Q.Q.Q.(.7.wXwX6.%.5.o.%.6.5.5.:X8X<.N.P.i..XsXvXlXzX#XC.j.e > 9.3 l D K D W o           ;.uXtX              ",
"            e.P.Q.U.Q.Q.iX7.&.qXwX0Xo.&     R ,.<XzXgXeXpXY.F.$XvXvXgX#XC.f.d.f.t.0.9.0.> 1 < Y J             ,X                ",
"              p.K.U.Q.~.yX+XgXqXwX7.%.         XsXxXxXgXsXeXhXlXcXkX$Xf `.f.f.w.y.9.> > > > > > 2                               ",
"              e I.Q.Q.iX9X+  XqXwX5...      3XtXxXhXsXsX2XeXhXtXgX3X|.p ,.Z.f.i.p.g.f.y.e 4 - 8 ;                               ",
"              t.T.Q.Q.iX%.'.5.X.7.5.R     tXtXlXfXsXeXOXC.C.'.{.[.{.l.o.5.@.j.f.f.f.f.f.a.f.r.- :                               ",
"                K.Q.Q.*X5.qX7.% o.5.}.hXdXeXrXrXeX+X Xf B.a.p.V.c.c.k.%.5.5.g a.f.d.r q p.a.p.i.6 ;   7 7 4                     ",
"                t.Q.R.9XqX%.E j o.O.].rXeXrXrX,X|.'.&.] M.W.m.B.f.d.i 5.5.5.g J.I.J.8.: 8.f.8.q i.4 q.q.e 7                     ",
"                  B.*X9X:X`.z v O.m 2X*XrX%X*XC.&.5.%.m.Q.Q.I.B.f.t.@.5.5.@.h.Q.Q.Q.U.t.9.f.f.r 8.8.7 w 7                       ",
"                    ,.9XR #Xl :XR '.|.{.%X*XS.D.%.5.C.P.Q.Q.E.i.f.q.<.5.5.%.L.Q.Q.^.Q.Q.I.g.f.f.f.y.6 f h                       ",
"                      X.    # # %XhX&X    e P.#.%.o.J.M.Q.Q.m.B.B.i 5.5.6.@.L.Q.^._._.!.Q.E.f.g.f.d.d '.$X                      ",
"                              ,XdXlX3X,X  m.A. X5.o.B.e.I.U.B.B.a...5.5.5.%.A.Q.R.Y.)./.Q.U.m.d.d.f.p.].#X&X4X                  ",
"                              ,XeXlXvXkXhX&XoX5.5.5.+.e M.B.B.e B.r.@.5.5.,.l.Q.L.9.c.).Q.Q.M.i.q d.f.w jXfXcX,X                ",
"                                  ,XeXkXlXrX*X6.5.5.5.] N.r.B.B.w w...5.<.[ i H.Q.Q.^.^.Q.Q.T.d.f.f.f.d.g fXcXkX|.              ",
"                                    2XgXgXlXrX<X8X8X5.X.e e 7 e & } O.O.[ [ { f G.Q.Q.Q.m.m.E.d.f.f.c.D.$XkXgXeX{.              ",
"                                    2XeX2XOXeX2X2X;X<.O.@         @ $ $ $ $ $   w s.G.oXXXXXD..XXX=XOXfXsX3X,X].].              ",
"                                          r y.`.,.<.@.k.4                           +.sXxXxXdXfXbXgXlXeX+X{.'.                  ",
"                                          e s.f.V.V.c.f.7                           rXcXgXfXdXxXsXeX#X.Xc.t                     ",
"                                      q.B.M.L.B.f.p.r.4               ,X,X,X,XrXgXfXfXfX$X#XOX#XOXF.V.a.B.f.0                   ",
"                                      M.p.L.M.p.0 6                 ,XeX3XrXkXgX3X$X].  '.].  r d.f.f.f.p.p.a..                 ",
"                                      . X q.r                               {.{.].              i.f.e f.f.5 5                   ",
"                                                                                                r w.  w.y.-                     ",
"                                                                                                                                "
};
