/* XPM */
static char *_621417664110[] = {
/* columns rows colors chars-per-pixel */
"64 64 256 2 ",
"   c #19776C",
".  c #1A6E72",
"X  c #197875",
"o  c #1C6D6F",
"O  c #26796D",
"+  c #226D76",
"@  c #3D667D",
"#  c #287A75",
"$  c #367E75",
"%  c #236F6F",
"&  c #3E5F7E",
"*  c #665E7B",
"=  c #47647E",
"-  c #5B697B",
";  c #567D7D",
":  c #5B7D7D",
">  c #5E7879",
",  c #4E7C7A",
"<  c #636B7D",
"1  c #69687B",
"2  c #776C7C",
"3  c #637C7D",
"4  c #6C7D7D",
"5  c #697579",
"6  c #737D7C",
"7  c #787779",
"8  c #6F776D",
"9  c #405F7B",
"0  c #896A7A",
"q  c #9A6A7C",
"w  c #82747C",
"e  c #847C7C",
"r  c #877777",
"t  c #97787B",
"y  c #937B6F",
"u  c #B9776D",
"i  c #A86979",
"p  c #B66A78",
"a  c #A77778",
"s  c #B97874",
"d  c #AE726C",
"f  c #C17B6F",
"g  c #19877A",
"h  c #118E7A",
"j  c #3A876C",
"k  c #2A8778",
"l  c #398779",
"z  c #369073",
"x  c #458A6D",
"c  c #58986A",
"v  c #498779",
"b  c #54827D",
"n  c #5C847D",
"m  c #548B7C",
"M  c #5C8B7D",
"N  c #588775",
"B  c #48947A",
"V  c #589677",
"C  c #538B6D",
"Z  c #63847D",
"A  c #6C847C",
"S  c #638B7C",
"D  c #698777",
"F  c #73847C",
"G  c #7B847D",
"H  c #738B7C",
"J  c #7B8A7C",
"K  c #768576",
"L  c #689779",
"P  c #769879",
"I  c #6C966C",
"U  c #52A379",
"Y  c #68A67A",
"T  c #78A579",
"R  c #71AB74",
"E  c #86887B",
"W  c #978879",
"Q  c #859977",
"!  c #989678",
"~  c #8E9A6C",
"^  c #B8886C",
"/  c #B9956C",
"(  c #A88878",
")  c #B68776",
"_  c #A79977",
"`  c #B89776",
"'  c #A79269",
"]  c #88A77A",
"[  c #97AA78",
"{  c #89B477",
"}  c #99B575",
"|  c #96AF6B",
" . c #B5A66C",
".. c #A8A776",
"X. c #B8A876",
"o. c #A6B677",
"O. c #ADB270",
"+. c #C48B6D",
"@. c #C29076",
"#. c #C0A071",
"$. c #1B688A",
"%. c #1B7789",
"&. c #1B6C93",
"*. c #196C99",
"=. c #197696",
"-. c #0E7196",
";. c #3C6684",
":. c #257B8B",
">. c #267A96",
",. c #276E94",
"<. c #1778A7",
"1. c #1675A3",
"2. c #2376A6",
"3. c #446583",
"4. c #496588",
"5. c #536384",
"6. c #586787",
"7. c #557D84",
"8. c #5C7E84",
"9. c #5C7D8A",
"0. c #577D8A",
"q. c #597E93",
"w. c #486E95",
"e. c #666886",
"r. c #776787",
"t. c #637D83",
"y. c #6B7D85",
"u. c #637C8B",
"i. c #6B7C8B",
"p. c #697385",
"a. c #737D84",
"s. c #7B7C84",
"d. c #777988",
"f. c #667E92",
"g. c #736994",
"h. c #595F87",
"j. c #886686",
"k. c #986585",
"l. c #837B84",
"z. c #887785",
"x. c #967885",
"c. c #8A6992",
"v. c #A66583",
"b. c #AE7188",
"n. c #925B85",
"m. c #198A88",
"M. c #19958B",
"N. c #198797",
"B. c #1B9493",
"V. c #199899",
"C. c #0D8C89",
"Z. c #298788",
"A. c #348C8C",
"S. c #398988",
"D. c #2A9386",
"F. c #38978A",
"G. c #288896",
"H. c #3C8C93",
"J. c #378897",
"K. c #289498",
"L. c #379496",
"P. c #18A598",
"I. c #16A28D",
"U. c #32A38F",
"Y. c #1A87A6",
"T. c #1B97A6",
"R. c #1B8BB5",
"E. c #1A96B7",
"W. c #0D94AD",
"Q. c #2385A5",
"!. c #398BA4",
"~. c #2697A6",
"^. c #2297B5",
"/. c #3291AA",
"(. c #18A8A8",
"). c #19A6B7",
"_. c #1AB5B6",
"`. c #12B1AC",
"'. c #25A4A7",
"]. c #20A7B5",
"[. c #20B2B1",
"{. c #4B8B8B",
"}. c #478A88",
"|. c #558484",
" X c #5B8484",
".X c #548B84",
"XX c #5B8B84",
"oX c #54848B",
"OX c #5C848B",
"+X c #548B8C",
"@X c #5C8A8B",
"#X c #4C938C",
"$X c #489487",
"%X c #549485",
"&X c #5A9284",
"*X c #5B938A",
"=X c #579888",
"-X c #448B94",
";X c #4C8B93",
":X c #488798",
">X c #548492",
",X c #5C8493",
"<X c #538A93",
"1X c #5C8B92",
"2X c #57899A",
"3X c #479294",
"4X c #579595",
"5X c #638384",
"6X c #6B8484",
"7X c #648A84",
"8X c #6B8A84",
"9X c #64838A",
"0X c #6B848A",
"qX c #638A8A",
"wX c #6B8B8B",
"eX c #748384",
"rX c #7B8384",
"tX c #738B84",
"yX c #7B8C84",
"uX c #73848B",
"iX c #7C848B",
"pX c #738B8A",
"aX c #7B8B8A",
"sX c #659383",
"dX c #689787",
"fX c #779687",
"gX c #638493",
"hX c #648B92",
"jX c #6B8A91",
"kX c #6B8494",
"lX c #778A92",
"zX c #669494",
"xX c #789493",
"cX c #47A286",
"vX c #58A685",
"bX c #6BA987",
"nX c #76A787",
"mX c #6FB089",
"MX c #508BA3",
"NX c #6587A2",
"BX c #1C99C1",
"VX c #1BB4C3",
"CX c #17A9C4",
"ZX c #848583",
"AX c #838A83",
"SX c #8A8C83",
"DX c #888588",
"FX c #958788",
"GX c #859685",
"HX c #959985",
"JX c #889396",
"KX c #AD8583",
"LX c #85A587",
"PX c #96A986",
"IX c #87B28C",
"UX c #AAB082",
/* pixels */
"eX<X~.T.~.K./.^.<.G.&XF 7 GX=X9X0X7X7XrXH eX@XoX$ #XzX7 FXtXb 5X{.L _ i 1 6.3.@ 3.e.g.r.j.j.k.k.p p p f +.O.o.R l   m.`.>.wXl.7 ",
"5XwX2X-X{.@X4XL.v 4XxXr q E .X0X|.t.t.5X5X6XeXA pXeX7 7 SXwX.X9X;X.XHX) i 0 n.c.0 k.a a a p p d i p f +.#.O.{ c # O B.).J.eXiXAX",
"M eXiXa.6X6XeXeXaXi.d.e W =XXXt..X|.u.oX X6XE E H 6 a FXdX=X Xu.gXH.&X! ` a b.a @.( ! ! _ @.+.^ +.#./  .O.} Y j   g (.^.}.F uXwX",
"5Xn A ZXrXXXD E z.w l.aXsX3XqX7X X|.OXOX5XqXyXSXF Z aXtXXX7.t.+X0X}.F.sXQ ..X.' Q L .X+XvXQ X...#.X.O.o.} Y x %   M.).Q.&X7 7XXX",
"u.|.XXwXqXXX7XE y ! L 5X,XgX6XqXd.u. Xt.5XXX=X+XzX4 *X$X|.3 |.oXZ qX<X-X$XI Q I B $XoX>XS.B I ] } } { T Y z O X g P.).2.sX7 pX.X",
"0.,X9X XOX9XqXsXfXL {.i.9XpX8Xu.qX9XXX5X|.i.oX}.@Xp.jX+X@X5X X> 5X6X9XH.m.Z.S.M.!.oX7X7X-XK.z x c c c B j %   X C._.E.,.L s.aX@X",
"7.9Xi.7.7.t.0X+X3XH.1XlXXXN OXgX{.b  Xn 7XuXpX0X0X5XjXt. Xt.y.@XOX3 eX+XK.~.~.T.2XOXN 5X,XL.C.g O k O O + X X g (._.Y.>.dX5 E qX",
"|. X9X5X X X X9XXX<XG n XX0Xu.N 8X Xy. X6X&X7XA qX|.5X8.8.:  X9X1X5XyXF :X!.J.l 7Xy.8.9Xf.-XV.~.%.X X o X X m.P._.).=.G.nXg.W wX",
" X9X XM .X9.i.6Xe s.eX0X X|.|.a.tXXX@X; pX&X@XOXOX8.: |..X7.8.|.5XeXd.l.rXA sXdXe 0X: 8.8X<XR.(.M.M.g g g M.P._.CX2.&.k T d.r qX",
"5X9X5X5XZ u.OX&XaXpX X|. XOX X.X5XwXi.y.iXrXi.9X X5X9X8. X5X9X:  XXXhXdXtXs.7 5 J @X: 0XeX7XQ.T.[.(.P.P.P.`.VXVXE.<.&.F.LXp.r yX",
"7Xu. Xt.t.9. X&X%X@X7X Xt.uX0X.X}.yXF *X{.XX5XOX0.6XqXOXeX8X1X3 0X0XqXXX5XpXDXFXwXoXN uXs.J J.<.E.).VX_._.VXBXW.=.&.%.bXGXe.r ! ",
"5X|.7. X|. X5XrX.X5X5Xt.t.5X6X5X{.GXr jXH.%Xn 7.oXZ OX9XAX5X<XeX7X0X6Xt. X@X@X0X7XOX.XyXw yX=X=.1.R.R.E.E.^.Y.*.*.-.Z.nXGX6.j.` ",
" XXX0XOX.X X7XZXx.i.|.|.; :  X7X-XfXK d.f.6X6X8.OX3 |.9XE 5X{.fX XOXOX Xy.t. X, |.5X<XJ t i.nXB %.&.-.<.<.1.*.$.*.N.cX] 7 5.j.^ ",
"|. Xd.9XOX6X&X1XjXXX X5X X|. Xt.+X&XS 5XkX6XqX{.7.Z qX9XtX7X1X8XqX@X X|. X5X@XqX Xy.;XJ t e.P bX$X:.%.*.<.-.*.-.Z.cXmXQ 5 5.k.( ",
" X Xd.@X7Xe .X3XF.#X0Xa.9X.X|.3 t.t.OX|. XZ 5XoXt.y.wX X5X5XqX5XqXt.8.t.OX|.|.8.Z u.>XP W r.t.E mX=X}.Z.m.%.Z.K.$XmXPXE 6.= k.) ",
"9.XX0X#XqXt 6X-X.XuXiX7X|.|. XOX.XOXu. Xb n y.i.6Xi.uX X|.: 9X@XOXn ;  Xt.u.7.OXZ >X|.&XFXt 5.r.J GXnXvXU U cXcXmX{ ( 2 w.5.v.u ",
" Xn kXJ.&X( 8 uXs.l.uXqX|. XOX@X|.+XoX7.i.jX+X}.4XhXjXu.7.; qXu.OX|.|.XXG d.oX5XN y.q.$XQ ( q r.p.p.AXHXLXmXIX[ PXFXd.= = r.k.^ ",
"7XN 6X}.=XHXE DXsXqX9X|.|.n eXE JXF N  XOX1X}.L.D.K.<X6XN XXOX#X X5Xu.0XA @XoX XoXyXM A.%X' ( x.r r.p.5 K W ! GXG 2 5.3.6.c.p @.",
"kXoXeX+XA.>XS y.|..X X9X0X6XJ E 2 6 8X7XD P P dXB M.J.6XG a.iXdXXX9XuX7X5X%X0X@XgXAXG :XK.L Q GXSXz.z.e.< 2 2 r.< 5.3.4.g.v.d #.",
"q.oXeXwXH.:X#XXXy.|.|.t.a.6X8XqXH pX0XrXE W W ` ~ $XJ.<XjXd.r W L +XhXM 5XXXDX@XeX0XeX,X/.K.B &XwXE FXr.h.;.;.3.@ 3.4.h.k.a ^ X.",
"|.n A 0X0X0XhXA 8. XXXuXuXhXH.G.S.2XuX8 d.g.j.a ` Q D.'.H.wX8 t GX#XgXm  X5XZX|.H oXOXqX;XJ.}.u.OXN Q W j.h.4.;.4.h.g.j.i s X.o.",
"5X6X XXXF t.0.4 @X9X6X8.{.K.T.E.Q.!.;X8XfXi.* x.a _ z V.G.*X3 r.W *Xi.; |.|.9Xb .X|.5XpX8X6X0Xi. X}.fXKXp v.c.r.r.j.n.p d ^ O.Q ",
"t.u.9X X5X9.>X1Xb t.0X<XL.M.B.N.'.T.~.Z.B P 5 * a ` I B.~.{.pXr.( L |.9.5XXX9.b 7.3 5XeXZXJ 8X|.5X;X*X[ ^ p v.i i i i f +. .] V ",
".XOX6XK 5Xu.3 b .X5XOX-XZ.Z.$ $ m.V.^.R.>.dXxX6.t _ D B.W.-XeX2 ) L A.gXeXuXu.|.f. X|.OXA 5X<Xt.5 2Xk R  .) b.u p s s @.X.| U O ",
"@X8.6X{.!.,Xn {.Z @X<X.XL nXP L j   (.).=.3XGXe.a ..x T.B.zXd.z._ S K.3X5 DXS oX9X3 0.OX XoXm 6XwXJ.m.x }  .#.@.^ ) @. .} L $ O ",
"8.5X{.#Xm n hX8.q.XXL Q _ ..| | P j m.~.<.H.P e.t P D.~.-X8Xr t ] }.T.2X6 DX5X5XXXn oX X X9XA z.wXJ.V.k P o.O.O.X...o.} c l B.V.",
"9X+X+XfX! ! xXK 9XJ ! ( s s ^ ` o.S O K.W.J.P r.AX7X-X:X9XG A H B G.~.3X6 ZX9.wXXXsXoX7.t.OXrXz.hXG.^.g $ dXR | o.{ R c O B.T.T.",
"9XoXH ( W t r E A l.x.j.n.v.i a / T k P.T.{.S l.yXt.gXA K pX@X#XA.-X3X@X8 E 9.<X5X6X9XZ t.@XyXw =XY.].g   j x V c V x   m.~.J.;X",
"5XqXAX7 e.p.7 c.7 7 < 5.w.e.j.v.^ { l T.G.wX8 x.fX|.m H H gXoXkXqXOX4 w x.GX|.b A 0X0XZ 0X.XE 2 U >.T.'.g   % # # O O C.~.3X8.eX",
"wXE z.i.eXJ xXfXAXH K F 9.3.- j.f | B !.+XDXw FX*X>X5XA 5XhX5XA H 0XF W a zX}.3 : 9XkXZ jX#XFX2 fXS.Y.).(.g # + X X B.(.~.oXa.8X",
"yXr 2 xXfXL =X%X4XdXnXHXSX3 6.g.b...m :X@XrXZXGXB gXi. X9.9XZ v t.@X0XP dXL.3X6Xn >X9XZ gX}.( w aXXXG.E.`.P.M.g M.K.(.W.G.wXpX|.",
"W a.fXV F.>.%.%.N.Z.}.vXnXE 2 3.q KXm <X|.b wX.XZ ,X0.|.5X> Z ,XoX7X5X$X3XL.@Xa.: >Xu.N 9.F.HXl.y.D J.<.T.[._.`.`._.E.N.:XpXF 9.",
"z.F %X>.<.<.<.>.-.*.:.Z.$XLXE 5.j.` D 2Xt. X|.hXqX X8.|. X3  XXXgX9Xn 5X{.{.a.6X3 oXt.Z a.L.4XJ z.tX=X:.<.W.].).).BX<.:.zX6 E +X",
"l.jXZ.N.R.).).).E.R.2.&.Z.bXGX- j.( L H.qXrXOXXXt.|.b  X7X5X|.5X9X9X8.y.l.eXuXXX6XOX7. Xa.+X+XA y.G 8X+X=.=.2.R.<.2.&.}.fX6 7X0X",
"eX:XN.).(.(.(.`._.).R.<.-.$XLX- r.( P K.@XE OXn y.OX0Xy.uXiXqX0X7X7X8.0Xx.DX8X X5X9XoX X5Xy. Xb OXr eXnXl *.$.-.*.&.S.bXy.z.&X6X",
"=XG.).(.K.g m.M.I.P._.^.-.S.LX> r.( fXK.XXE OX:  X5X5X X9X0X X9X X|.8.qXwXtX@X8.XXi.8.|.5X4 7X0.XXt p.LXbXH.# C.m.A.vXGX5 x.&X9X",
"S.T.(.C.X X X   g C.P._.W.# xXp.j./ V H.0XeX9X0. X X|.$X%X.Xb 7.7.|.Z XX=X+X@Xn XX6Xt..X8X6X9X;XP x.h.F LXmXY U.vXmXnXa.< a &X1X",
"Q.~.C.  $ k # O % X N.).W.Z.xX2 x.! S.3Xa.uX7X{.9X.X6XaXxXqX|. Xu. XZ 0X+X,X9X.X5X5X X@XrX9X;XS.Q ( e.* SXGXLXIXIXFXF 5.2 ( %XjX",
"~.D.O C Y I c V x # # V.).J.wX7 SXdX$X+Xy.0X X|. X5Xl.x.z.rX|.9.9X0XqX8XuXy.7X X3 OX.XF eX>XK.D.~ ) j.- e.d.E SXJ j.< e.t ! <X6X",
"B.g V ] | } } { I z   h ].w.iXK S ;X9XqXoXn XX5X5X8XrXA S A 5X9XM 0X@X9XeXZ 5X9Xn 9XXXW 8X:XV.D.[ s q w.;.6.< 1 - 5.= g.d HX2XN ",
"k I O.O.X.X.X.X.O.R x C.T.<Xl.XXOXOXhXt. Xb XX@XoX9.rXq.MX@XZ f.7.jX0X7X X|.9Xi.M y.qXe wXJ.~.k [ ` i j.e.9 3.3.= - r.a ^ P $Xu.",
"P [ ` / ^ s @./ X.| I k B.;XeX|.b |.|.8. Xt.0X0Xn S +XK.K.m S jX5X X X5X8X X X|.|. X*XeX8XJ.~.O ~ X.s i c.g.g.e.c.j.i ) ! $XA.|.",
"X.` u u p p s u ` #.[ B m.3X|.9XA 7X XXX8.6X0X0X9X5X-XF.V A 7Xt.5X3 8.5X8.: 7X XkXoXoX4 Z S.T.X c o.@.u p v.v.q k.q ) _ L A.;X9X",
") s i k.q v.v.p a +. .R l A.<Xi.ZXAXtXXX9X X5X Xt.,X;X! ' DXpXaX5X0X0X9X: 5XpX8XNXb : 4 6XA.(.g j LXO./ ^ f f ^ ' `  .] D.H. Xu.",
"i k.j.g.r.r.n.k.v.p / ..V Z.!.oXrXE AXm 9X7. Xb 5X>X=X( 0 4 5 D 9X9X X{.|.uXlX9XJ.B F eXtXJ.E.D.k x ] o.O./  .! ....I }.G.#XA 8.",
"r.h.4.4.4.3.h.g.v.v.s X.T S.V.K. Xs.ZXN uX7. X: oXoXT t y.pXqXhX5XXX%X=X Xy.9X-XA.P W s.uXJ.E.P.g O v L Y L dXvXV B k N./.XXD oX",
"5.3.@ = 3.;.;.;.e.n.b./ ..c m.T.H.eXDXS eX|.9Xt.gX XL t 6X9XL.J.m pXaXfX8Xy.+XL.7X_ x.e.tXA.R.).M.g O O k A.S.S.K.Z.T.T.4X0Xy.|.",
"6.6.< 2 e.6.4.3.3.g.i d X.I k ^.L.i.z.sXeX*XOX5X8Xn 2XDXV w.`.G.B SXa t F 5X{.A.Q ' 0 p.GXl <.).`.K.M.h M./.-X1XJ.-XJ.A.7Xd.kXn ",
"w E SXE W 7 1 6.= 5.r.p @.] j V.!.0XG *XgX8XeX<XwX XXXD f./.V.m ~ b.r.A 8XMXK.v ..t j.e.JX=X=.<.BXCX_.(.~.-X,X4 uXqX8XrXe F 5X X",
"PXPXPXPXUXPXZX2 5.4.e.v.) [ j T.:XeXA .XOXXX6X1XeX8.n A OX/.D.L _ t 1 aX+XJ.B.B ..d j.6.fXU G.,.=.Y.Y.<.:XhX0XN qX6XiXDXZX8XXX9X",
"R Y bXY R IXPXW 2 5.w.j.s ..x T.;X6XS  X9. XZ qXG oX9.rXoXV.k T ) r.> xXA.T.M.v ..d j.6.H T cXZ.m.%.>.;XqXF A oX0X X X X|..X|.9X",
"U.F.D.U.U.vXT { E < 4.j.^ ..z ~.OXeXXXu.oX X X0XE +XoXZXZ K.D.P ( 0 0XdX=.E.h , [ ` q 6.- E PXvX$X$X=XdXH A t.q.Z :  XOXOX|.|. X",
"B.=.=.G.m.D.cXbX] 7 5.r.a ] l !.5XeX+X9XOX XXX0XtX,X}.H 6 ;XG.=X_ z.8 dX=.E.M.l T  .u j.= 5 ZXGXGXLXJ w 7 8X@Xp..X5Xt.OX.X.X X0X",
"$.$.$.&.&.%.D.L.nXW - r.( P F.2X5XuXXX7.8.n |.9XXXf.b m 6XkXH.{.E FX8 fXG.Q.(.:.C ..^ KXj.< - p.6Xp.r.z.rX&X.X9. X9XOX@XXX7XqXqX",
">.&.&.&.*.&.:.Z.vXLX4 2 FXsX-X9XZ eX5X|.t. X8. X|.9X8.|.7X0X@X{.7XDXF H #XG.].N.k V P HX( q e.- 6.1 z.AXtX|.7.9.; u.pXDXFXFXyX}.",
"1.<.<.<.*.*.&.$.F.mXtX0 SXXX9.Z 5Xa.5X.XeX|.8.oX5X@X Xu.9X XXX5X+X5XrXZX4X:.Y.`.V.D.v L P a b.y q a ( H |.f.y.N  X0Xy.7 7 e yX=X",
"BXE.BX).R.Y.*.*.%.4XJ r.Q  Xv oX4 XX&XqX6 J 2XOX9X@X> S qXy.5X|.N 5XiXw AX&XA.J.K.H.2X<X*XL ! / ! ! pX#X|.8.oX|. Xa.iXH *XD t 8X",
"CXVXVXVXCXBXR.Y.-.-XP p.J 0.|.9.MXH.-X!.<XF  X|.7.oX5X7XpXi.|..Xf.9XeXw 7 tXzXzXjXjX0Xt. XXXsXfXsXtX1X7.Z Z 5X5Xb <XH.H.H.wXw qX",
"`._._._.VXVX).W.=.:.sXA tXq.qX5X.X$Xm F.L.5X0XS 5XOX6Xt.wXuX XXX X.XsXGXw z.7 5 iXeX0X X X+XL.K.L.0X+X XN rX0XXXv 3XK.K.~.1Xw GX",
"P.I.I.I.P.[._.).^.1.{.H J 9.n 5XQ HX' P +XoX0XJ H gXuX5X<XpXF 9X XoX<XwXtXE yXrX X X.X|.OXhX;XH.{.6X.X XqXDX2X#XH 8XdXz T.{.r W ",
"M.h g g h M.P.[.].R.J.9XrXeXH pXt x.a ) SX#X>XtXJ kXa.L ;XrXW {.pXjXq.|.XXM n n  X|.oX9.9.y.a.6XeXM |.i.qXi.3X*XFXW ( L L.oXZXP ",
"X X X   X X g M.(._.Y.;X3 7 6 4 7 e.e.q ( V H.1XK 1X6XdXOXz.GXD.Z Z 3 ; hX9.u.9.Z : 8.9.9.5X6XeXuX.Xt.u.@X9X$XE FX0 a Q 3X@X6X|.",
". o . . .   X g C.P.(./.<XzXwXxXdXH y.e.( ~ A.<XA @X X7X0XrX*XH.hX9X|.|.5Xy.uX7X|. X5X5X9X7XqXXXOXXXy.oX|.y.%XE 7 t.s.yXoXwX9X+X",
". . + + + + o o # h (.].Q.;.:.S.<XT SX5.q HXA.XX0Xn 9.0.Z &XJ.<XeX6X7.+Xn 6XqX3X,XOXt.6XG rX6X9X9.m  XOXt.8.oX6XuX{.8X6 gX8. XZ "
};
