/* XPM */
static char *_621417672845[] = {
/* columns rows colors chars-per-pixel */
"64 64 256 2 ",
"   c #B96A6B",
".  c #B9786C",
"X  c #BC6B73",
"o  c #BD647C",
"O  c #B96977",
"+  c #B97777",
"@  c #AE7477",
"#  c #B96F6B",
"$  c #C26776",
"%  c #C27777",
"&  c #C16B6B",
"*  c #16CF74",
"=  c #26CD74",
"-  c #25D27A",
";  c #35D176",
":  c #57CB78",
">  c #50CF73",
",  c #68CC78",
"<  c #76CD75",
"1  c #6AD374",
"2  c #7AD276",
"3  c #71D06B",
"4  c #7C967D",
"5  c #94967B",
"6  c #B8886B",
"7  c #B9976B",
"8  c #B98875",
"9  c #A79A78",
"0  c #BA9976",
"q  c #AD8774",
"w  c #94A87D",
"e  c #91B179",
"r  c #B8A96C",
"t  c #B9B76B",
"y  c #A6A879",
"u  c #B9A775",
"i  c #A9B777",
"p  c #B9B876",
"a  c #AAAE6C",
"s  c #B18A5F",
"d  c #C28876",
"f  c #C29875",
"g  c #C38F6C",
"h  c #C3A776",
"j  c #C3B775",
"k  c #C5B16B",
"l  c #96CC6B",
"z  c #87C977",
"x  c #98C975",
"c  c #89D377",
"v  c #95D275",
"b  c #8DD06B",
"n  c #AAC96C",
"m  c #B8C76B",
"M  c #A8CA77",
"N  c #BDC475",
"B  c #B7C875",
"V  c #B7D277",
"C  c #ADD271",
"Z  c #C2C877",
"A  c #C3C96D",
"S  c #787EAB",
"D  c #7576B6",
"F  c #196ACC",
"G  c #1876CB",
"H  c #1A68D4",
"J  c #1977D6",
"K  c #0C75CF",
"L  c #286BCC",
"P  c #2766D4",
"I  c #3A65D6",
"U  c #2575D7",
"Y  c #3372CE",
"T  c #2B64DB",
"R  c #535ED5",
"E  c #6B5DD4",
"W  c #5967CB",
"Q  c #4867D7",
"!  c #5667D6",
"~  c #4A72D0",
"^  c #7767C8",
"/  c #6966D5",
"(  c #7866D5",
")  c #6C73C8",
"_  c #4F67E2",
"`  c #746AE1",
"'  c #BF5E90",
"]  c #B96788",
"[  c #B97587",
"{  c #BA6699",
"}  c #B57799",
"|  c #AA7796",
" . c #B25EAF",
".. c #8A78A8",
"X. c #9479A8",
"o. c #8A6CB9",
"O. c #9668BA",
"+. c #8977B6",
"@. c #9773B4",
"#. c #A86BA9",
"$. c #BB66A7",
"%. c #A877A7",
"&. c #B676A7",
"*. c #A868B7",
"=. c #B866B7",
"-. c #AA74B5",
";. c #8F759B",
":. c #C45C93",
">. c #C26686",
",. c #C46698",
"<. c #C37688",
"1. c #C367A8",
"2. c #C366B6",
"3. c #CB5CA0",
"4. c #8B5DD0",
"5. c #B05ECC",
"6. c #8867C8",
"7. c #9866C9",
"8. c #8765D8",
"9. c #9866D6",
"0. c #9872C5",
"q. c #A966C9",
"w. c #B866C6",
"e. c #A966D7",
"r. c #B765D4",
"t. c #AD71D2",
"y. c #A162E4",
"u. c #C164C9",
"i. c #C05EC3",
"p. c #1CBAB9",
"a. c #1AA6BF",
"s. c #26B9B7",
"d. c #30B1B1",
"f. c #24B79D",
"g. c #5C9999",
"h. c #798B8B",
"j. c #6A968C",
"k. c #7C938D",
"l. c #76978A",
"z. c #6D8C9C",
"x. c #748C94",
"c. c #7C8C93",
"v. c #748C9C",
"b. c #7B8C9C",
"n. c #7A8698",
"m. c #6B9797",
"M. c #759394",
"N. c #7B9294",
"B. c #74929B",
"V. c #7B929B",
"C. c #789A96",
"Z. c #6D8D8C",
"A. c #5AA89C",
"S. c #50B79A",
"D. c #79A58C",
"F. c #6BA898",
"G. c #78A698",
"H. c #78B697",
"J. c #6FB594",
"K. c #5799B8",
"L. c #5790B2",
"P. c #6B87AA",
"I. c #738CA3",
"U. c #7C8BA2",
"Y. c #7886A7",
"T. c #6A96A8",
"R. c #7894A5",
"E. c #6988B8",
"W. c #7787B5",
"Q. c #6999B4",
"!. c #48B6A9",
"~. c #59B5A8",
"^. c #53A6AD",
"/. c #65A8A5",
"(. c #6EABA6",
"). c #1ACC89",
"_. c #17D387",
"`. c #1ACC97",
"'. c #12D193",
"]. c #27CC87",
"[. c #36CA99",
"{. c #2DCE8E",
"}. c #1ACAA9",
"|. c #17D2A6",
" X c #18C8B9",
".X c #18D3B5",
"XX c #0CCEB6",
"oX c #24C8B7",
"OX c #29CCA8",
"+X c #59C797",
"@X c #49CC8D",
"#X c #69C987",
"$X c #68C698",
"%X c #75CB8A",
"&X c #4CC6A8",
"*X c #65C3A1",
"=X c #1888D5",
"-X c #1997D7",
";X c #178FCE",
":X c #2597D8",
">X c #2D90CE",
",X c #1AA7C8",
"<X c #17B8C8",
"1X c #19A8D8",
"2X c #1AB7D8",
"3X c #0BB7CF",
"4X c #26A7CA",
"5X c #27B8C5",
"6X c #22A8D6",
"7X c #24B8D7",
"8X c #38A8C4",
"9X c #198DE1",
"0X c #2292E3",
"qX c #1AA3E2",
"wX c #4798C6",
"eX c #518DCE",
"rX c #668DC3",
"tX c #4AA3CA",
"yX c #18C9C7",
"uX c #18C6D5",
"iX c #17D0C8",
"pX c #22C6D5",
"aX c #24C8C6",
"sX c #18CAE6",
"dX c #838C8D",
"fX c #878A8B",
"gX c #98888B",
"hX c #8A958A",
"jX c #969888",
"kX c #838B94",
"lX c #838B9B",
"zX c #888899",
"xX c #978897",
"cX c #83939B",
"vX c #859796",
"bX c #979396",
"nX c #A98989",
"mX c #B68786",
"MX c #A79887",
"NX c #A68796",
"BX c #B38C8E",
"VX c #89A888",
"CX c #95B888",
"ZX c #86A897",
"AX c #8EB290",
"SX c #AFB085",
"DX c #8687A5",
"FX c #9585A6",
"GX c #8594A3",
"HX c #8987AE",
"JX c #A983A8",
"KX c #C69B83",
"LX c #89C685",
"PX c #91C888",
"IX c #ADC785",
"UX c #C3C480",
/* pixels */
"7 . O >.] $.r.r.y.4.E I I Q I E 6.-.nXV.I.fXb.I.lXN.l.l.cXkXV.U.c.n.b.vXx.x.bX#.Y .Xb j . X $.r.r.y.w.[ vXFXc.hX^ <X, C N r h k ",
"f .   o o { =.w.r.r.7.e.e.8.q.=.| bXm.M.N.c.v.c.n.Y.R.ZXjXMXgXxXFXGXx.n.vXc.B.jX6.2X< k + :.r.9.W ~ E q.BXz.c.cX..aX2 t u 8 6 8 ",
"f 8 X $ o o { $.2.r.r.w.w.1.o y D.dXN.B.I.m.zXP.!.PXa $ *.8.~ >Xa.d./.Q.c.N.B.c.hX+.OXB . { e.R H J H I o.hXDXx.kXp.l p d $   X ",
"h f .     o $ ] { ,.,.]   6 AXz.b.R.h.DXcXFXeX+XM q ] r.! J <X{.2 l i a SXR.v.c.DXn.K.v 8 1.6.I J -XqX-X~ | v.c.lX4XM u X $ O o ",
"j u 8 . & $ $ $ o   $ + 0 AXB.C.b.kXDXkX#.8X`.C r $ =.E G 7X{.2 N 0 . . { } 5 fXV.dXR.F.0 =.8.F -XpX.XyX<X) bXb.zX^.n 0   ,.$.$.",
"p u 0 d + .   X   + 8 h H.B.b.4 cXZ.hX%.Y s.c j + :.5._ =Xp.@XC u % :.u.8./ / O.b.dXcXI.e { ( J uX|.= ; _.a.+.x.lXT.x + >.2.r.r.",
"N t p u g 8 6 6 g f j #XY.n.k.b.b.VX&.W 1X{.V a + 1.9.L ;XoX#Xm g ] =.` P ;X1X4XeXDXZ.R.F.mX6.9XXX= 1 C v {.L.b.M.P.PXO 1.5.( ( ",
"A N p h u h h u p n #X/.R.N.C.V.C.0 O.H uX> C f & 1.e.H ,X}., Z 8 $ w.R =XpX`.@X: !.x.DXh.ZXO.;X`.c V SXm C &XzXx.DXCXo q.8.L I ",
"V Z A n j A i Z C , ^.U.n.b.c.m.u { ` ;X X> m p X { q.! =XyX> A 7 >.q.I 6X`.: B Z n CXj.kXcX%.:X{.M p 0 g u x T.N.cXZX>.5.I H G ",
"C B m V Z B V x #Xd.U.h.I.M.DXH.. q._ =XyX].V k 8 & 1.8.I qX}.z r O 5.I 2X{.C p + . + AXR.l.kXE.[.N 7 d   % 7 H.b.M.H.,.( F =X-X",
"3 v C V B v b > XX) N.x.Y.fXA.SXo 5.I =XaX* c m 7 mX>.q.8.W :XOXx f &./ :X@Xm 6 ] { 2.1.jXB.h...[.Z . o [ ] O y m.c.D.} ! =X2XpX",
"; : 1 1 1 > = }.wXDXlXI.N.Y.#Xu >.r.Q G 5X|.{.l B k 7 7 9 | DXS T.G.5 #.>X{.N 6 $.q./ E 7.fXkXHX!.j X $.=.w.2.+ G.kXc.JXI 2X.X}.",
"* - = * - _..X1X..zXU.z.gXK.c 8 ] w./ H =XuXXXOX@XS.J.m.b.DXc.v.c.c.R.5 ..8Xn + =.E J 0X=XD kXv.L.a $ w.8.` y.=.jXc.c.JXU iX].; ",
"* ].]._.`.iX6X_ gXb.Z.x...oXM f ] =.9.Q H =X;X>XrXP.m.k.fXb.M.kXP.b.n.kXW.+.S.0 =.L 1X.X{.5XY.x.R.CX] e.I L P E } M.kXxX>X`.: b ",
".X|.OX|.iX2XY O.vXR.cXcX) [.n 0 & $.r.6.! R 6...DXGXdXT.G.BX6.wX~.CXw hXj.z.v.e *.Y oX; PXc !.v.zXZX,./ K ;X-XG O.C.5 ;.,X@Xn Z ",
"sXiXuXuX,XJ / xXM.c.DXbX>X@XZ 7 $ X $.w.u.=.gXvXb.h.T.AX8 ( ,X, t + *.7.S kXU.v.nX! oXv B r M T.Z.C.&.~ qX7XiX2X! bXS R.8Xz A r ",
"aXuX1X:XK I q.hXDXvXM.@.-X- M p 8   X ] & y DXc.hX) $X0 ,._  Xx 0 $.! 1X[.+XT.n.b.o.OXp 6 % X CXb.c.NXY yX)._.`.a.HXx.fX8Xn 0 g ",
"-X-X=XJ G ( } C.lXc.k.@.6X{.v A h d + 0 CXC.c.l.FX4XPX0 1.I yXl g =.U oXi r 9 w N.fXd.UXO { 2.@ G.DXFX>X|.#Xl b [.E.Y.k.!.p 8   ",
"J H H H W q.0 m.b.b.hXo.:X|.: V N t j M A.vXI.MX^ p.v 7 } 4.:X+Xu 2.Y @XUX>.=.7.xXY.g.y { q.` 7.nXzXfXeX: M B n c ^.zXB./.k O { ",
"H H H _ 9.,.VXz.c.V.MX( =XyX- 3 M C c f.W.k.F.[ / ,X#Xm 6 } @.E.F.hX@.d.r $.! >XrXh.b.CX=.W P J @.C.M.rXz j 0 u i $XlXv.F.g >.w.",
"F L Q 8.=.% G.B.c.v.mX8.J 2X|.].- - f.S DXn.CX] 8.=X X&XH.j.v.zXcXx.lXB.AX*.;XOX, /.x.vX#.U <XyX>XkXY.T.M 0     g CXR.c.G.q 2.9.",
"I W ( r.,.0 Z.cXC.V.8 9.L qXyX.XoX5XeXGXlX^.x o *.W ! W.lXB.jXP.J.jXxXc.M.bXwX3 i y R.R.-.,X{.> OXW.Y.T.i @ { :.$ 7 /.V.vX[ 9.I ",
"` 5.r.=.+ CXz.kXc.G.8 w.I G :X6XqXY X.n.h.tXC . >.$.| zXN.w o.d.u *.8XS.cXcXrXSX+ { nXl.DX6X1 B x ~.V.T.a ] w.r.=.[ D.V.cX} / J ",
"e.5.w.:.6 AXR.c.c.H.@ w.! F H G H 6.hXc.xX,Xz p f e R.zXd.p 7.d.i 6.~.g &.zXm.w $.^ 6.bXh.d.m f f e M.U.9 2.( W 8.*.jXl.vX=.P -X",
"r.=.' $ u F.v.C.b.H.8 { e.! I I ( &.k.c.JX-X].b %Xv.k.FX,Xx 0 S G.;./.BX~ d.B.vXO.:X4XS V.F.r X $ 7 m.n.MXq.P G F 4.nXN.C.*.9XyX",
"w.$.] X p /.b.N.b.H.0 >.i.y.y.8.q.0 v.C.-.Y uX XL.R.ZX$.` K.P.b.j.bXU.hX^.SXw N.HXs., !.n.(.& =.5.} VXkXxX/ =X3X1XQ | N.vXD 3X).",
"{ o $ 6 M Q.vXM.B.F.u O { =.2.=.o w B.G.} ! U ~ FXzX$X0 q vXC.@.AXHXG.hX/.BX#.xXU.LXr i R.D.} 8.! 4.5 lXNXY 2X.X|.1X+.M.zXrXOX3 ",
"o X . r x L.k.M.cX!.UX+   ] ' >.0 J.k.GX@ =.6.-.vX+.5X%Xj.HX(.vX(.Y.bXE.m.xX:XL.n.AX@ <.VXB.%.P -XI -.v.xX,X].: ; oX) cXb.eX: B ",
"X & 6 j #XW.c.U.gXs.M 7 & & O . M z.kXG.0 ,.{ nXx.JXY E.R.9 HXbXG.GXvXZXnX..*XLXz.bX0.q.xXc.+.1X}. XD v.n.p.v m M , K.lXM.K.v j ",
"+ % r B @XW.c.R.zXd.2 p 7 7 0 r LXQ.cXA.t 6 7 AXv.0 ,.gXI.Q.k.z.c.cXY.bXL.Y.VX+ xXxXW ;X+.kXE.[.3 @XwXzXv.&Xn r h n !.lXkXA.N 6 ",
"8 f t M OXS c.b.DXrX+XC j p p B &Xn.x.K.2 p M A.v.CXa B.AXFXV.vXvXU.bXE.VXhXJX/ zXzXp.{.tX;.rXc t IX~.lXv.LXf % + h $Xv.c.J.0 O ",
"7 u B v  XW.c.x.x.D }.2 V m V c p.kXkX) OX@X{.W.Y.5X!.c.~.Y.vXC.zXC.M.hXFXzXP.d.K.S %XM J.c.A.k d g %Xn.W.i X o >.q CXn.R.CXX 1.",
"h A m : <X..zXn.vX^ <X* 1 3 1 `.,XDXzXHX,XuX:X..gX/ ^ hX%.vXhXI.x.U.B.m.C.(.G.a AXv.i 6 i Y.G.. ] [ y z.R.9 1.w.w.] SXY.x.VX,.r.",
"p Z l ; <X+.cXB.lX..>XiX].= _.yXY gXcXNXE G ! nXC.[ [ C.AXR.v.lXM.kXx.bXGXxXhX&.bXV.[ *.mXm.VX{ q.w.mXj.N.mXq.E ( =.9 z.M.MX*.` ",
"V V 3 _.2Xo.cXx.cXxX! 1XyX XiX1XW NXU.hX=.5.q.MXz.CXM T.S DXR.cXkXR.bXD.g.T.X.~ X.hX6.Q q.C.gX8.I Q &.C.fX&.! U P ( nXM.M.BX^ P ",
"V v ; }.:Xo.N.kXlXjX8.J 1X6X:XK 8.BXZ.l.mX{ ] e c.K.oXW.fXAXzXc.vXDXT.zX9 (.Q.@XY.S d.5XD cX..>X4X=X0.vXh.^ =X1XqXQ &.b.N.%.L 0X",
"b : * aX=X6.hXkXdXhX&.! F K F I 9.8 m.c.CXs 7 x P.FXD  .ZXS vXDXB.R.bXm.) bXy u m.T.#X#XwXkXW.}.'.yXD dXzXW pX`. X:X@.v.c.@.-X X",
"> = '.pX=X7.jXx.dXR.| q.! I Q ( $.MXR.R.F.M IX+XE.cXmX0 ~.zXF.FXGXl.DXMX(.zX@.} F.ZXr SXA.b./.%Xx @XrXcXzX5X].1 ;  Xo.U.cX)  X].",
"= ]..X2XK 7.jXM.v.v.9 $.q.8.9.5.,.0 F.B.S }.&Xp.) l.Q.J.d.| m.dXGXC.!.;.GXg.,X+.B.MX,.6 ZXN.H.u k M ^.lX..@XPXV c {.W.U.zXwX{.c ",
"_.|.yX1XL 7.MXb.N.n.CXq 3.i.r.$.O r (.Y.zXL.,X=XO.MXY.n.6.mX~.%.J.O.CXHXl.y %XW.hXO.( { vXm.SX. . h ~.m.L.x k r j PXK.c.vXd.M m ",
"|.yXuX;XT 7.[ m.zXj.B.i O o & o + k *XY.kXxX8./ =.7 ^.U.hXZXd.#.%X+.vXGXX.$.e Y.Y.4XU *.vXvX+ 2.$.d J.dX/.u d & f M ^.I.Y.#Xj 0 ",
"iXuX1XJ P 7.[ ZXx.cXY.LXu X   [ 7 n S.rXN.M.nX,.] h &XX.vXh.gXGXP.GXm.(.p.6.w n.~.: <X+.h.xX7./ q.] G.c.AXO ] ] O r /.h.I.PX6 + ",
"pX1X-XP I e.+ CXc.v.zX^.M r h 0 t B [.eXgXx.m.y SXn .X( 9 T.DXhXT.Y.| h $X6.x.vXSXp @XY.I...J U ! } G.kX9 2.r.w.{ 0 F.cX(.a   >.",
"2X-XJ P ! q.o SXT.fXdXW.!.l B A V 3 oX;X-.vXn.(.%X{.4X6.[ LXwX| i s.( [ $XzXB.nX] 6 CXv.FXwXaXaX=X#.C.k.| 6.! ( w.8 j.R.C.. 1.=.",
"=XJ H T ) r.$ u T.C.c.x.E.].c b < = yX=Xq.w h.n.S eXW 7.@ l ,X5.g $X) MXm.c.../ 7.[ ZXb.P.@X, ; 1X..V.vX6.Y G H 4.mXm.DXjX} e.8.",
"H H H I 8.u.o 0 %XY.M.x.HXwXp.)._..X2XP q.6 (.I.U.hX} d i $X:X*.a &X+.hXU.rXs.<X! $.D.v.J.B n v s.DXY.xX~ 1X1X-X! NXC.b.MX7.! I ",
"H H I E q.=.$ 6 z E.V.B.x.X.>XyXuX3X=XI 9.O M L.DXzXM.m./.L.+.MXH.+.N.k.e i x @X-X} (.b.u + 8 p &X..kXS s.OXOXyXU &.h.lXNX! F G ",
"H P ! 8.r.=.& 8 M ^.c.I.b.kX0.I U F H ^ r.O p +XE.xXm.zXv.kXhXB.h.n.HX%.#.X u z 8X;.lX9 ] { >.u ~.DXh.tX{.1 > `.-XJXl.R.O.U 2X2X",
"I / 8.q.w.,.O d p @XW.x.U.Y.jX#.( R ( e.$.. j , 4X6.MXF.I.kXfXcXD.A.4X;XW w.6 PXW.N.zX-.8.y.,.8 J.b.W.+Xm m A > <XFXx.fX) 7X}..X",
"( 9.e.r.2.:.O 8 m #XwXFXh.cXR.bX$.=.w.=.O . p 2 aXI ,.0 %Xd.6.#.d i PXoXG e.6 H.DXV.S Y G I q.8 G.z.g.n h BXt M <X..lXzX,X`.; ; ",
"5.r.r.w.{ ]   0 m b <XD k.n.n.l.VXq   O % f B :  XY e.[ u $X,X~ =.6 t @X:Xq.y T.v.S 5X XuXJ 8.MXB.c.AX8 @ O f N f.kXlXU.s.c M M ",
"u.r.w.{ o $ . f B z }.~ FXl.lXc.R.AXa h u m v ].2XF 7.o h x }.J 9.$ h : :X| vXB.P.+XLX1 `.6X6.5 x.R.7 $ ] >.. SXS.vXY.K.2 A j A ",
"=.=.{ o O & . r Z v '.1Xo.bXR.kXk.I.A.#Xx 1 {.XX9XQ q.O 0 v }.U q.] p [.D jXx.C.AXr k C : p.D gXc.jX{ q.t.r.X f A.c.HX!.m r 7 0 ",
"] o $   $ $ 8 u Z l _.2XQ #.5 C.B.zXcXP.8X<X4X9XY 8.=.@ j 2 aXT 5.6 < rXDXn.R.MXq X + p x p.o.cXlXNX8._ ! 4.1.0 (.lXz.PXg   <.% ",
"& & $ o O 8 0 p m b - 2XJ 9.8 ZXh.n.B.N.zX..o.4.q.&.o u M }.4X8.+ CXT.b.kXkX&.*.r.=.>.6 IXs.lXc.gX) P J H ! q.0 C.V.j.r X o ]   ",
"o X $ + 8 7 r Z V %X* iX=X! =.q H.b.I.x.DXn.hXjX9 9 i %Xd.eX;.nXD.v.I.U.kXD ~ F Q 7.1.+ l Q.x.U.+.-XuX2X:XF 7.mXg.h.ZX[ $.w.w.' ",
"8 8 d g 0 u N Z V > ].iX=XP q.{ r J.T.b.c.z.U.lXY.m.x.S v.zXB.c.c.M.cXT.f. X X1XJ ! =.+ CXP.M.DX>X|.). XyX=X6.9 x.kXjX$.e.8.e.q.",
"k u a u j N m n b = '.iX0XP 6.$.@ p +X) GXk.vXk.v.l.N.b.x.n.b.x.GXG.D.IXM x : .X1XI q.6 (.V.l.K.@Xc b > '.1X6.gXc.N.} 0.Q Q ! 9.",
"A B j A m Z B C > * |.uX9XH ( w.o 7 M @XK.O.xXl.V.z.B.lXkXzXFXxXnX[ + + h j l ; <XL *.9 v.lXv.H.n m m x ; 2X6.l.n.jX*.I K H H Q ",
"c M C V m V c 1 = _.iX7XJ H E u.,.. p c `.-X/ $.7 e ZX~.^.wXeXW / 9.=.] # 7 Z , aXY &.D.zXR.F.N d 0 p Z < <X+.N.Y.gXW 9XqX1X=XL ",
"'.> : < z 1 ; = _..XpX1XG L / r.' o 0 t #X X-XW 5.{ 8 a x , |.uX=XI 8.=.] [ t , p.( NXm.x.D.e + o $ 6 p x p...b.b...0XiX X.X7X=X",
"6X|._.- * * * * .XiX7X=XF P ( r.,.  7 N x ).sXG ! 5.] . f V 2 ).pXJ I e.3.+ t 1 6XX.lXN.k.7 ,.:.1.$ & g x d...b.zXeXyX).]._..X1X",
"/ :X2XyX.X.XoXiXiX2X-XH H I 9.w.] X 6 t C ; .X-XP 4.=.<.. k n > .X1XH 8. .+ N +XE.k.b.DXjX1.e.9.r.=.O d M ^.kXGXzXd.> 2 3 : _.yX",
"gXo.~ ;X2X2X2X<X1X-XK T P ` r.=.] & 8 p m > }.2XH _ q.,.@ f j 3 '.7XF 8.$.s B d.X.j.b.hX7.E I I ( t.{ + x Q.kXkXK.@XC V A n : oX"
};
