/* XPM */
static char *_621417652890[] = {
/* columns rows colors chars-per-pixel */
"64 64 256 2 ",
"   c #1C7075",
".  c #286977",
"X  c #376B7B",
"o  c #277777",
"O  c #367878",
"+  c #2F6D6B",
"@  c #2D686A",
"#  c #466776",
"$  c #586976",
"%  c #477578",
"&  c #577779",
"*  c #4D706B",
"=  c #686A77",
"-  c #79697A",
";  c #687879",
":  c #78777A",
">  c #6E706B",
",  c #505B79",
"<  c #915D7B",
"1  c #886877",
"2  c #986975",
"3  c #977678",
"4  c #8D726E",
"5  c #A76E79",
"6  c #268678",
"7  c #398777",
"8  c #39987A",
"9  c #2D8F73",
"0  c #1BAC76",
"q  c #28A779",
"w  c #37AD78",
"e  c #33B978",
"r  c #1D9B78",
"t  c #468579",
"y  c #578679",
"u  c #489879",
"i  c #58987B",
"p  c #548E6B",
"a  c #668778",
"s  c #77897A",
"d  c #69967A",
"f  c #739274",
"g  c #4AA778",
"h  c #57A577",
"j  c #5AB779",
"k  c #4BB371",
"l  c #68A877",
"z  c #77A678",
"x  c #79B678",
"c  c #6CB072",
"v  c #45A75C",
"b  c #36C878",
"n  c #47C376",
"m  c #6DC374",
"M  c #88867A",
"N  c #97877B",
"B  c #8B9778",
"V  c #919371",
"C  c #A9967A",
"Z  c #8DAF78",
"A  c #A8A879",
"S  c #ABB478",
"D  c #93C479",
"F  c #1C7495",
"G  c #2B6A86",
"H  c #396A88",
"J  c #287988",
"K  c #387786",
"L  c #386C9A",
"P  c #297697",
"I  c #397A96",
"U  c #276B99",
"Y  c #1D71A5",
"T  c #386AA9",
"R  c #3676A5",
"E  c #396BB6",
"W  c #2A73B1",
"Q  c #476A88",
"!  c #566A88",
"~  c #477A89",
"^  c #587989",
"/  c #576A97",
"(  c #497796",
")  c #587797",
"_  c #4B6D98",
"`  c #686987",
"'  c #776989",
"]  c #687788",
"[  c #787888",
"{  c #686897",
"}  c #786998",
"|  c #677997",
" . c #767997",
".. c #586AA4",
"X. c #4775A8",
"o. c #5777A7",
"O. c #566BB7",
"+. c #4979B4",
"@. c #5777B4",
"#. c #4869B5",
"$. c #6769A7",
"%. c #7869A9",
"&. c #6976A7",
"*. c #7778A7",
"=. c #676BB9",
"-. c #786AB7",
";. c #6775B5",
":. c #7677B5",
">. c #5F5EAB",
",. c #2F71C5",
"<. c #3A5DC1",
"1. c #506FC4",
"2. c #706DC5",
"3. c #5C5FC2",
"4. c #867788",
"5. c #967A88",
"6. c #876B97",
"7. c #897599",
"8. c #997799",
"9. c #91698A",
"0. c #A6778A",
"q. c #A47998",
"w. c #AC6D8E",
"e. c #876AA7",
"r. c #9769A6",
"t. c #887AA8",
"y. c #987AA5",
"u. c #886AB7",
"i. c #9072B7",
"p. c #A774AC",
"a. c #895EA5",
"s. c #9370C4",
"d. c #A578CA",
"f. c #198D93",
"g. c #298785",
"h. c #398788",
"j. c #289889",
"k. c #369688",
"l. c #2B8896",
"z. c #388797",
"x. c #279798",
"c. c #369998",
"v. c #1CA58D",
"b. c #38A787",
"n. c #37A799",
"m. c #2FB08C",
"M. c #368AA5",
"N. c #3896A7",
"B. c #2A93B7",
"V. c #2F8EB1",
"C. c #29A5A6",
"Z. c #31B1AF",
"A. c #1C97AE",
"S. c #488888",
"D. c #588688",
"F. c #489588",
"G. c #599888",
"H. c #488898",
"J. c #598896",
"K. c #489596",
"L. c #579797",
"P. c #668888",
"I. c #788687",
"U. c #669689",
"Y. c #77978A",
"T. c #688998",
"R. c #768697",
"E. c #699598",
"W. c #769799",
"Q. c #48A789",
"!. c #57A886",
"~. c #58B887",
"^. c #4AA996",
"/. c #57A798",
"(. c #4BB897",
"). c #59B897",
"_. c #47B989",
"`. c #68A887",
"'. c #79A685",
"]. c #68B789",
"[. c #76B689",
"{. c #67A798",
"}. c #77A896",
"|. c #71B798",
" X c #4987A6",
".X c #5987A8",
"XX c #4898A9",
"oX c #5B98A7",
"OX c #4F8DB8",
"+X c #6787A5",
"@X c #7888A5",
"#X c #6898A6",
"$X c #7996A8",
"%X c #6888B4",
"&X c #7787B6",
"*X c #6797B7",
"=X c #7797B5",
"-X c #57A4A4",
";X c #59A7B5",
":X c #4EB1AD",
">X c #66A8A7",
",X c #77A4A8",
"<X c #79A7B4",
"1X c #6FB4B1",
"2X c #2CC6AE",
"3X c #2EC68E",
"4X c #4EC392",
"5X c #6EC391",
"6X c #53C5B3",
"7X c #6DC3B1",
"8X c #3190C4",
"9X c #2DAFC6",
"0X c #1988C5",
"qX c #4C92C4",
"wX c #7092C6",
"eX c #4FAFC5",
"rX c #6EB4C9",
"tX c #3AC1C4",
"yX c #55C4C9",
"uX c #878689",
"iX c #978689",
"pX c #889888",
"aX c #979887",
"sX c #868997",
"dX c #978796",
"fX c #999898",
"gX c #86989A",
"hX c #A78789",
"jX c #A68797",
"kX c #A99490",
"lX c #8FAD8D",
"zX c #A9AA89",
"xX c #8888A7",
"cX c #9788A4",
"vX c #8596A7",
"bX c #9897A8",
"nX c #988AB5",
"mX c #9799B8",
"MX c #8791B5",
"NX c #A689A4",
"BX c #A795A9",
"VX c #A88FB8",
"CX c #85A7B7",
"ZX c #98A6BA",
"AX c #87B6B5",
"SX c #91B2AB",
"DX c #A6B4B7",
"FX c #AAADB1",
"GX c #C192A3",
"HX c #8EC5A2",
"JX c #968AC7",
"KX c #A891C6",
"LX c #8FB4C8",
"PX c #ABB4C7",
"IX c #91C3CD",
"UX c #A5C2C5",
/* pixels */
"m Z pX; > $ % w (.k.1.1./.& =X[ dXBX5 A f X o = a B L.v.v.B.U 7 g.C.A.8X2.6.$ s.1.P R Y P eXL b.e 6 + . = - iXj.Z.yXIXFXzXuX` # ",
"3X[.C N < 2 2 s 5X$X2.2.lXV iXdXjXNXbXs j 9   4 { : s ~ o G   g.o x.6X{.i.{ ` u.2.#.<.W V.A.P g.e q * - { 7.[ o c.1XrXPXFXzX: = ",
"3Xj C iX$.} 0.cXzXPXKXu.kXA 5 VXhXuXMXJ.8 q 7 4 { { 4 - # * O K.t % x lXpX& & 6.i.;.1.XXh.V.E c.b lXR.R._ < # . P .X*XLXUXFXdX} ",
"2Xn.f 5.{ E E %XLXLXKXp.jXzXN nX4.E.J.V.Y x.).pX&./ 6.9.1 > P.#XY.1 V S j !.7 iXw.gX1XP.U.OX1.&XSXHX$X X*.1 * . G L ..@XbXDXPXy.",
"2Xv.F.3 3 ! T  X9X6X=X-.} z l ] E.XXh.l.B.W <XDX<XH.X.r.w.5 fXbXbX5 3 f k 7Xe c A S A V zX8.s.d.LX1X).#XBX[ *       X $ : vXPXjX",
"2XC.h.; 4 9./ .X,X4Xc.I X t g K B.z.g.J N. Xi.KXrX).C.wXfXSXDXy.FX5.' J oX1Xe n x B iXhXzX0.r.-.H.-X6X7XFXpXi k.9 0 j.X Q XXIXBX",
"A.v.7 ; 2 5 { E {.D G.K + o q l.W l.7 H.J.}.w.r. X).4X:X:XyXCX .=X.XW T +X@XH.j.^ $ MX[ c d Q X ; D.n.rXDXFXSX}.K.m.j.J J C.;X%X",
"C.f.6 $ 1 w.8.OXA.HX`.> > % w n.W ;X7 R.7.N zX: Q y z (.Z.Z. Xt z.9X,.2.{ u.;.Y F M.OX% k r o = ' % z.&XFXKXKXR.&.,Xy # t 4XN.#.",
"J J X $ 1 w.y.%XZ.6Xl a } 3 '.}.2.W.M nXhXjXV h o * ' s K.6   6 o m.;XcX! } 2.1.,.x.8XF m.3XuX} 1 # H Q *.6.kXq.PXfX4 5 N Z [.& ",
"  . X * 4 w.NX1XtX2Xh : / { vXPXJXp.C jXdXcX.XXXb.> { ' > $ H S.S.Y.lXpXp ; dX@X/.7 OX1.=XHX{.+X] G   % ~ Y.uXt.AXmX} ` ^ |.].d ",
"g.o * a M hXSX1X6Xv.b.3 } O.oXrXwX' A 4.@XJ.z.W z.SX+X( w.< 4.gXuX2 Z c [.h zXzXaXf 7.s.nX>X6X1XB u q j.r F.% z.eX8X8X#.*.+Xm.k ",
"j.n.{.SXFXDXIXrXZ.A.l.4 < &.c.:XXX# u F.N.S.k.x.@.ZX1XoX%Xy.fXFXBX4.^ F.1X_.[.V 8.A hX' ) J.Q.IXHX>X/.z.k.o G c.4X$X*.{ %.qXf.x.",
"+ J.E.7.p.VXxX*Xl.F X > 2 6.XX5Xd % 7 q Y x.h.J.gXt.*X{.Z.;X7XxXMXOXU @.:.M.J ^ &.l p % $ ] ( JXKXnXxX@X}.> 1 f lXj p 7.r.2.O.O.",
"t $ sXFXBXcXR.O o G # = 5 cX9X4Xd - = /.X.W. .R.hXaX% p Y.n.N.z.l.C..X} %...W V.R j.w U.' # G ` 9.q.y.KXBX5.- f ).4Xh uXq.8.q.6.",
"f 3 2 0.ZX$Xh.S.g.g.% : 0.bXeXZ.`.' } SXZXcXiXkXdXf 9 = ` P.+ K O /.SXa ] 7.*XH.OX@.1XAX$Xt 6 7 G.s | rXeX#...;.L.m.k D z l i /.",
"S C 5 9.&.eXZ.P 6 u W.FXFXIX6XC.^ 4 o.;XwXe.aX[ T. Xx.gX) 4.4 sXdX4 Z ~.h zXZ aXcXr.*X:XFX].m.k.f.O 6 n./.&.{ -.X.f.r b.b.oXU.E.",
"S Z s ` T 0X9Xx.O t bXp.mXCXXXf.# 4 *.oX^.O u H.g.z.) mX:XoXxXFXnXxXI E.n.d I.N B $ $ J.KXnX*..Xh > : z 5Xd iX-.3.O...u. .^ @X-X",
"n e h.I Y ,.N.4Xf 4 0.BXR.| G . # 4 t.:X[.$ S.M. XJ.dXxXS.{.Z.;X% N.;.$.O.U XXI w S.{ . ) iXdXZXZX7.' L._.c zXhXdX .P.G.#XJ./.v ",
"m (.K.X.1.2.MXlXS 5 w.$X;Xg.J H.: aXMXZ.U.= R.ZXgXuXhXU.7 : a O h.u '.D.y.oXh.@.1X>XY.8 k.a ; wXeX( $.O.g.k j j `./.G.P. ..X_.z ",
"HX1X$Xt.%.7.uXlXD d ! T 9XC.9 D.mXFXAX:XJ.4. X=X4.sX| H.L.*.' [ W.5.Y.`.Z pXBX6. .}.SXL.M.H.+ L.lXG.%.O.Y I o.] | I.L.6.&.v.].M ",
"e ).MX*.! $ & g k j.J E ,.).f - kXvX^ F X 1 J.).% k.z.h.=X=X).<XvXwXT .Xh.T.l t ! / p.cXMXvX> uX_.x fXcX*.| E.R.J.!.sXu.P w j d ",
"b m.XXs.u.' y L.7X<X:.-.nXlXS 5.4.*Xl.g.a N CX^.; vXT.uXuX& D.y O F.$X} +X Xh.1XG.9 ^ P.=X;X) o.P l c `.U.G.I.X.g z y.3.F v._.k ",
"n r Y ,.2.p.uXw _.*X$.` $ p j D._ 8Xc.S.cXZXrXg.' *X] gXL.h.MX] uXuX}.`.pXdXi.J.ZX-XXX* y ].R.=.#.^ J./ E.@X{ I m zX8.2.;.>X).c ",
"`.7 U E -.8.C m e M.:.6.^ ].|.oX1.2.lXV 5.$XK % [ {.P.z.~ sXT.-X*XoX^ (  Xd D.O 4.7.CX| ) h A lXY.y R.S.[.R.T x.j Y.: } ..D.x lX",
"a U Y E %XgXS Z u P #.s.sXj _.#X) [ z d X.8Xg.R.ZX;X] W.sXsXJ.P.& d '.W.$XR.,XE.H.O {.U...R D.y P.E.) G.Z 7.1. X_.].R.#...4 M Q.",
"X.W 0XXX>XzXA V K U W o.A D G.U -.[ ).{.%.@XZ iXT.O ] -XP.) R.T.$XT.^ J.D.D.& R.CX; o.|.gXU.| .X'.&.J G.lX[ -.) '.[.Z. X5.1 H J ",
"oXC.x.h.& iXdX*. XV.OX{.A V ( W ;.aXj c.$.a ].L XXf mX.X; oXP.J.&.T.E.W.| vX#XS.G.z ..^ | a +Xt B MXO.g j #X_ 1 : c.yXDXfX^ . o ",
"T W W #XZ A N ] V.l.F.R.q.I.I V.L.A B T ;.Y./.&.E.f .XD.,XD.@XR.P.y E.P.U.D.D.vX( E.#XD.D.lXE K.|.) / M /.eXcX: . O &XnX}.b.k.i ",
"r f.#.s.q.kXZ g P E ;.aXC T.R N.gX4 *.P Y.zXt =.Y.E.D.I.T.T.U.) D.W.P.P.E.) E.P.I.R.G.J.D.'.&.; '.#XI.Q T mXSXF.j.[ jXsXo.x.8 y ",
"m.:X&Xd.r.] u 0 n.;.u.dXz u z.O.aXlXI V.W.3  XK.pXL }.D.W.| P.R. ...o..XJ.D.T.J.E.] W.T.D./.dX! h.mXvXr f NX+XM.8 s y.i.).w X X.",
"n 7XFXs./ G O !.|.FXt.Q 6 b.1Xs.! u /.:.M `.+.sXd .XpXo.d ] E.( T %X$.=.%XJ.D.E.H.T.y =X^ J.$Xk.W.5..Xk.I.y.#Xq g.` nXZX].+ . Q ",
"pXHXrX X% = ' W.rX1X~ $ ] ,X1XU.$ ] 1X#XQ G.vX^ U.+Xd +XU.T.S.o.&...@.@.o..XT.E.y vXy R.K.4.+X8 [ nXQ.6 e.VX|.t + _ JXUXZ ^ H   ",
"OX1X].l ] 6.[ R.:X-XS.= ' vX1XL.% & AX+X# G.CX! `.+XT.R.=Xy .Xo.$.;.$.@...+XT.T.D.>X! <Xt  .SX~ ^ AXW.~ Q <XAXI.$ # ^.yXbX4.' ` ",
"T.:X6XZ.X + & sXDXLX%X. @ `.PXt.# 9 SXp.( G.xXG.F.R.S.[ E.J.) .Xo.o.;.@.o..XD.P.[ #X^ ,X] T.).^ ! :X}.' & K.1XT.} ; !.:X#X| = ] ",
"dXSXIXwXX.G @ G.HXFXu.! 8 n.wXq.U.v.+XNXu H.dX^ #XP.^ E.t D.) T...o...../ .XE.D.vXD.Y.I pXo.G.I.%.,Xu + *.mX1Xu . / MXDX[.p X , ",
"I.zXDXnX$.X   k <Xi.7.i j.S.dXdXS.h.MXR.o uX1XJ.| E.D.E.D.T.L.T..X( ) ) ) T.P.E.^ Y.+XT.pXOXD.zXwXl.u zXt.+.b.k s r.i.#Xe 0 S.6.",
"G.lXDXd.` 9 v.N.t.jXaXF.x.E.mX&.H & fX;Xd { .Xl _ R.^ E.U.^ T.D.^ J.J.^ ^ ] E.T.T.'.X.!.R.H I.pXz.OX8.C L.W H B A xX1.W k.l B kX",
"g CXnX7.Y.7 J .X$Xy.`   % pXSX:XD.> @.d j X.&.Z ) L.^ ~ T.J.J.E.D.P.E.^ ^ T.T.E.sXG.) '.|  Xx vXP Q pXZ -X8XoXdXdXY.c.W R I.C A ",
"Q.*.p.aXd h.F.h FXLX;Xh.1 '  X|.j %X..bX[.J gXy P.~ $XE.^ uXJ.~ T.T.J.T.T.^ P.$X~ E.nXd X.U.].' ;./.Z sXE U ; aXaXG.x.V.+XjXhXuX",
" X&XnX8._ H @ 1 cXZ.:Xz ; ..*.P.].K +.Y.f &.T.W.}.L.$ <XR.y P.#X^ J.J.J.W.T.P.J.E.$X* ~ =XI.gX .+X).U.t.@.I l S gXOXW T ; N zX[.",
">XlXDXrXZ.8 4 9./ OXW.n -X2.%.dXZ ( &.i D.) ) +.R.}.& S..XSXJ.uXpX/.Y.sX| T.J.uX$X| K.<XBX] n.W H.j y / :.K.k pXy.O.Y g.l S zX#X",
"> 5 xXeX:X|.Y.) ..' d j w Y =.gXg J.T.U.}.lXl ( / <XvXM O J.-XI ( ` .XH.L.S.M E.E.& {.@X] o D.MX2 zXY.&.&X|.4XD.e.-.X.j.k zXkXe.",
": 9.>.W Y.x 4X@X-.u.kXZ F.L  .l L.P.| $.&.uXl }.= U.@.dXT./ Y.iXW./.] jXcXT.=XS.D.] >X) = x.$XbXI.8 qXW G u ~.D.$ %.&X).e h uXr.",
"V ( ..{ D.k 3Xg.E =.hXc K.&.E.T.L.U.G.S.P $..X:X_ G.j.g AXCXJ.y uXU.[.7 O G.# U.sXdXMX| P.6XCXiXL.  XX*X: C Z fX%.e.xX1X).G.; 9.",
"!..X:.%.4.B n j.E e.gXg | R.U.R.sXaXlX~.L.} 6.AXjXdX} , ^ G.K X.X...X..X=X-X{.t.Y.h.h.t J.-X5.= + K T.BX0.4 [.L.1.T z.b._.i & ! ",
"~.oX&.e.w.lXk  X%. .U.T.&.+X/ R E } 5.`.[.a % F.H.vXZXS.{ fXN aXj {.4.dXbX7.T.CXl.~ P.P..X;X` ; l.eXZXNXvX# j.9X,.L ^ c D f 6.%.",
"b j.W e.q.l q &.I.G.G.!.Q.!.k k.R ;.;.XX:Xh.F.t r u ,X7X&XT.S.vXI.U.[.t h.% ] & K.uXdXpXxXZX] s 2XeXbXaXL.k.o Z.eX} 2 C S lX*.%.",
"j J 3.i.z ^.+XE.U.E.R.uXB aXlXk L.o.` sXLX8.cX[ Q %  .U.b.V.V.E { *.OXM.S.n./.P.& kXuXT.H.E.` P.).&X0.> X   ~ | ZXjX5.4 x ;XqXW ",
"x.;.} a {.P.` | &.%.-.=.-.8.s j Z V - a vX*.t.VX:.~ Q & c y.; 8 +XOXL gXBXCXoX>XCX&XH.l.B.8 O % c  X9.- K l.%X@X0.BXsX$ S.Z.C.0X",
"$X{ T.|./.{.>X(.k.k.l.T 2.%.[ }.6Xj.  9 x.K.).SXAXu @X6.fX3 S x ].h uXdXfXI.9.^ gX*XP H.R.I.I.&XeXOX} > h.Z.yXPXPX,XL.~   x.9XqX",
"P.! ! D.F.D.i h j n q z.*.>.X.8XeX*X^ F.k.8 7 Y.,X7XMX2.K.E.vXdXu Z pX& K.X ' - ' t 8 @XiXhXfXi.PXT.{ [ b.2XrXBXiXa K.k.o g.;XrX",
"{.J.{ } r.r.8.w.B j 4X(.J.! } y.SXnXiXiX' # @ `  .{.Q.U x.V.<.:.! *.:Xj.J I C.!.a X d B iXsXY.&.>Xs 9.I.].Z.#Xw.2 > @   O ~ R.MX",
"AXAX=Xs.2.2.u.p.4.y Q.5XB 3 4 N SXt.8.p.JXo.K = ~ 7 k S.OXL R &.*.#.,.;X! <X:XZ.).L.%.jXpXH.g.N.l.q * ] x :X+X0.- ! G P H.o.7.q.",
"w 3Xm.v.M.OX-.u.` I.'.lXl % + k.XX+.#XAXZX<XL.& ! : zXjX5.'.g Q.$XI ` MXNXDXBX$X;X^.PX@XOXJ l.V.z.u . z._.^.( 9.1 % g.C.eXrXPXFX",
"f v b 3Xj.H.JX{ } ;.V.9XZ.J J g.6 m.w l HX7X-X=Xs.9.aX5.C S x k (.z 3 0.bXgX1 w.` OXCXE.Y N.H.I.R.Z 4.e.rX:X+.} 2 & v.2XyXLXFXFX",
"iXV k k _.>X%X&.T T qXrX;X~ P.p u o   ] sX#XHXAX2.O.>XG.{.dXN L.h Z Z ; S.y * - 9.! : F.b.~ @XiXNXN hXi.FX<X-._ 3 P.n.tX1XZXjXN ",
"q.3 p Q.7X|.G.S.= } dXPXVXiXaX ./ Q G H ' R.U._.l.Y N.V.1.=.r.$ : gX).k.6 J G 6 a  .- + u z 8.jXjXM gX-.$XSXuX9./ uXm.2XeXVX5 3 ",
"r.4.p u ~.c z C 5 5 iXZXJXy.p.p.MXo.X = ' $ 7 e k.I  XY Y #.-./ -. XB.N.~ O c.C.n.`.a K Q N zXuXsXD.L.OX X!.y = > i ].Z.eX8.w.1 ",
"r.! * I.lXzXZ s $ $ f {./ &XfXPXDXLX8 P.X # * d '.T.[ ( P z.MX&.2.W W eX+XR.rXyXtX4X[.b.&.r.fXd D.z.g.8XF q 9 @ & d Z 6X8X6.w.2 ",
"} } e.MX-X4Xm.z.H   r m.n.).].SXDXrX).L. X%.8.zXC 5.N z j e >X#Xz.Q | CXnXVXDXCX<XB.{.4XLXd.2.oXg.l.6 B.W b.q X G k.5XlXM.-.2 4 ",
"=.>.<.,.V.Z.2Xx.. . b.v.v.6 t a fX:X4X1XJXd.r.lXM kXzXS x b 5X4Xg 4.2 hXBXBXkXhX0.-.H.XXLXDX@.0XV.l.S.S.*X& c [ / .XeX(.J.X.} 5 ",
"I L W ,.OX9XtXOX( Q % + . . X > 7..X,XHXZX2.O.E.i pXgXfXN u -Xg m A 2 4.$X}.: - < 0./ @.t.[.Q.F V.L.J.I.bX4.S 0.p.JXrX1XN.T >.5 ",
"5.4.} *.&X<XrXLX .' ' / _ U X > { } sX_.m.M.W c.XX X%Xi.w.` | a S lXd $ F.F.# Q = : 9./ 4.; m.q ~ R.xXiXdXjXC kXr.d.PXDXxXO.H 9.",
"N 5 5 w.w.NXFXUXS jXJXnX=Xz.K - ' * 7 r e F 0Xx.0X,.<.2.r.$ ; uXfX4X!.. g.6 @ O O > 3 { - $ o w z  .VXhXkXbX4 lX2.:.CX[.jX9.1 =."
};
