/* XPM */
static char *_621417685982[] = {
/* columns rows colors chars-per-pixel */
"64 64 256 2 ",
"   c #185E7A",
".  c #3A5E75",
"X  c #176877",
"o  c #1C7777",
"O  c #16716C",
"+  c #276877",
"@  c #386877",
"#  c #267875",
"$  c #39787B",
"%  c #2E706B",
"&  c #5A686C",
"*  c #467B6A",
"=  c #476979",
"-  c #576777",
";  c #47777A",
":  c #59767A",
">  c #4A726B",
",  c #676669",
"<  c #74686B",
"1  c #776679",
"2  c #67787A",
"3  c #777978",
"4  c #6E6E70",
"5  c #6D5F73",
"6  c #925B74",
"7  c #856979",
"8  c #976678",
"9  c #867A79",
"0  c #967776",
"q  c #8B6D6A",
"w  c #A67174",
"e  c #A15C6E",
"r  c #198678",
"t  c #1A9576",
"y  c #168C6D",
"u  c #29986B",
"i  c #268778",
"p  c #3A8679",
"a  c #279777",
"s  c #389679",
"d  c #308B6A",
"f  c #17A87A",
"g  c #15AF7B",
"h  c #25A769",
"j  c #27A676",
"k  c #37A677",
"l  c #26B378",
"z  c #3AAD73",
"x  c #388B5F",
"c  c #478979",
"v  c #578879",
"b  c #479778",
"n  c #589779",
"m  c #4E8E6D",
"M  c #658678",
"N  c #77887A",
"B  c #68967A",
"V  c #779778",
"C  c #748D6A",
"Z  c #48A77C",
"A  c #58A87C",
"S  c #56AE73",
"D  c #6BA77A",
"F  c #77A679",
"G  c #6FAD73",
"H  c #6A935C",
"J  c #5DC36A",
"K  c #6BC26E",
"L  c #878A78",
"P  c #988877",
"I  c #87967A",
"U  c #999878",
"Y  c #8F926C",
"T  c #A99878",
"R  c #98AA7B",
"E  c #8EB175",
"W  c #ADA77D",
"Q  c #91C177",
"!  c #176986",
"~  c #177688",
"^  c #1A6B98",
"/  c #187997",
"(  c #0D718E",
")  c #286687",
"_  c #386888",
"`  c #257787",
"'  c #3D7D83",
"]  c #397887",
"[  c #256897",
"{  c #386898",
"}  c #287599",
"|  c #387797",
" . c #2E5BAD",
".. c #1C6AAC",
"X. c #1975A7",
"o. c #1879B6",
"O. c #0F6FB1",
"+. c #2768A9",
"@. c #3768A7",
"#. c #2877A8",
"$. c #3676A9",
"%. c #2766B5",
"&. c #306FB8",
"*. c #285E9E",
"=. c #4B5E8F",
"-. c #745E9A",
";. c #476986",
":. c #596A89",
">. c #447483",
",. c #4C7484",
"<. c #437B83",
"1. c #4B7A84",
"2. c #437C8A",
"3. c #4C7B8B",
"4. c #4A758B",
"5. c #527485",
"6. c #537B84",
"7. c #5C7B84",
"8. c #527589",
"9. c #5B758A",
"0. c #547B8B",
"q. c #5B7C8C",
"w. c #5A7482",
"e. c #47679B",
"r. c #5A6795",
"t. c #487998",
"y. c #547D93",
"u. c #597897",
"i. c #676888",
"p. c #766887",
"a. c #677987",
"s. c #767887",
"d. c #686897",
"f. c #796999",
"g. c #677998",
"h. c #787796",
"j. c #565EAC",
"k. c #695BB1",
"l. c #5A65A7",
"z. c #4A78A7",
"x. c #5779A7",
"c. c #4A69B7",
"v. c #5668B4",
"b. c #5976B5",
"n. c #486FAD",
"m. c #6766A6",
"M. c #786AA6",
"N. c #6677A8",
"B. c #7975A7",
"V. c #7A75B5",
"C. c #6F6CB6",
"Z. c #176CC6",
"A. c #2F6DC2",
"S. c #5466C8",
"D. c #6C6CC3",
"F. c #5D5FC3",
"G. c #8D5E8B",
"H. c #896988",
"J. c #986887",
"K. c #887888",
"L. c #977589",
"P. c #876A97",
"I. c #966896",
"U. c #867898",
"Y. c #977797",
"T. c #AE758A",
"R. c #925EAB",
"E. c #8969A8",
"W. c #9666A8",
"Q. c #8876A5",
"!. c #8776B7",
"~. c #9470B3",
"^. c #AC71A9",
"/. c #A65C99",
"(. c #8C70C4",
"). c #188687",
"_. c #169887",
"`. c #168796",
"'. c #18999A",
"]. c #0C9190",
"[. c #298988",
"{. c #3B8787",
"}. c #299788",
"|. c #399787",
" X c #398795",
".X c #379695",
"XX c #248B98",
"oX c #19A986",
"OX c #18B484",
"+X c #17AE91",
"@X c #39A689",
"#X c #2BA897",
"$X c #30AA92",
"%X c #1687A8",
"&X c #1792AF",
"*X c #2E8EAD",
"=X c #17A8AC",
"-X c #29A9AA",
";X c #448384",
":X c #4B8485",
">X c #448B85",
",X c #43848B",
"<X c #448C8B",
"1X c #4B8889",
"2X c #578688",
"3X c #489788",
"4X c #589688",
"5X c #478795",
"6X c #588697",
"7X c #489797",
"8X c #579696",
"9X c #678888",
"0X c #778787",
"qX c #689789",
"wX c #779785",
"eX c #678797",
"rX c #768698",
"tX c #669596",
"yX c #769694",
"uX c #4BA684",
"iX c #5BA585",
"pX c #54AD91",
"aX c #68A889",
"sX c #78A788",
"dX c #6CAF8E",
"fX c #4784A7",
"gX c #5785A4",
"hX c #5799A7",
"jX c #4B94A8",
"kX c #6884A5",
"lX c #7885A6",
"zX c #6795A7",
"xX c #7597A7",
"cX c #6C8BB5",
"vX c #44A4A9",
"bX c #35C582",
"nX c #6BC88D",
"mX c #1B87C4",
"MX c #7781C6",
"NX c #868787",
"BX c #968986",
"VX c #869786",
"CX c #999A87",
"ZX c #888697",
"AX c #8E9496",
"SX c #AB8E8F",
"DX c #98A686",
"FX c #99BB86",
"GX c #88AE8C",
"HX c #AEAB8D",
"JX c #8685A9",
"KX c #918AAB",
"LX c #AA8CAC",
"PX c #B4A4A5",
"IX c #93C68B",
"UX c #9882C3",
/* pixels */
"q.q.4.>.<.>X;X2.u.9Xs.AXR D ; u.E.Y.AXU ] 2 Y.LXHXFX4X(.xXAXIX5XU.U.0Xt.,X1X,X1.c ; $ ; = ] @ ;.;.] $ c >X1X:X2.{.;X,X2.<.3.q.7.",
"7.0.y.3.; {.;X{.' 2 K.LXP R aX:.V.JXSXT 4X>.~.LXtXtXZ V..X*X7XkXQ.KXZX5X{.{.,X,X:X$ <.= = $ ] ;.;.] c :X4X1X;X,X' {.<.2.<.0.0.9.",
"5.8.y.3.2.<.' {.| N.Q.KXPXHXG 8XN.UXAXyXsXm E.cX&X%.7X8XoX%X} rX~.^.VX>X{.7.:X,X,X<.$ ;.,.>.>.>._ : v qX8X3X{.c {.' <.<.3.0.8.8.",
",.8.8.0.3.3.:X;Xc 6XV.JXLXxX.XhXC.!.-X'.*X2XQ..X_.X.n.|.u o %.N.KXLXU >Xt.s.9X>X2.' $ $ ] >.>.= = 7.B yX8X5X X{.' ' <.3.0.8.5.,.",
"0.5.,.8.0.2Xv n b |.!.(.cX*X&X@.b.6XOXi X.z.6XOXi ~ j.3Xm + +.N.7X-XDX;X2X9 NX:X{.' $ $ ] ] <.>.; 9XwXqX8X7X{.>X' ' >.,.8.5.5.0.",
"2Xq.w.w.w.2 wXI aXb gXD.hX+X`.! v.6Xh # ~ $.A u o + { JXM   { g.f ].tX| I.SXCX2X2.<.<.$ ] 2.<.<.6.9XqX4X1X.X5X<.' 2.>.,.5.5.8.9X",
"a.2X7.w.i.a.NXCXE G @XgX7Xa o ( @.Q.b ; 2.z.8XuXx % ;.E.V = r.kXu ).fXt.^.Y.FX9Xs.s.a.c ] 2.4.' 7.2X2X1X3X5X<X,X2.<.>.>.,.w.a.2X",
"a.: : :.a.s.L.SXHXIXnXuX2Xj > + _ W.D M $.o.k.uXn = i.h.V < P.wX* ` v.g.hX*XFXv U.L.s.6.<.] 4.<.v 1.>X|.<X<X1X,X2.,.= ,.5.7.7.2 ",
"a.6.: :.9.p.Y.LXPXyX#.v.eXz m = r.J.9XVXmXX.@.M.G < 1 f.L J.8 wXa.{.u.gX+Xo.8Xh.^.T.I 6X1.; t.,X{.<.;X,X{.1X1X,X3.,.>.,.5.5.: 6.",
",.w.w.>.8.h.Y.KXxXmXO.[ k.rXsX< < 8 8XqX=X).^ l.tXBX1 N c 0 s.I t.n.eX|.t X.6XxXhXSXVX6X,X<.2.{.; 1.;X{.>X6.:X<X;X<.; >.= w.5.w.",
"6X: & $ 3.a.P.(.zX=X/ ( j.E.yXE 0 8 B.9X$Xd X l.h.I w N a 2 f.9X*XA.9Xj # +.6X3X=XAXzXjXg.5X,X;X' ' ' {.{.c c >X;X;X; ; : w.7.q.",
"9X0XwX2X,.>.m.~.xXf o O ) f.H.t.9X8.M.i.#Xa O ) G.v BXq.k ,.p.6X&X%.6Xu X n.3Xt `.tX7XeX6XjX X| | t.2.{.<.:X2X1X:X:X: : w.a.2Xq.",
"0XN I GXwXc p kXlXoXi + + p.8 t.# ) i.2 5X_.% + P.:.n.g.m 3 i.7X'.X.6Xc X m.n y ^ 7XgXrX#X*X*XX.} | 8.<.{.5X1X2Xa.9Xa.9X9XqX9X2X",
"U.L.BXT R GXiXs 2XpXu * - , 6 4Xd @ 1 M : j m - 1 f. .u.K.M y.|.r ^ eXv _ g.m ) @.N.Y.0XoX'./ X.^ #.t.2.3.9X0X3 s.s.0XyXyXtXqX2X",
"ZXQ.^.SXGXtX5X5XuX7Xh G N 3 w 9XM v I GXaXZ k : , J.f.N.H.>X X[.r } 0X: i.0X* *.g.Q.T.2Xa [.).(  .{ | q.s.I.T.T.P BXVXsXdXaX4X2X",
"h.cXLXSXhX&Xo.+.x.pX4X4XF E VXE.~.3 Y FXGXn Z B i.8 J.M.s..X).a ~ r.qX= m.wX% e.tX-XBXs d v 9.$ +.e.g.eXtXrXBXSXT BXAXsXtX8X2X1X",
"g.V.KXZX#X].o 2.v.c.C.I.U.2.{ C.(.ZXNXDX%.v.b.A C 6 L.I.s.8Xu c # e.0X: P.C ;.kXoX'.qXwXE sXB ; _ 5X.X=X=XmX#.lXHXHXE B 8X6X<X2X",
"fXV.D.Q.OXu + 5XO.%...l.I.g.8.m.rXl f pXZ. .D.h.F 0 0 P.h.g.n 3XO l.qX- NX& m.b a 7XVXAXsXGXsX# 1X@XOXoX`.%Xo.$.HXE GXqXeX9X2X1X",
"Z 6Xb.N.l m >.N.o./ X ) -.J.p.W.rXZ x |.*XX...k.yXI 0 H.U.m.a.7Xy m.v p.V r.B.u } gX&.Z.S.dXS 2Xh f t O r `.Z. .GXQ dX1X4X3X3X2X",
"K 8Xb.b.eXZ B eX=Xr O   e.1 8 L.x.qXC y y.'.O.@.B.VX0 J.f.{ g. X`.6X* s.2 f.1Xi #.o.Z. .S.uXaXz k d % o O [ %.c.nXD iX4X2X9XU.h.",
"z.+.+.c.E.0XF I -X_.O @ @ & 6 9 ] : L & @ *X&X~ l.rXV 8 M.[.jX7X%X5X@ rX; a.[.#.&.$.gXn.(.eX@XZ 9X= +   X *.c.m.S aX4X4XQ.^.^.Y.",
"&X`.( ^ m.W.rXrXzXoXu s : < 0 P i m V 9 - } -X'.} d.qX7 M.9XeX0X|  X_ M _ <X[.o.*XmXx.k.!.pXz V & > . + [ v.C.JXuXj g +X=XcXKX^.",
"=X`.X   ;.G.s.4X8X|.g k n H R R .Xb B N s.& >.-X`.@.8X2 d.9 0X3 ' .X{ ;X_ }.fX#.*X&.m.(.ZXJ H N & & - :.d.W.W.pXl j t f =X*XxXLX",
"g i + @ - 7 w 5Xb 4Xn uXZ A aX0XZX3Xh.h.z.3 , e.*Xo.x.d ;.v : | .Xk _ '.t.7Xb.$.n.D.W.rXF E T q 1 1 G./.J.U.9XS B b d % _.X.x.PX",
"$Xu m & 4 q K.U.9XaXJ pXMXE.Q.U.JX8XB.f.| }.v < @ *X2X{.[.1X X3X9.c B ~ { 4X@.b.R.!.g.qXFXE U e 0 8 8 K.eXkXE V 2 > + X ).o.%.HX",
"4Xl Z V Y BXa.s.U FXQ N.F.=.f.W.L.7 : ' u.-X+Xm 9 p p 7X6X| s.2X4XM s ] 8.9Xx.M.KX9XgXu.V L s.rXf.h.B.6XZ 4XE 9 , @ X X ! ..&.IX",
"eX4XtXqXwX3.$ 3 T W sXZ.%.+.[ ) :.G.J.G.i.t. X,Xy.tXxX8X: ,.qXh.y.a.eX4X| ; 4XdXF B N.4.v M 5 8.i.M.h.3Xh c T q 1 ;.{ + ^ &.tXnX",
"x.C.~.U.eX) + 4 Y SXJXO.X.} ~ X + _ i.1 8 7 a.[.*X9Xd.2 y.v 6X6Xg.y._ 4X{.[.n L DX2X X| eXB 7XfXd.P.0Xn m >.NXw 6 p.-.l.D.D.G bX",
"&.@.=.I.H.a.$ 2 9 w T &.%X].r + O + @ = & < 7 H.f.I i.c y.- 6.1.1.1X{ rX,X~ - 9 eX> c  X@Xl +X}.fX6XqXC : ] $ s.6 T.I.W.!.8XuX8X",
"..  + r.e 0 4Xm 3 9 w V.-X=Xt r $ $ ; ; = = = @ ;.a.}.5Xw.1XeXg.3.|.`.a..Xu.f.7 ;X:X;.' u [.[.)./ $.9XM & @ X [ u.kXeXqXZ l l 8X",
"/ O _ =.p.8 9Xb n 2X3 K.lXvX-XOXf j h h s c p # XX@.uXu.$ 2Xu.a.9X5X%Xq.;X0X3X6X* $ | ,X3X;X* 6Xe.#.u.7 < = _ @.j.u.xXF G n h OX",
"r o + @ 7 w 0XeXP./.8 K.Y.a..X3Xk 9XeX2Xv n 3X@X}.u.zX: eX6Xv w.v 7.3.tX2X0X<.` r.e.$.^ } +.z.E 4X3.i.3 7 7 -.C.N.u.R L 4 * # t ",
"a p * 2 L R g.B.k.f.1 p.9 i.8.qXGXn.+.` ~ #.{ i.$ $ eX5X0XeXu.] 0.m 6X9X; 8X9..XuX3X4X2XeXeX4Xk |.7XrXU.K.J./.f.s.0X0 q % + % y ",
"g h m D sXtXt.j.{ _ - 4 7 u.} | M : <.5X| 1X>.> eX.X9Xc 2X} 3X9Xu.2X9X; u.pX#./ + p b s j j j f $X+XvXlXBX3 2Xn Z 9Xq 1 =._ O / ",
"7Xl j aXyXeXkXz.}   @ & C 1XXX#.`.i u j XXe.: 1Xp.P.9..X6X`.s 8.y.9X8.5.gXp 0.r.@ @ @ ; > ; # $ r r =X'.xXw L.3 m 4X8 6 r.)   O.",
"4XpXtX(./.J.L.8 s.@ _ 2 B wXg.fX'.oXl k {.] x y.s.4 # 1.h.$.:X5.0.1X= u.{.- I h.G.1 < & = @ % + + y ].%X&.SXw 9 2 ; a.H.P.l.@.%.",
"bXS b.D.l.d.p.6 w N ] b n s.I.f.fXhX4XeX;.c 2XGXL n s # 4Xe.0.6Xw.q.v y.a.g.0X*X{.a.7 7 1 i._ + X ! X.#.Z.rXT P 4 + ` eXP.E.C.gX",
"nXtX .X.+ ) ;.1 8 T s h 3XB.M.r.- - C 9X@.t.eXE aXn 3.| n 9Xa.t.rXqX= ; 9XrXuXg.<X X2.d.G.J.G.:.) [ [ %.Z.GXW U 3 ] 6.V tXyX4XeX",
"IX&...) X + . , L R 8Xk 4Xh.h.i.s.N V 2Xz.cXrXB.E.gX9Xr.$ |.: tX1.0X5XkXhX; b 4 m oX.Xt.] : L.K.W.M.l.v.r.E IXI s.0XP Y B z l 4X",
"HX..o.~ X + > 2 F F kXs.P.8 8 w 0 T W E N U.E.E.v.+.8X_ ` B c s.8X5Xc `.|.2Xz.$ 4 2X}. Xf.g.hXZXh.U.~.MXpXJ aX9Xf.9 q 1 & m a #X",
"PXfX%X[.O # m V S qXU./.J.G.1 1 < CXE aXNX^.k.n.| *X5Xx.*X> s .X} : v ;.x z.o.*X{ , 3 z.f.h.4XU.0XwXS Z uXn n 2XtX8 1 - . @ y g ",
"LXzX=X=XoXt j l aXW.W.d.d.- & , C Y S U.(.m.&.*X*Xb..Xe.[.| }. Xs.3 BX:.2 8Xn.`.=X2.& s.B B b |.DXE D n k OX@X9XqXs.H.;.  X `.=X",
"KX^.cX-XOXg k A JXC.v.[ ) . > : V S pX(.C.z.A.*X&.{.|._ c [ .X| 9X9XeXd.1 V d.` &X-X] & L C m [.P 9 , , c y oX8XZXlXW.l.[ ( `.&X",
"T.^.^.Q.qXn D pXC. .[ X X + . v Z z 4X!.c.g.$.Z...d 2X_ 9X@ 1X#.vXjX{.m.7 L JXj.` &X*X@ - I : | 9 q & = = # oX-XI D yXE.c.%...gX",
"K.U.eX5X1XA G dXS...! O # # d k l B 8XS.%.Z.Z.$.).b d.: s.; 6X/ .Xx.{ M.J.0 wX!.@.( '.t.i L B 6XL.8 1 ;.X O r &X6XB uX9XN.b.8XIX",
"2X{.2Xa.3XaXIXGXA.Z.X.r O y f j 4XuXdXS.Z.&.lX`.t rXr.N 1 2 u.r .X3 m.g.I.q C yXC.%.O.&.}.m Z rXW.p.J.-.! ! / o.gX: b Z x.v.5XZ ",
"2.:X1X2X0XGXIXHX#.O.&X#Xt oX$X1X$ A FXyXqXVXzXt |.i.- VXi.M r.r uXm N.a.I.L.q E h.v. .Z.pXOXl U.m.4.a.I.j.+.%.O.5X+ i OX!.D.V.t.",
"2X; 2X4XB DXCXW lX#.mX-X=X$Xu._ ; B E E wXqX.XoXkX;.4 h.i.n l.o s c 3Xh.I.J.7 C iXcXv.%.DX0XY.(.b.{ 3.U.W.D.c.n.' r [.+XAXlXB.g.",
"v :X6X6XtXVXCXSXSXBXtXtXeXu.@.+.# 0.M c _.P jX4Xt.+ V M.= B r.~ |.o .XH.f.H.8 a.B Z iXsXFXY s.Y.V.U Y F pX4XpXfX+.O.&XhXLXLX!.h.",
"7.0.6XtXyXVXBXL.T.T.Y.U.g.t.{ @.~ / i a 3XT.E.g.[ = 0Xi.= wXe.o }.[.1XH.N.i.J.5 & s uXD GXVX: 2 9Xw 4 N H h 7XiX5X7XtXCXSXSXJXU.",
"g.u.x.lXZXZXK.9 9 a.2Xu.u.r.{ X.#.`._.+X4XP.B.@.! v eX_ * 8X{ r $X4.N 2 N. .f.5 = b j v M 3 @ p 4X6 , - > h @X2X:XA sXDXSXL NXU.",
"q.u.g.rXU.L.0X9X>X3X5X,Xt.t.t.} #.%X'.#Xa.y.6XX.O m x.! d jX ._.7Xi.3 c N.n.8.p.@ % t 5Xa.i.+ # t.J.h.) + u g cXg.1Xn wXVXVXL s.",
"0.q.g.K.K.s.v b |.3X1X3.3.t.t.| | XX.Xg.5.>.9X%Xu 3Xn.+ d 6X&.&XjXi.4.s 2XP M I.@ X r $Xs.M.y.M 2XH.-.+ X o _.zX(.g.0.a.0Xs.3 2X",
"6.7.a.i.p.: c s 3Xs |.{.,Xy.,X{.2.5X6Xr.;.2XwX=X@X5X+.# j eX%.&XrXh.: c M w I U.m.X y #X9XN.J.P CXyXE.m.( / =XzX~.B.s.i.a.2 a.u.",
"6Xq.w.w.: ; p s |.|.{.>X,Xy.y.9.{.2.' $ >.qXCXxXeX2X..t @Xu.n.z.VXU.q v NX1 I tXk.) o -XtX9Xe < < A tXk.@.( Z.JXKXU.i.a.w.q.q.9.",
"u.9.5.; ] $ ' :Xs s |.{.5X2.3.6.3.3.<.; ] B T.^.Q.iXZ.#X8Xt.2.2 B 8 8 I P.4 < B B.&.O.&XVX9XG.r.> M @XtXb.$.xXPXLX^.h.5.; >.y.a.",
"6.5.,.,.>.; $ ;X|.|.<X>X1.1.7.2X6.,X' ] ; s.L.K.c E fXjXU.@.] $ V M.& I s.i.. 9XuXS.o.+.M G !.;.+ $ j 3X7XnXIXHXSXL s.:.w.,.,.6.",
"6.5.,.,.>.>.p p s {.3X>X:X1.0.0.9.y.2.] $ q.a.a.2XR ^.LXg. X`.u 8Xm.;.N U.5.% p k dXn.v ; B N.e.X o u uXx.@XJ Q CXNX2 : 5.8.3.8.",
"1.5.,.5.>.; $ i [.{.>X>X,X6.0.y.g.6Xy.1.;X<.,.<.1XDXw Y.t.8X'.f rXe.! 2 lXe.X o j B @.` o a 6Xv.^ ].#XhXV.gXuXaXVXB 2 : w.8.5.1.",
"1.,.8.5.,.] $ p {.|.b >X1X1X6Xu.u.fX6Xg.3.p ' ] c wXK.g.{.DXvX8XV.*.O m 3Xv.( i +XN.5X..a f 8Xb.%.O.&XxX!.C.<X1Xn v v 6.8.8.5.8.",
",.8.8.8.>.; {.{.|.>X>X>X1X1X6Xy.gXjXgXa.2X; ' {.:XqXs.y.' U AXUXN...~ a k z.O.`.#XV.6X*X-X-XV.b.6X7XxXLXKXB.1Xc c ;X:X1.,.5.8.,.",
"8.8.8.4.<.<.<.{.;X{.{.{.1X<X5X6XvXhXxXrX9X7.5.1X{.:X5.5X{.VXT.(.kX$.%XoXeX7X&.*XhX~.M V sXAX(.MXqXnXW PXKXQ.g. X{.{.<.>.4.8.0.,.",
"8.8.3.1.<.;X;X>X;X{.>X3X<X<X5X8XhXzXKXAX0X3 2X1. X{.;X{.fX0XL.!.lXtX*X#XV.iXtXtXLX~.a.qXHXT.AX(.x.iXQ DXY.K.h.,X,X,X;X<.,.3.8.5.",
"8.5.>.>.<.;X;X;X;X;X{.{.<X<X7X8XhXxXKXAX0XN a.{.2.3.:X{.5X0Xs.U.6XQ KXAXV.4XIXHXSXW.N NXCXSXAX~.kX4XD CXAXN :X7.<.:X:X<.<.2.8.8."
};
