/* XPM */
static char *_777be53724b4419c758741bb0ce6917Q40K8B77rbhMRbVm[] = {
/* columns rows colors chars-per-pixel */
"64 64 23 1 ",
"  c #E5375B",
". c #DF5A6F",
"X c #DE5C70",
"o c #DD5F72",
"O c #E64462",
"+ c #E54B66",
"@ c #E44E68",
"# c #E3516A",
"$ c #E1546B",
"% c #E0576D",
"& c #DC6274",
"* c #DA6476",
"= c #D96777",
"- c #D76B7A",
"; c #D56D7B",
": c #D86978",
"> c #D4707D",
", c #CF7883",
"< c #CD7A85",
"1 c #CB7E87",
"2 c #D17480",
"3 c #D07682",
"4 c #CA8088",
/* pixels */
" .X%%%=O;=%@+:$%@+.@=:+;& =.<X2; .2.oX;&.X::..+.  oX;.@@.@>..2:;",
"@X==X;& +%%2$$-:#oo+X#.@X o3.3X;.o@:o#-.O@:o.++ -: ;:O @ :..+*3o",
"@:;X:%XX% %X :%2&#O3 @@:*3;*X&*.@;-@&;@;<o.+X#+X@o;&.o+22O.o:o2X",
"@XX$:@; @X<X=@-#+=XX =XX:2X*:&.&;X.2@X:-3-.X+O.o.X.&Xo..:.*...2<",
"$@.=O2%.  &@%X&=;%%2@.X.*.2..X:&$o&.+:&X+ && &.@+:o+:o2 @.@X.&..",
";&%:..=@==;X:&&o&&X2;o&&=*&@333X&.:O@#-;+ &@ **&.X;oO.#+ ;.+oX:.",
"$=%X-  = ;==#+-&o+@+O&*@+=*# :O@. &&*XX 2X+.X o2*&&:::..X:&.1@+:",
":%=+&O $X::&&22XXo;o-;.&@ :.+&=o.*-#-&X&o2@2X@2.o:#&2++o:XoXOX+X",
":**#X2#XX2+2###&+.-33&+&.2*&=#+%+:-.XX+:.22++X:@o.3O***;;*@.@...",
".o+# #*.#=+3*O@.@;&1*#+2..#& %X&O>-oOOo&X* @:@o&... @@:@3    +:.",
"*oX..oo+o#&2-+=..X2+#o@o##%%&#=&X.2.OXX#X : ;:@ooO;.+.X-.: X*X.o",
":..   X+&o2;.$O.+2.&:::.=.&.&#;*o+O&*@..: o.+oo.@oX;.:@..+*.. :.",
". ..*:. >.-&o2*:o@.*&;-.@.-o@;X%X. o&@.o2O  2.:o..X.+oX .+@..3+o",
"o:OXo..:.. X;2&2.;+&3 o+: 2+2=+%:O<*&o::... X; .O2:o@+:oo;XX ..+",
"2*.+..+o;+oX+ o -2&$:. X.#X=  %%+.:@&X;+..o o:#X@+@@.: :.2X:X+#:",
";..@o:.3++-:X2:@:;3:$.+..=. O%=-X.. ;O: X.X:Oo:+.o+-Xo+o.ooO&.;;",
"-oX +X.+=;-@#:XX-=:& +%%2#O=3XX&+#.#@o .:@3.:.:.-X@;&O &::+# -- ",
"oXX+;.;.%XO&&=2;-%-& =O=#o <&X.=#:+#X+%X:ooX.2o@@1*-$ o$ X2:@&-&",
"2&*+O@*o=@&=%=#-*2=X+2 #%&;3#=XX &o##3=@+o@++X+&+2@.%--.;;o$#. %",
";2*+;X;o%X;=%o<=#O#&*X=X+2ooX@X@..O=X;@2..oo::O.= .2 &.X*%*2:.@+",
"XX& +; 22X+&=;+:O=#X;3 *=+X&2X==&2.:2 OXO.ooXX:+ .o:2%;@-&ooo*2O",
"=@=*@&+=O=@&;+ o&%&O-&@<X-X=@<&%XX+.;+.@o:@-&&:-X.@ =XO; *%%%=%.",
"@====$#&@;=&X*.:%32++@-X=#2O-:o=-XO.oX@.;-:XX.:Xo@=X=%-**&O= @#-",
"X=#:@2<#+;.:#O&:&&=&*23+ &@O2&*;o@+.;o+.. ooo: * X@X-+&%.*Xo%@==",
"2Xo#=& -@2&*X:;o;=Xo#-XX.  X ;&X.*$:&; 3#@.X== o. <=+@ =+;==+@#=",
":X%==+%&.@X#.Xo#=&+%3=+.X$& ;+2o.ooO2o+.X:X=+X&&@&-;=2 o&& 2.=#3",
"=&=;X=. &: .O;&:O -:&-.# .$$+;&&X*;;;@;:=X#o*+*#X=o;..O.2o&O*%o.",
" O=:=2%>.X &o@*3X%@&@OO@@=@2@.@;:X;;*X.X . o+;.%=.++--3&X@-%%%@=",
"X23=&%=@&::=#.X --%&=#:.<<@+.&$&X3@2:X:2* %X&X%===%%@-oo@&&=.&.*",
"@O*#X=X+@&*:o  :3.&#;#&2 +&@ ;X+2;=;.;2;@X+*&O&&.*& .%=X%X#.O=*%",
"X@*%2 #&3o:.;@.*.= =XXo&X&:X@o;X%2.=2*2;=o#X%*oX#=X&o+-*;@%%=3*+",
"==-=+- X#.o:@&@X=$:@&.2X-@+@. .X;2 .=+; %=XX#2o*=o#.o&1%*..-X o=",
":&X@2.;@2##+%++%+oXX+X.&X#.XoX@+*.#=#@%o;Xo.@o2X@&O2o%;=;=&@: X#",
"&X-<X#=-X;## +@#X;#+:X@*3X@2oX :;&&-;=@=&XoO=O=@oXO =X#2O-&.3#-&",
"O=*; XX& %=@X& =* .*  2.&3@: :& .=:XXo%=--%.2XX;%=&;@;;*o.&.2-:X",
"oX=+%--%%% +3=%@@ .:.@ :2o++.3  @&+%- ==#&X=-&-XXX%XX2;.2- .X2%#",
"*-& 2=+%=2@-&&3X;2  oOX&.XX=+ $&=;o-+;=X%**;O:;#X++X2-+<%X.%2=*@",
"+.#O=o%oX  + +%=.*+;@.o; .;..  @..- *o;%;= @-*-;&o&&+=#+=XOO&= +",
" &*X*2&=+% %=%; X@.o&:&;&.;. :+2OX*%==@o#%&*  *2..o+o@#-%X#+;%#-",
"+X;=+;X- X@ X%X O +:&.:+3o+ X@:&2X%+- oXo o&=#2=oX%&=X= %-%=XX@X",
"&@&.X.@   @@%=%X.;#&X; X-@@  .+ = ;.-o;o %:&;;X&;X+=#@=o@ && +&2",
"22o&  .X ===@O#XX*X;& +X.-@%>-+Xo#X#..o &=#3o=%;.;&+-=++&:*@+ 2-",
"3.XX. o*-*&*&&&%@*=@<@#;XX--@.&-;XX%o.=X@%.::%=:+2 =OX&X: == %=+",
"X3#@o& .+ X +&%+.:=;&+ .;#&#o.&-  &% ==+2-:*%33-..+oX#&&.-o X%:X",
":..*oX+o&X==OXX%+&X-*X =%=+=O22@@.2+o O2=#*%=*@#2@X &@@ &%O:%2 O",
".o.-..*@+ @Xo=##.&##.=*+3o&#.=o2 @@+.;-&##OXX2Xo#:1X.@%.##:oo O#",
"+.@&.+.:X%+=-=*@=+3%;o2O=X%2@%X%&+ @.:+ %X&o@-;@ -;.X%& 31o*O@X+",
":>O :$*+ &=o&=o2;2@ *%@;O%-&O@#*&@X+ :&X=O- o%.;+:..X%.X#&: OX..",
"#..;. O+#O.X*.oo2+X+= X  =X o-=%*&=&=@=@2oXo+X.=2-XX;& :@:@: 2@.",
"; ..; #;  o. ;.#;-&;X==X#X o=Oo.&-= o#=&%X.X -=X@@:@o@#X@=&+;= *",
"+#.## +:o...o #> -2X+XXX+&+;@X=2@2=@X&3*;;=2X;3  X+X.Xo.&  X&o=.",
"o+;. X.+.o+*+::.oOXo+X=-XXXXX@+;=@=..-X22#-o@&X@..X:=  ...<XXo2;",
".@ >+##>o .*>#.;;&##;o;+Oo.@X@XX1=-;o. 2X+%o&@XOX+X&2+ .X.X2*=X.",
"o3 .+.;X+  o.;o.&#  :+;#=  .#o&o-;@o<o&&@X@2%%@-X.*&.X=..++oo =%",
">.+..+:+* $o.oo;#X @= +;. &==%1XOX2;;o@@o;-+&=@%::*#.;X+-oX+&@.o",
".*+*o< .o+..X.X  XoX.@1X @X.;*2X##2#o.X .o*+;=X@@:*.& @:@&o.Xo@@",
".& :.& &.o.;..&o+O:..*::o@.&: -@-@X=X=XoO+@X=@=+-:XoX1;+;=X:=*%=",
"Ooo;.&O...*o. ...;@X2< + . .2X-+=o=3=&- .2.X;o3@X@@=.&@@o#o-%2;#",
"X:&...&&++;... @.@;*.+@.;o@.+2X@2===&+2+X@%X=%=+X=@2@&.2.-#+%X @",
":.==@>&.*.+@@.&: +Xo@+.::+2&2.X==2  +@%;=.+@+@X2@XX-3#.+..#X-.X ",
">;*..;.&..@ @&.O.o+ *O.. ::X#X@2X.XX+*2;&**&-&%#X=#<@@-:o;=X==;-",
"++..O. &@;&&>.. 2o..+Xo@<.2 @ :&#&=XO*@@o23===;#&&-o2%X+#=2=&#@3",
"*.>:...:o++;>.&*...@ @  ++o *o: .&3=-*X=+=.=X+=o=oX-X#2 o%%  ;%*",
"+>.;*&:@.&>&..,*. O.2Xo.X*.:@X=3:&.;  &=:2%=XXO=o@o<=@ &X@+%#;#-"
};
